G04 #@! TF.GenerationSoftware,KiCad,Pcbnew,(5.0.1-3-g963ef8bb5)*
G04 #@! TF.CreationDate,2019-07-05T13:12:53+05:30*
G04 #@! TF.ProjectId,8knobs-v2.1-orderworkshop,386B6E6F62732D76322E312D6F726465,rev?*
G04 #@! TF.SameCoordinates,Original*
G04 #@! TF.FileFunction,Legend,Bot*
G04 #@! TF.FilePolarity,Positive*
%FSLAX46Y46*%
G04 Gerber Fmt 4.6, Leading zero omitted, Abs format (unit mm)*
G04 Created by KiCad (PCBNEW (5.0.1-3-g963ef8bb5)) date 2019 July 05, Friday 13:12:53*
%MOMM*%
%LPD*%
G01*
G04 APERTURE LIST*
%ADD10C,0.120000*%
%ADD11C,0.150000*%
G04 APERTURE END LIST*
D10*
G04 #@! TO.C,C1*
X191118000Y-121365000D02*
G75*
G03X191118000Y-121365000I-4120000J0D01*
G01*
X182918000Y-121365000D02*
X191078000Y-121365000D01*
X182918000Y-121405000D02*
X191078000Y-121405000D01*
X182918000Y-121445000D02*
X191078000Y-121445000D01*
X182919000Y-121485000D02*
X191077000Y-121485000D01*
X182921000Y-121525000D02*
X191075000Y-121525000D01*
X182922000Y-121565000D02*
X191074000Y-121565000D01*
X182924000Y-121605000D02*
X185958000Y-121605000D01*
X188038000Y-121605000D02*
X191072000Y-121605000D01*
X182927000Y-121645000D02*
X185958000Y-121645000D01*
X188038000Y-121645000D02*
X191069000Y-121645000D01*
X182930000Y-121685000D02*
X185958000Y-121685000D01*
X188038000Y-121685000D02*
X191066000Y-121685000D01*
X182933000Y-121725000D02*
X185958000Y-121725000D01*
X188038000Y-121725000D02*
X191063000Y-121725000D01*
X182937000Y-121765000D02*
X185958000Y-121765000D01*
X188038000Y-121765000D02*
X191059000Y-121765000D01*
X182941000Y-121805000D02*
X185958000Y-121805000D01*
X188038000Y-121805000D02*
X191055000Y-121805000D01*
X182946000Y-121845000D02*
X185958000Y-121845000D01*
X188038000Y-121845000D02*
X191050000Y-121845000D01*
X182950000Y-121885000D02*
X185958000Y-121885000D01*
X188038000Y-121885000D02*
X191046000Y-121885000D01*
X182956000Y-121925000D02*
X185958000Y-121925000D01*
X188038000Y-121925000D02*
X191040000Y-121925000D01*
X182961000Y-121965000D02*
X185958000Y-121965000D01*
X188038000Y-121965000D02*
X191035000Y-121965000D01*
X182968000Y-122005000D02*
X185958000Y-122005000D01*
X188038000Y-122005000D02*
X191028000Y-122005000D01*
X182974000Y-122045000D02*
X185958000Y-122045000D01*
X188038000Y-122045000D02*
X191022000Y-122045000D01*
X182981000Y-122086000D02*
X185958000Y-122086000D01*
X188038000Y-122086000D02*
X191015000Y-122086000D01*
X182988000Y-122126000D02*
X185958000Y-122126000D01*
X188038000Y-122126000D02*
X191008000Y-122126000D01*
X182996000Y-122166000D02*
X185958000Y-122166000D01*
X188038000Y-122166000D02*
X191000000Y-122166000D01*
X183004000Y-122206000D02*
X185958000Y-122206000D01*
X188038000Y-122206000D02*
X190992000Y-122206000D01*
X183013000Y-122246000D02*
X185958000Y-122246000D01*
X188038000Y-122246000D02*
X190983000Y-122246000D01*
X183022000Y-122286000D02*
X185958000Y-122286000D01*
X188038000Y-122286000D02*
X190974000Y-122286000D01*
X183031000Y-122326000D02*
X185958000Y-122326000D01*
X188038000Y-122326000D02*
X190965000Y-122326000D01*
X183041000Y-122366000D02*
X185958000Y-122366000D01*
X188038000Y-122366000D02*
X190955000Y-122366000D01*
X183051000Y-122406000D02*
X185958000Y-122406000D01*
X188038000Y-122406000D02*
X190945000Y-122406000D01*
X183062000Y-122446000D02*
X185958000Y-122446000D01*
X188038000Y-122446000D02*
X190934000Y-122446000D01*
X183073000Y-122486000D02*
X185958000Y-122486000D01*
X188038000Y-122486000D02*
X190923000Y-122486000D01*
X183084000Y-122526000D02*
X185958000Y-122526000D01*
X188038000Y-122526000D02*
X190912000Y-122526000D01*
X183096000Y-122566000D02*
X185958000Y-122566000D01*
X188038000Y-122566000D02*
X190900000Y-122566000D01*
X183109000Y-122606000D02*
X185958000Y-122606000D01*
X188038000Y-122606000D02*
X190887000Y-122606000D01*
X183121000Y-122646000D02*
X185958000Y-122646000D01*
X188038000Y-122646000D02*
X190875000Y-122646000D01*
X183135000Y-122686000D02*
X185958000Y-122686000D01*
X188038000Y-122686000D02*
X190861000Y-122686000D01*
X183148000Y-122726000D02*
X185958000Y-122726000D01*
X188038000Y-122726000D02*
X190848000Y-122726000D01*
X183163000Y-122766000D02*
X185958000Y-122766000D01*
X188038000Y-122766000D02*
X190833000Y-122766000D01*
X183177000Y-122806000D02*
X185958000Y-122806000D01*
X188038000Y-122806000D02*
X190819000Y-122806000D01*
X183193000Y-122846000D02*
X185958000Y-122846000D01*
X188038000Y-122846000D02*
X190803000Y-122846000D01*
X183208000Y-122886000D02*
X185958000Y-122886000D01*
X188038000Y-122886000D02*
X190788000Y-122886000D01*
X183224000Y-122926000D02*
X185958000Y-122926000D01*
X188038000Y-122926000D02*
X190772000Y-122926000D01*
X183241000Y-122966000D02*
X185958000Y-122966000D01*
X188038000Y-122966000D02*
X190755000Y-122966000D01*
X183258000Y-123006000D02*
X185958000Y-123006000D01*
X188038000Y-123006000D02*
X190738000Y-123006000D01*
X183276000Y-123046000D02*
X185958000Y-123046000D01*
X188038000Y-123046000D02*
X190720000Y-123046000D01*
X183294000Y-123086000D02*
X185958000Y-123086000D01*
X188038000Y-123086000D02*
X190702000Y-123086000D01*
X183312000Y-123126000D02*
X185958000Y-123126000D01*
X188038000Y-123126000D02*
X190684000Y-123126000D01*
X183332000Y-123166000D02*
X185958000Y-123166000D01*
X188038000Y-123166000D02*
X190664000Y-123166000D01*
X183351000Y-123206000D02*
X185958000Y-123206000D01*
X188038000Y-123206000D02*
X190645000Y-123206000D01*
X183371000Y-123246000D02*
X185958000Y-123246000D01*
X188038000Y-123246000D02*
X190625000Y-123246000D01*
X183392000Y-123286000D02*
X185958000Y-123286000D01*
X188038000Y-123286000D02*
X190604000Y-123286000D01*
X183414000Y-123326000D02*
X185958000Y-123326000D01*
X188038000Y-123326000D02*
X190582000Y-123326000D01*
X183436000Y-123366000D02*
X185958000Y-123366000D01*
X188038000Y-123366000D02*
X190560000Y-123366000D01*
X183458000Y-123406000D02*
X185958000Y-123406000D01*
X188038000Y-123406000D02*
X190538000Y-123406000D01*
X183481000Y-123446000D02*
X185958000Y-123446000D01*
X188038000Y-123446000D02*
X190515000Y-123446000D01*
X183505000Y-123486000D02*
X185958000Y-123486000D01*
X188038000Y-123486000D02*
X190491000Y-123486000D01*
X183529000Y-123526000D02*
X185958000Y-123526000D01*
X188038000Y-123526000D02*
X190467000Y-123526000D01*
X183554000Y-123566000D02*
X185958000Y-123566000D01*
X188038000Y-123566000D02*
X190442000Y-123566000D01*
X183580000Y-123606000D02*
X185958000Y-123606000D01*
X188038000Y-123606000D02*
X190416000Y-123606000D01*
X183606000Y-123646000D02*
X185958000Y-123646000D01*
X188038000Y-123646000D02*
X190390000Y-123646000D01*
X183633000Y-123686000D02*
X190363000Y-123686000D01*
X183660000Y-123726000D02*
X190336000Y-123726000D01*
X183689000Y-123766000D02*
X190307000Y-123766000D01*
X183718000Y-123806000D02*
X190278000Y-123806000D01*
X183748000Y-123846000D02*
X190248000Y-123846000D01*
X183778000Y-123886000D02*
X190218000Y-123886000D01*
X183809000Y-123926000D02*
X190187000Y-123926000D01*
X183842000Y-123966000D02*
X190154000Y-123966000D01*
X183874000Y-124006000D02*
X190122000Y-124006000D01*
X183908000Y-124046000D02*
X190088000Y-124046000D01*
X183943000Y-124086000D02*
X190053000Y-124086000D01*
X183979000Y-124126000D02*
X190017000Y-124126000D01*
X184015000Y-124166000D02*
X189981000Y-124166000D01*
X184053000Y-124206000D02*
X189943000Y-124206000D01*
X184091000Y-124246000D02*
X189905000Y-124246000D01*
X184131000Y-124286000D02*
X189865000Y-124286000D01*
X184172000Y-124326000D02*
X189824000Y-124326000D01*
X184214000Y-124366000D02*
X189782000Y-124366000D01*
X184257000Y-124406000D02*
X189739000Y-124406000D01*
X184301000Y-124446000D02*
X189695000Y-124446000D01*
X184347000Y-124486000D02*
X189649000Y-124486000D01*
X184394000Y-124526000D02*
X189602000Y-124526000D01*
X184442000Y-124566000D02*
X189554000Y-124566000D01*
X184493000Y-124606000D02*
X189503000Y-124606000D01*
X184544000Y-124646000D02*
X189452000Y-124646000D01*
X184598000Y-124686000D02*
X189398000Y-124686000D01*
X184653000Y-124726000D02*
X189343000Y-124726000D01*
X184711000Y-124766000D02*
X189285000Y-124766000D01*
X184770000Y-124806000D02*
X189226000Y-124806000D01*
X184832000Y-124846000D02*
X189164000Y-124846000D01*
X184896000Y-124886000D02*
X189100000Y-124886000D01*
X184964000Y-124926000D02*
X189032000Y-124926000D01*
X185034000Y-124966000D02*
X188962000Y-124966000D01*
X185108000Y-125006000D02*
X188888000Y-125006000D01*
X185185000Y-125046000D02*
X188811000Y-125046000D01*
X185267000Y-125086000D02*
X188729000Y-125086000D01*
X185353000Y-125126000D02*
X188643000Y-125126000D01*
X185446000Y-125166000D02*
X188550000Y-125166000D01*
X185545000Y-125206000D02*
X188451000Y-125206000D01*
X185652000Y-125246000D02*
X188344000Y-125246000D01*
X185769000Y-125286000D02*
X188227000Y-125286000D01*
X185900000Y-125326000D02*
X188096000Y-125326000D01*
X186050000Y-125366000D02*
X187946000Y-125366000D01*
X186230000Y-125406000D02*
X187766000Y-125406000D01*
X186465000Y-125446000D02*
X187531000Y-125446000D01*
X184683000Y-116955302D02*
X184683000Y-117755302D01*
X184283000Y-117355302D02*
X185083000Y-117355302D01*
G04 #@! TO.C,Audio1*
X195668000Y-80495000D02*
X198328000Y-80495000D01*
X195668000Y-83095000D02*
X195668000Y-80495000D01*
X198328000Y-83095000D02*
X198328000Y-80495000D01*
X195668000Y-83095000D02*
X198328000Y-83095000D01*
X195668000Y-84365000D02*
X195668000Y-85695000D01*
X195668000Y-85695000D02*
X196998000Y-85695000D01*
G04 #@! TO.C,MIDI1*
X195668000Y-70955000D02*
X198328000Y-70955000D01*
X195668000Y-76095000D02*
X195668000Y-70955000D01*
X198328000Y-76095000D02*
X198328000Y-70955000D01*
X195668000Y-76095000D02*
X198328000Y-76095000D01*
X195668000Y-77365000D02*
X195668000Y-78695000D01*
X195668000Y-78695000D02*
X196998000Y-78695000D01*
G04 #@! TO.C,C1*
D11*
X187114666Y-116472142D02*
X187162285Y-116519761D01*
X187305142Y-116567380D01*
X187400380Y-116567380D01*
X187543238Y-116519761D01*
X187638476Y-116424523D01*
X187686095Y-116329285D01*
X187733714Y-116138809D01*
X187733714Y-115995952D01*
X187686095Y-115805476D01*
X187638476Y-115710238D01*
X187543238Y-115615000D01*
X187400380Y-115567380D01*
X187305142Y-115567380D01*
X187162285Y-115615000D01*
X187114666Y-115662619D01*
X186162285Y-116567380D02*
X186733714Y-116567380D01*
X186448000Y-116567380D02*
X186448000Y-115567380D01*
X186543238Y-115710238D01*
X186638476Y-115805476D01*
X186733714Y-115853095D01*
G04 #@! TO.C,Audio1*
X196964666Y-86905476D02*
X196964666Y-87381666D01*
X197250380Y-86810238D02*
X196250380Y-87143571D01*
X197250380Y-87476904D01*
X196583714Y-88238809D02*
X197250380Y-88238809D01*
X196583714Y-87810238D02*
X197107523Y-87810238D01*
X197202761Y-87857857D01*
X197250380Y-87953095D01*
X197250380Y-88095952D01*
X197202761Y-88191190D01*
X197155142Y-88238809D01*
X197250380Y-89143571D02*
X196250380Y-89143571D01*
X197202761Y-89143571D02*
X197250380Y-89048333D01*
X197250380Y-88857857D01*
X197202761Y-88762619D01*
X197155142Y-88715000D01*
X197059904Y-88667380D01*
X196774190Y-88667380D01*
X196678952Y-88715000D01*
X196631333Y-88762619D01*
X196583714Y-88857857D01*
X196583714Y-89048333D01*
X196631333Y-89143571D01*
X197250380Y-89619761D02*
X196583714Y-89619761D01*
X196250380Y-89619761D02*
X196298000Y-89572142D01*
X196345619Y-89619761D01*
X196298000Y-89667380D01*
X196250380Y-89619761D01*
X196345619Y-89619761D01*
X197250380Y-90238809D02*
X197202761Y-90143571D01*
X197155142Y-90095952D01*
X197059904Y-90048333D01*
X196774190Y-90048333D01*
X196678952Y-90095952D01*
X196631333Y-90143571D01*
X196583714Y-90238809D01*
X196583714Y-90381666D01*
X196631333Y-90476904D01*
X196678952Y-90524523D01*
X196774190Y-90572142D01*
X197059904Y-90572142D01*
X197155142Y-90524523D01*
X197202761Y-90476904D01*
X197250380Y-90381666D01*
X197250380Y-90238809D01*
X197250380Y-91524523D02*
X197250380Y-90953095D01*
X197250380Y-91238809D02*
X196250380Y-91238809D01*
X196393238Y-91143571D01*
X196488476Y-91048333D01*
X196536095Y-90953095D01*
G04 #@! TO.C,MIDI1*
X198333714Y-80017380D02*
X198333714Y-79017380D01*
X198000380Y-79731666D01*
X197667047Y-79017380D01*
X197667047Y-80017380D01*
X197190857Y-80017380D02*
X197190857Y-79017380D01*
X196714666Y-80017380D02*
X196714666Y-79017380D01*
X196476571Y-79017380D01*
X196333714Y-79065000D01*
X196238476Y-79160238D01*
X196190857Y-79255476D01*
X196143238Y-79445952D01*
X196143238Y-79588809D01*
X196190857Y-79779285D01*
X196238476Y-79874523D01*
X196333714Y-79969761D01*
X196476571Y-80017380D01*
X196714666Y-80017380D01*
X195714666Y-80017380D02*
X195714666Y-79017380D01*
X194714666Y-80017380D02*
X195286095Y-80017380D01*
X195000380Y-80017380D02*
X195000380Y-79017380D01*
X195095619Y-79160238D01*
X195190857Y-79255476D01*
X195286095Y-79303095D01*
G04 #@! TD*
M02*
