G04 #@! TF.GenerationSoftware,KiCad,Pcbnew,(5.0.1-3-g963ef8bb5)*
G04 #@! TF.CreationDate,2019-07-05T13:12:53+05:30*
G04 #@! TF.ProjectId,8knobs-v2.1-orderworkshop,386B6E6F62732D76322E312D6F726465,rev?*
G04 #@! TF.SameCoordinates,Original*
G04 #@! TF.FileFunction,Copper,L1,Top,Signal*
G04 #@! TF.FilePolarity,Positive*
%FSLAX46Y46*%
G04 Gerber Fmt 4.6, Leading zero omitted, Abs format (unit mm)*
G04 Created by KiCad (PCBNEW (5.0.1-3-g963ef8bb5)) date 2019 July 05, Friday 13:12:53*
%MOMM*%
%LPD*%
G01*
G04 APERTURE LIST*
G04 #@! TA.AperFunction,WasherPad*
%ADD10C,4.000000*%
G04 #@! TD*
G04 #@! TA.AperFunction,ComponentPad*
%ADD11C,1.800000*%
G04 #@! TD*
G04 #@! TA.AperFunction,ComponentPad*
%ADD12R,1.600000X1.600000*%
G04 #@! TD*
G04 #@! TA.AperFunction,ComponentPad*
%ADD13C,1.600000*%
G04 #@! TD*
G04 #@! TA.AperFunction,ComponentPad*
%ADD14O,1.400000X1.400000*%
G04 #@! TD*
G04 #@! TA.AperFunction,ComponentPad*
%ADD15C,1.400000*%
G04 #@! TD*
G04 #@! TA.AperFunction,ComponentPad*
%ADD16O,1.727200X2.032000*%
G04 #@! TD*
G04 #@! TA.AperFunction,ComponentPad*
%ADD17R,1.700000X1.700000*%
G04 #@! TD*
G04 #@! TA.AperFunction,ComponentPad*
%ADD18O,1.700000X1.700000*%
G04 #@! TD*
G04 #@! TA.AperFunction,Conductor*
%ADD19C,0.100000*%
G04 #@! TD*
G04 #@! TA.AperFunction,ComponentPad*
%ADD20C,1.700000*%
G04 #@! TD*
G04 #@! TA.AperFunction,Conductor*
%ADD21C,0.250000*%
G04 #@! TD*
G04 #@! TA.AperFunction,Conductor*
%ADD22C,0.254000*%
G04 #@! TD*
G04 APERTURE END LIST*
D10*
G04 #@! TO.P,RV4,*
G04 #@! TO.N,*
X137931333Y-110115000D03*
X146731333Y-110115000D03*
D11*
G04 #@! TO.P,RV4,1*
G04 #@! TO.N,+5V*
X139831333Y-103115000D03*
G04 #@! TO.P,RV4,2*
G04 #@! TO.N,A1*
X142331333Y-103115000D03*
G04 #@! TO.P,RV4,3*
G04 #@! TO.N,GND*
X144831333Y-103115000D03*
G04 #@! TD*
D10*
G04 #@! TO.P,RV1,*
G04 #@! TO.N,*
X124398000Y-87865000D03*
X115598000Y-87865000D03*
D11*
G04 #@! TO.P,RV1,1*
G04 #@! TO.N,+5V*
X122498000Y-94865000D03*
G04 #@! TO.P,RV1,2*
G04 #@! TO.N,/6(\002A\002A)*
X119998000Y-94865000D03*
G04 #@! TO.P,RV1,3*
G04 #@! TO.N,GND*
X117498000Y-94865000D03*
G04 #@! TD*
D12*
G04 #@! TO.P,C1,1*
G04 #@! TO.N,Net-(Audio1-Pad1)*
X186998000Y-120115000D03*
D13*
G04 #@! TO.P,C1,2*
G04 #@! TO.N,GND*
X186998000Y-122615000D03*
G04 #@! TD*
D14*
G04 #@! TO.P,R2,2*
G04 #@! TO.N,Net-(MIDI1-Pad2)*
X188618000Y-75365000D03*
D15*
G04 #@! TO.P,R2,1*
G04 #@! TO.N,+5V*
X180998000Y-75365000D03*
G04 #@! TD*
G04 #@! TO.P,R1,1*
G04 #@! TO.N,/9(\002A\002A)*
X181298000Y-80065000D03*
D14*
G04 #@! TO.P,R1,2*
G04 #@! TO.N,Net-(Audio1-Pad1)*
X188918000Y-80065000D03*
G04 #@! TD*
D16*
G04 #@! TO.P,P1,1*
G04 #@! TO.N,Net-(P1-Pad1)*
X138938000Y-123825000D03*
G04 #@! TO.P,P1,2*
G04 #@! TO.N,/IOREF*
X141478000Y-123825000D03*
G04 #@! TO.P,P1,3*
G04 #@! TO.N,/Reset*
X144018000Y-123825000D03*
G04 #@! TO.P,P1,4*
G04 #@! TO.N,+3V3*
X146558000Y-123825000D03*
G04 #@! TO.P,P1,5*
G04 #@! TO.N,+5V*
X149098000Y-123825000D03*
G04 #@! TO.P,P1,6*
G04 #@! TO.N,GND*
X151638000Y-123825000D03*
G04 #@! TO.P,P1,7*
X154178000Y-123825000D03*
G04 #@! TO.P,P1,8*
G04 #@! TO.N,/Vin*
X156718000Y-123825000D03*
G04 #@! TD*
G04 #@! TO.P,P2,1*
G04 #@! TO.N,A0*
X161798000Y-123825000D03*
G04 #@! TO.P,P2,2*
G04 #@! TO.N,A1*
X164338000Y-123825000D03*
G04 #@! TO.P,P2,3*
G04 #@! TO.N,A2*
X166878000Y-123825000D03*
G04 #@! TO.P,P2,4*
G04 #@! TO.N,A3*
X169418000Y-123825000D03*
G04 #@! TO.P,P2,5*
G04 #@! TO.N,/A4(SDA)*
X171958000Y-123825000D03*
G04 #@! TO.P,P2,6*
G04 #@! TO.N,Net-(P2-Pad6)*
X174498000Y-123825000D03*
G04 #@! TD*
G04 #@! TO.P,P3,1*
G04 #@! TO.N,/A5(SCL)*
X129794000Y-75565000D03*
G04 #@! TO.P,P3,2*
G04 #@! TO.N,/r2*
X132334000Y-75565000D03*
G04 #@! TO.P,P3,3*
G04 #@! TO.N,/AREF*
X134874000Y-75565000D03*
G04 #@! TO.P,P3,4*
G04 #@! TO.N,GND*
X137414000Y-75565000D03*
G04 #@! TO.P,P3,5*
G04 #@! TO.N,/13(SCK)*
X139954000Y-75565000D03*
G04 #@! TO.P,P3,6*
G04 #@! TO.N,/12(MISO)*
X142494000Y-75565000D03*
G04 #@! TO.P,P3,7*
G04 #@! TO.N,/11(\002A\002A/MOSI)*
X145034000Y-75565000D03*
G04 #@! TO.P,P3,8*
G04 #@! TO.N,/10(\002A\002A/SS)*
X147574000Y-75565000D03*
G04 #@! TO.P,P3,9*
G04 #@! TO.N,/9(\002A\002A)*
X150114000Y-75565000D03*
G04 #@! TO.P,P3,10*
G04 #@! TO.N,/8*
X152654000Y-75565000D03*
G04 #@! TD*
G04 #@! TO.P,P4,1*
G04 #@! TO.N,/7*
X156718000Y-75565000D03*
G04 #@! TO.P,P4,2*
G04 #@! TO.N,/6(\002A\002A)*
X159258000Y-75565000D03*
G04 #@! TO.P,P4,3*
G04 #@! TO.N,/5(\002A\002A)*
X161798000Y-75565000D03*
G04 #@! TO.P,P4,4*
G04 #@! TO.N,/4*
X164338000Y-75565000D03*
G04 #@! TO.P,P4,5*
G04 #@! TO.N,/3(\002A\002A)*
X166878000Y-75565000D03*
G04 #@! TO.P,P4,6*
G04 #@! TO.N,/2*
X169418000Y-75565000D03*
G04 #@! TO.P,P4,7*
G04 #@! TO.N,/1(Tx)*
X171958000Y-75565000D03*
G04 #@! TO.P,P4,8*
G04 #@! TO.N,/0(Rx)*
X174498000Y-75565000D03*
G04 #@! TD*
D11*
G04 #@! TO.P,RV2,3*
G04 #@! TO.N,GND*
X122498000Y-103115000D03*
G04 #@! TO.P,RV2,2*
G04 #@! TO.N,A0*
X119998000Y-103115000D03*
G04 #@! TO.P,RV2,1*
G04 #@! TO.N,+5V*
X117498000Y-103115000D03*
D10*
G04 #@! TO.P,RV2,*
G04 #@! TO.N,*
X124398000Y-110115000D03*
X115598000Y-110115000D03*
G04 #@! TD*
D11*
G04 #@! TO.P,RV3,3*
G04 #@! TO.N,GND*
X139914666Y-94865000D03*
G04 #@! TO.P,RV3,2*
G04 #@! TO.N,/4*
X142414666Y-94865000D03*
G04 #@! TO.P,RV3,1*
G04 #@! TO.N,+5V*
X144914666Y-94865000D03*
D10*
G04 #@! TO.P,RV3,*
G04 #@! TO.N,*
X138014666Y-87865000D03*
X146814666Y-87865000D03*
G04 #@! TD*
D11*
G04 #@! TO.P,RV5,3*
G04 #@! TO.N,GND*
X162331332Y-94865000D03*
G04 #@! TO.P,RV5,2*
G04 #@! TO.N,Net-(P2-Pad6)*
X164831332Y-94865000D03*
G04 #@! TO.P,RV5,1*
G04 #@! TO.N,+5V*
X167331332Y-94865000D03*
D10*
G04 #@! TO.P,RV5,*
G04 #@! TO.N,*
X160431332Y-87865000D03*
X169231332Y-87865000D03*
G04 #@! TD*
D11*
G04 #@! TO.P,RV6,3*
G04 #@! TO.N,GND*
X167164666Y-103115000D03*
G04 #@! TO.P,RV6,2*
G04 #@! TO.N,A2*
X164664666Y-103115000D03*
G04 #@! TO.P,RV6,1*
G04 #@! TO.N,+5V*
X162164666Y-103115000D03*
D10*
G04 #@! TO.P,RV6,*
G04 #@! TO.N,*
X169064666Y-110115000D03*
X160264666Y-110115000D03*
G04 #@! TD*
G04 #@! TO.P,RV7,*
G04 #@! TO.N,*
X191648000Y-87865000D03*
X182848000Y-87865000D03*
D11*
G04 #@! TO.P,RV7,1*
G04 #@! TO.N,+5V*
X189748000Y-94865000D03*
G04 #@! TO.P,RV7,2*
G04 #@! TO.N,/A4(SDA)*
X187248000Y-94865000D03*
G04 #@! TO.P,RV7,3*
G04 #@! TO.N,GND*
X184748000Y-94865000D03*
G04 #@! TD*
D10*
G04 #@! TO.P,RV8,*
G04 #@! TO.N,*
X182598000Y-110115000D03*
X191398000Y-110115000D03*
D11*
G04 #@! TO.P,RV8,1*
G04 #@! TO.N,+5V*
X184498000Y-103115000D03*
G04 #@! TO.P,RV8,2*
G04 #@! TO.N,A3*
X186998000Y-103115000D03*
G04 #@! TO.P,RV8,3*
G04 #@! TO.N,GND*
X189498000Y-103115000D03*
G04 #@! TD*
D17*
G04 #@! TO.P,Audio1,1*
G04 #@! TO.N,Net-(Audio1-Pad1)*
X196998000Y-84365000D03*
D18*
G04 #@! TO.P,Audio1,2*
G04 #@! TO.N,GND*
X196998000Y-81825000D03*
G04 #@! TD*
D17*
G04 #@! TO.P,MIDI1,1*
G04 #@! TO.N,/1(Tx)*
X196998000Y-77365000D03*
D19*
G04 #@! TD*
G04 #@! TO.N,Net-(MIDI1-Pad2)*
G04 #@! TO.C,MIDI1*
G36*
X197464657Y-73977046D02*
X197505913Y-73983166D01*
X197546371Y-73993300D01*
X197585640Y-74007351D01*
X197623344Y-74025183D01*
X197659117Y-74046625D01*
X197692617Y-74071471D01*
X197723520Y-74099480D01*
X197751529Y-74130383D01*
X197776375Y-74163883D01*
X197797817Y-74199656D01*
X197815649Y-74237360D01*
X197829700Y-74276629D01*
X197839834Y-74317087D01*
X197845954Y-74358343D01*
X197848000Y-74400000D01*
X197848000Y-75250000D01*
X197845954Y-75291657D01*
X197839834Y-75332913D01*
X197829700Y-75373371D01*
X197815649Y-75412640D01*
X197797817Y-75450344D01*
X197776375Y-75486117D01*
X197751529Y-75519617D01*
X197723520Y-75550520D01*
X197692617Y-75578529D01*
X197659117Y-75603375D01*
X197623344Y-75624817D01*
X197585640Y-75642649D01*
X197546371Y-75656700D01*
X197505913Y-75666834D01*
X197464657Y-75672954D01*
X197423000Y-75675000D01*
X196573000Y-75675000D01*
X196531343Y-75672954D01*
X196490087Y-75666834D01*
X196449629Y-75656700D01*
X196410360Y-75642649D01*
X196372656Y-75624817D01*
X196336883Y-75603375D01*
X196303383Y-75578529D01*
X196272480Y-75550520D01*
X196244471Y-75519617D01*
X196219625Y-75486117D01*
X196198183Y-75450344D01*
X196180351Y-75412640D01*
X196166300Y-75373371D01*
X196156166Y-75332913D01*
X196150046Y-75291657D01*
X196148000Y-75250000D01*
X196148000Y-74400000D01*
X196150046Y-74358343D01*
X196156166Y-74317087D01*
X196166300Y-74276629D01*
X196180351Y-74237360D01*
X196198183Y-74199656D01*
X196219625Y-74163883D01*
X196244471Y-74130383D01*
X196272480Y-74099480D01*
X196303383Y-74071471D01*
X196336883Y-74046625D01*
X196372656Y-74025183D01*
X196410360Y-74007351D01*
X196449629Y-73993300D01*
X196490087Y-73983166D01*
X196531343Y-73977046D01*
X196573000Y-73975000D01*
X197423000Y-73975000D01*
X197464657Y-73977046D01*
X197464657Y-73977046D01*
G37*
D20*
G04 #@! TO.P,MIDI1,2*
G04 #@! TO.N,Net-(MIDI1-Pad2)*
X196998000Y-74825000D03*
D18*
G04 #@! TO.P,MIDI1,3*
G04 #@! TO.N,GND*
X196998000Y-72285000D03*
G04 #@! TD*
D21*
G04 #@! TO.N,/A4(SDA)*
X186547989Y-110865011D02*
X186547989Y-110778600D01*
X186547989Y-110778600D02*
X187748000Y-109578590D01*
X187748000Y-109578590D02*
X187748000Y-105765000D01*
X171958000Y-123825000D02*
X171958000Y-123672600D01*
X187748000Y-105765000D02*
X188498000Y-105015000D01*
X190723001Y-103703001D02*
X190723001Y-102789999D01*
X189411002Y-105015000D02*
X190723001Y-103703001D01*
X180515600Y-115115000D02*
X182298000Y-115115000D01*
X190748000Y-98365000D02*
X188147999Y-95764999D01*
X190723001Y-102789999D02*
X190748000Y-102765000D01*
X190748000Y-102765000D02*
X190748000Y-98365000D01*
X188498000Y-105015000D02*
X189411002Y-105015000D01*
X171958000Y-123672600D02*
X180515600Y-115115000D01*
X182298000Y-115115000D02*
X186547989Y-110865011D01*
X188147999Y-95764999D02*
X187248000Y-94865000D01*
G04 #@! TO.N,/6(\002A\002A)*
X121025208Y-92565000D02*
X137548000Y-92565000D01*
X149548000Y-80565000D02*
X155698000Y-80565000D01*
X159258000Y-77005000D02*
X159258000Y-75565000D01*
X137548000Y-92565000D02*
X149548000Y-80565000D01*
X119998000Y-93592208D02*
X121025208Y-92565000D01*
X155698000Y-80565000D02*
X159258000Y-77005000D01*
X119998000Y-94865000D02*
X119998000Y-93592208D01*
G04 #@! TO.N,/1(Tx)*
X196298000Y-78065000D02*
X196998000Y-77365000D01*
X173498000Y-78065000D02*
X196298000Y-78065000D01*
X172548000Y-77115000D02*
X173498000Y-78065000D01*
X172548000Y-76155000D02*
X172548000Y-77115000D01*
X171958000Y-75565000D02*
X172548000Y-76155000D01*
G04 #@! TO.N,A0*
X122248000Y-105365000D02*
X119998000Y-103115000D01*
X123998000Y-105365000D02*
X122248000Y-105365000D01*
X160798000Y-120815000D02*
X139448000Y-120815000D01*
X161798000Y-121815000D02*
X160798000Y-120815000D01*
X139448000Y-120815000D02*
X123998000Y-105365000D01*
X161798000Y-123825000D02*
X161798000Y-121815000D01*
G04 #@! TO.N,A1*
X149448000Y-107065000D02*
X164338000Y-121955000D01*
X144398000Y-107065000D02*
X149448000Y-107065000D01*
X142331333Y-104998333D02*
X144398000Y-107065000D01*
X164338000Y-121955000D02*
X164338000Y-123825000D01*
X142331333Y-103115000D02*
X142331333Y-104998333D01*
G04 #@! TO.N,A2*
X164664666Y-103115000D02*
X164664666Y-106781666D01*
X164664666Y-106781666D02*
X166248000Y-108365000D01*
X166248000Y-108365000D02*
X166248000Y-112615000D01*
X166248000Y-112615000D02*
X166998000Y-113365000D01*
X166878000Y-113485000D02*
X166878000Y-123825000D01*
X166998000Y-113365000D02*
X166878000Y-113485000D01*
G04 #@! TO.N,A3*
X170778000Y-122465000D02*
X169418000Y-123825000D01*
X171878000Y-121365000D02*
X170778000Y-122465000D01*
X179999449Y-114565000D02*
X173199449Y-121365000D01*
X181998000Y-114565000D02*
X179999449Y-114565000D01*
X186998000Y-109565000D02*
X181998000Y-114565000D01*
X173199449Y-121365000D02*
X171878000Y-121365000D01*
X186998000Y-103115000D02*
X186998000Y-109565000D01*
G04 #@! TO.N,/4*
X163548000Y-77365000D02*
X164338000Y-76575000D01*
X160248000Y-77365000D02*
X163548000Y-77365000D01*
X149284410Y-81465000D02*
X156148000Y-81465000D01*
X142414666Y-88334744D02*
X149284410Y-81465000D01*
X164338000Y-76575000D02*
X164338000Y-75565000D01*
X156148000Y-81465000D02*
X160248000Y-77365000D01*
X142414666Y-94865000D02*
X142414666Y-88334744D01*
G04 #@! TO.N,Net-(Audio1-Pad1)*
X196598000Y-83965000D02*
X196998000Y-84365000D01*
X195148000Y-83715000D02*
X195398000Y-83965000D01*
X195148000Y-81465000D02*
X195148000Y-83715000D01*
X193748000Y-80065000D02*
X195148000Y-81465000D01*
X195398000Y-83965000D02*
X196598000Y-83965000D01*
X188918000Y-80065000D02*
X193748000Y-80065000D01*
X196998000Y-90315000D02*
X196998000Y-84365000D01*
X196998000Y-112765000D02*
X196998000Y-90315000D01*
X189648000Y-120115000D02*
X196998000Y-112765000D01*
X186998000Y-120115000D02*
X189648000Y-120115000D01*
G04 #@! TO.N,Net-(MIDI1-Pad2)*
X196458000Y-75365000D02*
X196998000Y-74825000D01*
X188618000Y-75365000D02*
X196458000Y-75365000D01*
G04 #@! TD*
D22*
G04 #@! TO.N,+5V*
G36*
X198288000Y-71542693D02*
X198068625Y-71214375D01*
X197577418Y-70886161D01*
X197144256Y-70800000D01*
X196851744Y-70800000D01*
X196418582Y-70886161D01*
X195927375Y-71214375D01*
X195599161Y-71705582D01*
X195483908Y-72285000D01*
X195599161Y-72864418D01*
X195927375Y-73355625D01*
X196085071Y-73460994D01*
X195814670Y-73641670D01*
X195582195Y-73989595D01*
X195500560Y-74400000D01*
X195500560Y-74605000D01*
X189715774Y-74605000D01*
X189580481Y-74402519D01*
X189138891Y-74107458D01*
X188749485Y-74030000D01*
X188486515Y-74030000D01*
X188097109Y-74107458D01*
X187655519Y-74402519D01*
X187360458Y-74844109D01*
X187256846Y-75365000D01*
X187360458Y-75885891D01*
X187655519Y-76327481D01*
X188097109Y-76622542D01*
X188486515Y-76700000D01*
X188749485Y-76700000D01*
X189138891Y-76622542D01*
X189580481Y-76327481D01*
X189715774Y-76125000D01*
X195644882Y-76125000D01*
X195549843Y-76267235D01*
X195500560Y-76515000D01*
X195500560Y-77305000D01*
X173812802Y-77305000D01*
X173308000Y-76800199D01*
X173308000Y-76633847D01*
X173417570Y-76797830D01*
X173913276Y-77129050D01*
X174498000Y-77245359D01*
X175082725Y-77129050D01*
X175578430Y-76797830D01*
X175909650Y-76302124D01*
X175910017Y-76300275D01*
X180242331Y-76300275D01*
X180304169Y-76536042D01*
X180805122Y-76712419D01*
X181335440Y-76683664D01*
X181691831Y-76536042D01*
X181753669Y-76300275D01*
X180998000Y-75544605D01*
X180242331Y-76300275D01*
X175910017Y-76300275D01*
X175996600Y-75864997D01*
X175996600Y-75265002D01*
X175978126Y-75172122D01*
X179650581Y-75172122D01*
X179679336Y-75702440D01*
X179826958Y-76058831D01*
X180062725Y-76120669D01*
X180818395Y-75365000D01*
X181177605Y-75365000D01*
X181933275Y-76120669D01*
X182169042Y-76058831D01*
X182345419Y-75557878D01*
X182316664Y-75027560D01*
X182169042Y-74671169D01*
X181933275Y-74609331D01*
X181177605Y-75365000D01*
X180818395Y-75365000D01*
X180062725Y-74609331D01*
X179826958Y-74671169D01*
X179650581Y-75172122D01*
X175978126Y-75172122D01*
X175909650Y-74827875D01*
X175643615Y-74429725D01*
X180242331Y-74429725D01*
X180998000Y-75185395D01*
X181753669Y-74429725D01*
X181691831Y-74193958D01*
X181190878Y-74017581D01*
X180660560Y-74046336D01*
X180304169Y-74193958D01*
X180242331Y-74429725D01*
X175643615Y-74429725D01*
X175578430Y-74332170D01*
X175082724Y-74000950D01*
X174498000Y-73884641D01*
X173913275Y-74000950D01*
X173417570Y-74332170D01*
X173228000Y-74615881D01*
X173038430Y-74332170D01*
X172542724Y-74000950D01*
X171958000Y-73884641D01*
X171373275Y-74000950D01*
X170877570Y-74332170D01*
X170688000Y-74615881D01*
X170498430Y-74332170D01*
X170002724Y-74000950D01*
X169418000Y-73884641D01*
X168833275Y-74000950D01*
X168337570Y-74332170D01*
X168148000Y-74615881D01*
X167958430Y-74332170D01*
X167462724Y-74000950D01*
X166878000Y-73884641D01*
X166293275Y-74000950D01*
X165797570Y-74332170D01*
X165608000Y-74615881D01*
X165418430Y-74332170D01*
X164922724Y-74000950D01*
X164338000Y-73884641D01*
X163753275Y-74000950D01*
X163257570Y-74332170D01*
X163068000Y-74615881D01*
X162878430Y-74332170D01*
X162382724Y-74000950D01*
X161798000Y-73884641D01*
X161213275Y-74000950D01*
X160717570Y-74332170D01*
X160528000Y-74615881D01*
X160338430Y-74332170D01*
X159842724Y-74000950D01*
X159258000Y-73884641D01*
X158673275Y-74000950D01*
X158177570Y-74332170D01*
X157988000Y-74615881D01*
X157798430Y-74332170D01*
X157302724Y-74000950D01*
X156718000Y-73884641D01*
X156133275Y-74000950D01*
X155637570Y-74332170D01*
X155306350Y-74827876D01*
X155219400Y-75265003D01*
X155219400Y-75864998D01*
X155306350Y-76302125D01*
X155637570Y-76797830D01*
X156133276Y-77129050D01*
X156718000Y-77245359D01*
X157302725Y-77129050D01*
X157798430Y-76797830D01*
X157988000Y-76514119D01*
X158177570Y-76797830D01*
X158305133Y-76883065D01*
X155383199Y-79805000D01*
X149622848Y-79805000D01*
X149548000Y-79790112D01*
X149473152Y-79805000D01*
X149473148Y-79805000D01*
X149299605Y-79839520D01*
X149251462Y-79849096D01*
X149064418Y-79974076D01*
X149000071Y-80017071D01*
X148957671Y-80080527D01*
X140649666Y-88388533D01*
X140649666Y-87340866D01*
X140248511Y-86372392D01*
X139507274Y-85631155D01*
X138538800Y-85230000D01*
X137490532Y-85230000D01*
X136522058Y-85631155D01*
X135780821Y-86372392D01*
X135379666Y-87340866D01*
X135379666Y-88389134D01*
X135780821Y-89357608D01*
X136522058Y-90098845D01*
X137490532Y-90500000D01*
X138538199Y-90500000D01*
X137233199Y-91805000D01*
X121100054Y-91805000D01*
X121025207Y-91790112D01*
X120950360Y-91805000D01*
X120950356Y-91805000D01*
X120728671Y-91849096D01*
X120728669Y-91849097D01*
X120728670Y-91849097D01*
X120540734Y-91974671D01*
X120540732Y-91974673D01*
X120477279Y-92017071D01*
X120434881Y-92080525D01*
X119513527Y-93001879D01*
X119450072Y-93044279D01*
X119407672Y-93107735D01*
X119407671Y-93107736D01*
X119282097Y-93295671D01*
X119237790Y-93518418D01*
X119128493Y-93563690D01*
X118748000Y-93944183D01*
X118367507Y-93563690D01*
X117803330Y-93330000D01*
X117192670Y-93330000D01*
X116628493Y-93563690D01*
X116196690Y-93995493D01*
X115963000Y-94559670D01*
X115963000Y-95170330D01*
X116196690Y-95734507D01*
X116628493Y-96166310D01*
X117192670Y-96400000D01*
X117803330Y-96400000D01*
X118367507Y-96166310D01*
X118748000Y-95785817D01*
X119128493Y-96166310D01*
X119692670Y-96400000D01*
X120303330Y-96400000D01*
X120867507Y-96166310D01*
X121088658Y-95945159D01*
X121597446Y-95945159D01*
X121683852Y-96201643D01*
X122257336Y-96411458D01*
X122867460Y-96385839D01*
X123312148Y-96201643D01*
X123398554Y-95945159D01*
X122498000Y-95044605D01*
X121597446Y-95945159D01*
X121088658Y-95945159D01*
X121299310Y-95734507D01*
X121302539Y-95726710D01*
X121417841Y-95765554D01*
X122318395Y-94865000D01*
X122677605Y-94865000D01*
X123578159Y-95765554D01*
X123834643Y-95679148D01*
X124044458Y-95105664D01*
X124018839Y-94495540D01*
X123834643Y-94050852D01*
X123578159Y-93964446D01*
X122677605Y-94865000D01*
X122318395Y-94865000D01*
X121417841Y-93964446D01*
X121302539Y-94003290D01*
X121299310Y-93995493D01*
X120984413Y-93680596D01*
X121340011Y-93325000D01*
X122584865Y-93325000D01*
X122128540Y-93344161D01*
X121683852Y-93528357D01*
X121597446Y-93784841D01*
X122498000Y-94685395D01*
X123398554Y-93784841D01*
X123312148Y-93528357D01*
X122756316Y-93325000D01*
X137473153Y-93325000D01*
X137548000Y-93339888D01*
X137622847Y-93325000D01*
X137622852Y-93325000D01*
X137844537Y-93280904D01*
X138095929Y-93112929D01*
X138138331Y-93049470D01*
X141654667Y-89533134D01*
X141654666Y-93518331D01*
X141545159Y-93563690D01*
X141164666Y-93944183D01*
X140784173Y-93563690D01*
X140219996Y-93330000D01*
X139609336Y-93330000D01*
X139045159Y-93563690D01*
X138613356Y-93995493D01*
X138379666Y-94559670D01*
X138379666Y-95170330D01*
X138613356Y-95734507D01*
X139045159Y-96166310D01*
X139609336Y-96400000D01*
X140219996Y-96400000D01*
X140784173Y-96166310D01*
X141164666Y-95785817D01*
X141545159Y-96166310D01*
X142109336Y-96400000D01*
X142719996Y-96400000D01*
X143284173Y-96166310D01*
X143505324Y-95945159D01*
X144014112Y-95945159D01*
X144100518Y-96201643D01*
X144674002Y-96411458D01*
X145284126Y-96385839D01*
X145728814Y-96201643D01*
X145815220Y-95945159D01*
X144914666Y-95044605D01*
X144014112Y-95945159D01*
X143505324Y-95945159D01*
X143715976Y-95734507D01*
X143719205Y-95726710D01*
X143834507Y-95765554D01*
X144735061Y-94865000D01*
X145094271Y-94865000D01*
X145994825Y-95765554D01*
X146251309Y-95679148D01*
X146461124Y-95105664D01*
X146438198Y-94559670D01*
X160796332Y-94559670D01*
X160796332Y-95170330D01*
X161030022Y-95734507D01*
X161461825Y-96166310D01*
X162026002Y-96400000D01*
X162636662Y-96400000D01*
X163200839Y-96166310D01*
X163581332Y-95785817D01*
X163961825Y-96166310D01*
X164526002Y-96400000D01*
X165136662Y-96400000D01*
X165700839Y-96166310D01*
X165921990Y-95945159D01*
X166430778Y-95945159D01*
X166517184Y-96201643D01*
X167090668Y-96411458D01*
X167700792Y-96385839D01*
X168145480Y-96201643D01*
X168231886Y-95945159D01*
X167331332Y-95044605D01*
X166430778Y-95945159D01*
X165921990Y-95945159D01*
X166132642Y-95734507D01*
X166135871Y-95726710D01*
X166251173Y-95765554D01*
X167151727Y-94865000D01*
X167510937Y-94865000D01*
X168411491Y-95765554D01*
X168667975Y-95679148D01*
X168877790Y-95105664D01*
X168852171Y-94495540D01*
X168667975Y-94050852D01*
X168411491Y-93964446D01*
X167510937Y-94865000D01*
X167151727Y-94865000D01*
X166251173Y-93964446D01*
X166135871Y-94003290D01*
X166132642Y-93995493D01*
X165921990Y-93784841D01*
X166430778Y-93784841D01*
X167331332Y-94685395D01*
X168231886Y-93784841D01*
X168145480Y-93528357D01*
X167571996Y-93318542D01*
X166961872Y-93344161D01*
X166517184Y-93528357D01*
X166430778Y-93784841D01*
X165921990Y-93784841D01*
X165700839Y-93563690D01*
X165136662Y-93330000D01*
X164526002Y-93330000D01*
X163961825Y-93563690D01*
X163581332Y-93944183D01*
X163200839Y-93563690D01*
X162636662Y-93330000D01*
X162026002Y-93330000D01*
X161461825Y-93563690D01*
X161030022Y-93995493D01*
X160796332Y-94559670D01*
X146438198Y-94559670D01*
X146435505Y-94495540D01*
X146251309Y-94050852D01*
X145994825Y-93964446D01*
X145094271Y-94865000D01*
X144735061Y-94865000D01*
X143834507Y-93964446D01*
X143719205Y-94003290D01*
X143715976Y-93995493D01*
X143505324Y-93784841D01*
X144014112Y-93784841D01*
X144914666Y-94685395D01*
X145815220Y-93784841D01*
X145728814Y-93528357D01*
X145155330Y-93318542D01*
X144545206Y-93344161D01*
X144100518Y-93528357D01*
X144014112Y-93784841D01*
X143505324Y-93784841D01*
X143284173Y-93563690D01*
X143174666Y-93518331D01*
X143174666Y-88649545D01*
X144179666Y-87644545D01*
X144179666Y-88389134D01*
X144580821Y-89357608D01*
X145322058Y-90098845D01*
X146290532Y-90500000D01*
X147338800Y-90500000D01*
X148307274Y-90098845D01*
X149048511Y-89357608D01*
X149449666Y-88389134D01*
X149449666Y-87340866D01*
X157796332Y-87340866D01*
X157796332Y-88389134D01*
X158197487Y-89357608D01*
X158938724Y-90098845D01*
X159907198Y-90500000D01*
X160955466Y-90500000D01*
X161923940Y-90098845D01*
X162665177Y-89357608D01*
X163066332Y-88389134D01*
X163066332Y-87340866D01*
X166596332Y-87340866D01*
X166596332Y-88389134D01*
X166997487Y-89357608D01*
X167738724Y-90098845D01*
X168707198Y-90500000D01*
X169755466Y-90500000D01*
X170723940Y-90098845D01*
X171465177Y-89357608D01*
X171866332Y-88389134D01*
X171866332Y-87340866D01*
X180213000Y-87340866D01*
X180213000Y-88389134D01*
X180614155Y-89357608D01*
X181355392Y-90098845D01*
X182323866Y-90500000D01*
X183372134Y-90500000D01*
X184340608Y-90098845D01*
X185081845Y-89357608D01*
X185483000Y-88389134D01*
X185483000Y-87340866D01*
X189013000Y-87340866D01*
X189013000Y-88389134D01*
X189414155Y-89357608D01*
X190155392Y-90098845D01*
X191123866Y-90500000D01*
X192172134Y-90500000D01*
X193140608Y-90098845D01*
X193881845Y-89357608D01*
X194283000Y-88389134D01*
X194283000Y-87340866D01*
X193881845Y-86372392D01*
X193140608Y-85631155D01*
X192172134Y-85230000D01*
X191123866Y-85230000D01*
X190155392Y-85631155D01*
X189414155Y-86372392D01*
X189013000Y-87340866D01*
X185483000Y-87340866D01*
X185081845Y-86372392D01*
X184340608Y-85631155D01*
X183372134Y-85230000D01*
X182323866Y-85230000D01*
X181355392Y-85631155D01*
X180614155Y-86372392D01*
X180213000Y-87340866D01*
X171866332Y-87340866D01*
X171465177Y-86372392D01*
X170723940Y-85631155D01*
X169755466Y-85230000D01*
X168707198Y-85230000D01*
X167738724Y-85631155D01*
X166997487Y-86372392D01*
X166596332Y-87340866D01*
X163066332Y-87340866D01*
X162665177Y-86372392D01*
X161923940Y-85631155D01*
X160955466Y-85230000D01*
X159907198Y-85230000D01*
X158938724Y-85631155D01*
X158197487Y-86372392D01*
X157796332Y-87340866D01*
X149449666Y-87340866D01*
X149048511Y-86372392D01*
X148307274Y-85631155D01*
X147338800Y-85230000D01*
X146594212Y-85230000D01*
X149599212Y-82225000D01*
X156073153Y-82225000D01*
X156148000Y-82239888D01*
X156222847Y-82225000D01*
X156222852Y-82225000D01*
X156444537Y-82180904D01*
X156695929Y-82012929D01*
X156738331Y-81949470D01*
X160562802Y-78125000D01*
X163473153Y-78125000D01*
X163548000Y-78139888D01*
X163622847Y-78125000D01*
X163622852Y-78125000D01*
X163844537Y-78080904D01*
X164095929Y-77912929D01*
X164138331Y-77849470D01*
X164822473Y-77165329D01*
X164857288Y-77142066D01*
X164922725Y-77129050D01*
X165418430Y-76797830D01*
X165608000Y-76514119D01*
X165797570Y-76797830D01*
X166293276Y-77129050D01*
X166878000Y-77245359D01*
X167462725Y-77129050D01*
X167958430Y-76797830D01*
X168148000Y-76514119D01*
X168337570Y-76797830D01*
X168833276Y-77129050D01*
X169418000Y-77245359D01*
X170002725Y-77129050D01*
X170498430Y-76797830D01*
X170688000Y-76514119D01*
X170877570Y-76797830D01*
X171373276Y-77129050D01*
X171792494Y-77212438D01*
X171832097Y-77411537D01*
X171945013Y-77580527D01*
X172000072Y-77662929D01*
X172063528Y-77705329D01*
X172907671Y-78549473D01*
X172950071Y-78612929D01*
X173201463Y-78780904D01*
X173423148Y-78825000D01*
X173423153Y-78825000D01*
X173498000Y-78839888D01*
X173572847Y-78825000D01*
X180803102Y-78825000D01*
X180541783Y-78933242D01*
X180166242Y-79308783D01*
X179963000Y-79799452D01*
X179963000Y-80330548D01*
X180166242Y-80821217D01*
X180541783Y-81196758D01*
X181032452Y-81400000D01*
X181563548Y-81400000D01*
X182054217Y-81196758D01*
X182429758Y-80821217D01*
X182633000Y-80330548D01*
X182633000Y-79799452D01*
X182429758Y-79308783D01*
X182054217Y-78933242D01*
X181792898Y-78825000D01*
X188370856Y-78825000D01*
X187955519Y-79102519D01*
X187660458Y-79544109D01*
X187556846Y-80065000D01*
X187660458Y-80585891D01*
X187955519Y-81027481D01*
X188397109Y-81322542D01*
X188786515Y-81400000D01*
X189049485Y-81400000D01*
X189438891Y-81322542D01*
X189880481Y-81027481D01*
X190015774Y-80825000D01*
X193433199Y-80825000D01*
X194388000Y-81779802D01*
X194388001Y-83640148D01*
X194373112Y-83715000D01*
X194388001Y-83789852D01*
X194432097Y-84011537D01*
X194600072Y-84262929D01*
X194663527Y-84305328D01*
X194807670Y-84449472D01*
X194850071Y-84512929D01*
X195101463Y-84680904D01*
X195323148Y-84725000D01*
X195323152Y-84725000D01*
X195397999Y-84739888D01*
X195472846Y-84725000D01*
X195500560Y-84725000D01*
X195500560Y-85215000D01*
X195549843Y-85462765D01*
X195690191Y-85672809D01*
X195900235Y-85813157D01*
X196148000Y-85862440D01*
X196238001Y-85862440D01*
X196238000Y-90389851D01*
X196238001Y-90389856D01*
X196238000Y-112450198D01*
X189333199Y-119355000D01*
X188445440Y-119355000D01*
X188445440Y-119315000D01*
X188396157Y-119067235D01*
X188255809Y-118857191D01*
X188045765Y-118716843D01*
X187798000Y-118667560D01*
X186198000Y-118667560D01*
X185950235Y-118716843D01*
X185740191Y-118857191D01*
X185599843Y-119067235D01*
X185550560Y-119315000D01*
X185550560Y-120915000D01*
X185599843Y-121162765D01*
X185740191Y-121372809D01*
X185950235Y-121513157D01*
X186050503Y-121533101D01*
X185781466Y-121802138D01*
X185563000Y-122329561D01*
X185563000Y-122900439D01*
X185781466Y-123427862D01*
X186185138Y-123831534D01*
X186712561Y-124050000D01*
X187283439Y-124050000D01*
X187810862Y-123831534D01*
X188214534Y-123427862D01*
X188433000Y-122900439D01*
X188433000Y-122329561D01*
X188214534Y-121802138D01*
X187945497Y-121533101D01*
X188045765Y-121513157D01*
X188255809Y-121372809D01*
X188396157Y-121162765D01*
X188445440Y-120915000D01*
X188445440Y-120875000D01*
X189573153Y-120875000D01*
X189648000Y-120889888D01*
X189722847Y-120875000D01*
X189722852Y-120875000D01*
X189944537Y-120830904D01*
X190195929Y-120662929D01*
X190238331Y-120599470D01*
X197482473Y-113355329D01*
X197545929Y-113312929D01*
X197688557Y-113099472D01*
X197713904Y-113061538D01*
X197749909Y-112880527D01*
X197758000Y-112839852D01*
X197758000Y-112839848D01*
X197772888Y-112765000D01*
X197758000Y-112690152D01*
X197758000Y-85862440D01*
X197848000Y-85862440D01*
X198095765Y-85813157D01*
X198288000Y-85684708D01*
X198288001Y-125655000D01*
X111708000Y-125655000D01*
X111708000Y-123525003D01*
X137439400Y-123525003D01*
X137439400Y-124124998D01*
X137526350Y-124562125D01*
X137857570Y-125057830D01*
X138353276Y-125389050D01*
X138938000Y-125505359D01*
X139522725Y-125389050D01*
X140018430Y-125057830D01*
X140208000Y-124774119D01*
X140397570Y-125057830D01*
X140893276Y-125389050D01*
X141478000Y-125505359D01*
X142062725Y-125389050D01*
X142558430Y-125057830D01*
X142748000Y-124774119D01*
X142937570Y-125057830D01*
X143433276Y-125389050D01*
X144018000Y-125505359D01*
X144602725Y-125389050D01*
X145098430Y-125057830D01*
X145288000Y-124774119D01*
X145477570Y-125057830D01*
X145973276Y-125389050D01*
X146558000Y-125505359D01*
X147142725Y-125389050D01*
X147638430Y-125057830D01*
X147831909Y-124768267D01*
X148195964Y-125175732D01*
X148723209Y-125429709D01*
X148738974Y-125432358D01*
X148971000Y-125311217D01*
X148971000Y-123952000D01*
X148951000Y-123952000D01*
X148951000Y-123698000D01*
X148971000Y-123698000D01*
X148971000Y-122338783D01*
X149225000Y-122338783D01*
X149225000Y-123698000D01*
X149245000Y-123698000D01*
X149245000Y-123952000D01*
X149225000Y-123952000D01*
X149225000Y-125311217D01*
X149457026Y-125432358D01*
X149472791Y-125429709D01*
X150000036Y-125175732D01*
X150364090Y-124768268D01*
X150557570Y-125057830D01*
X151053276Y-125389050D01*
X151638000Y-125505359D01*
X152222725Y-125389050D01*
X152718430Y-125057830D01*
X152908000Y-124774119D01*
X153097570Y-125057830D01*
X153593276Y-125389050D01*
X154178000Y-125505359D01*
X154762725Y-125389050D01*
X155258430Y-125057830D01*
X155448000Y-124774119D01*
X155637570Y-125057830D01*
X156133276Y-125389050D01*
X156718000Y-125505359D01*
X157302725Y-125389050D01*
X157798430Y-125057830D01*
X158129650Y-124562124D01*
X158216600Y-124124997D01*
X158216600Y-123525002D01*
X158129650Y-123087875D01*
X157798430Y-122592170D01*
X157302724Y-122260950D01*
X156718000Y-122144641D01*
X156133275Y-122260950D01*
X155637570Y-122592170D01*
X155448000Y-122875881D01*
X155258430Y-122592170D01*
X154762724Y-122260950D01*
X154178000Y-122144641D01*
X153593275Y-122260950D01*
X153097570Y-122592170D01*
X152908000Y-122875881D01*
X152718430Y-122592170D01*
X152222724Y-122260950D01*
X151638000Y-122144641D01*
X151053275Y-122260950D01*
X150557570Y-122592170D01*
X150364091Y-122881733D01*
X150000036Y-122474268D01*
X149472791Y-122220291D01*
X149457026Y-122217642D01*
X149225000Y-122338783D01*
X148971000Y-122338783D01*
X148738974Y-122217642D01*
X148723209Y-122220291D01*
X148195964Y-122474268D01*
X147831910Y-122881732D01*
X147638430Y-122592170D01*
X147142724Y-122260950D01*
X146558000Y-122144641D01*
X145973275Y-122260950D01*
X145477570Y-122592170D01*
X145288000Y-122875881D01*
X145098430Y-122592170D01*
X144602724Y-122260950D01*
X144018000Y-122144641D01*
X143433275Y-122260950D01*
X142937570Y-122592170D01*
X142748000Y-122875881D01*
X142558430Y-122592170D01*
X142062724Y-122260950D01*
X141478000Y-122144641D01*
X140893275Y-122260950D01*
X140397570Y-122592170D01*
X140208000Y-122875881D01*
X140018430Y-122592170D01*
X139522724Y-122260950D01*
X138938000Y-122144641D01*
X138353275Y-122260950D01*
X137857570Y-122592170D01*
X137526350Y-123087876D01*
X137439400Y-123525003D01*
X111708000Y-123525003D01*
X111708000Y-109590866D01*
X112963000Y-109590866D01*
X112963000Y-110639134D01*
X113364155Y-111607608D01*
X114105392Y-112348845D01*
X115073866Y-112750000D01*
X116122134Y-112750000D01*
X117090608Y-112348845D01*
X117831845Y-111607608D01*
X118233000Y-110639134D01*
X118233000Y-109590866D01*
X117831845Y-108622392D01*
X117090608Y-107881155D01*
X116122134Y-107480000D01*
X115073866Y-107480000D01*
X114105392Y-107881155D01*
X113364155Y-108622392D01*
X112963000Y-109590866D01*
X111708000Y-109590866D01*
X111708000Y-104195159D01*
X116597446Y-104195159D01*
X116683852Y-104451643D01*
X117257336Y-104661458D01*
X117867460Y-104635839D01*
X118312148Y-104451643D01*
X118398554Y-104195159D01*
X117498000Y-103294605D01*
X116597446Y-104195159D01*
X111708000Y-104195159D01*
X111708000Y-102874336D01*
X115951542Y-102874336D01*
X115977161Y-103484460D01*
X116161357Y-103929148D01*
X116417841Y-104015554D01*
X117318395Y-103115000D01*
X117677605Y-103115000D01*
X118578159Y-104015554D01*
X118693461Y-103976710D01*
X118696690Y-103984507D01*
X119128493Y-104416310D01*
X119692670Y-104650000D01*
X120303330Y-104650000D01*
X120412839Y-104604640D01*
X121657670Y-105849472D01*
X121700071Y-105912929D01*
X121951463Y-106080904D01*
X122173148Y-106125000D01*
X122173152Y-106125000D01*
X122248000Y-106139888D01*
X122322848Y-106125000D01*
X123683199Y-106125000D01*
X125120269Y-107562070D01*
X124922134Y-107480000D01*
X123873866Y-107480000D01*
X122905392Y-107881155D01*
X122164155Y-108622392D01*
X121763000Y-109590866D01*
X121763000Y-110639134D01*
X122164155Y-111607608D01*
X122905392Y-112348845D01*
X123873866Y-112750000D01*
X124922134Y-112750000D01*
X125890608Y-112348845D01*
X126631845Y-111607608D01*
X127033000Y-110639134D01*
X127033000Y-109590866D01*
X126950930Y-109392731D01*
X138857670Y-121299472D01*
X138900071Y-121362929D01*
X139151463Y-121530904D01*
X139373148Y-121575000D01*
X139373152Y-121575000D01*
X139448000Y-121589888D01*
X139522848Y-121575000D01*
X160483199Y-121575000D01*
X161038001Y-122129803D01*
X161038001Y-122378065D01*
X160717570Y-122592170D01*
X160386350Y-123087876D01*
X160299400Y-123525003D01*
X160299400Y-124124998D01*
X160386350Y-124562125D01*
X160717570Y-125057830D01*
X161213276Y-125389050D01*
X161798000Y-125505359D01*
X162382725Y-125389050D01*
X162878430Y-125057830D01*
X163068000Y-124774119D01*
X163257570Y-125057830D01*
X163753276Y-125389050D01*
X164338000Y-125505359D01*
X164922725Y-125389050D01*
X165418430Y-125057830D01*
X165608000Y-124774119D01*
X165797570Y-125057830D01*
X166293276Y-125389050D01*
X166878000Y-125505359D01*
X167462725Y-125389050D01*
X167958430Y-125057830D01*
X168148000Y-124774119D01*
X168337570Y-125057830D01*
X168833276Y-125389050D01*
X169418000Y-125505359D01*
X170002725Y-125389050D01*
X170498430Y-125057830D01*
X170688000Y-124774119D01*
X170877570Y-125057830D01*
X171373276Y-125389050D01*
X171958000Y-125505359D01*
X172542725Y-125389050D01*
X173038430Y-125057830D01*
X173228000Y-124774119D01*
X173417570Y-125057830D01*
X173913276Y-125389050D01*
X174498000Y-125505359D01*
X175082725Y-125389050D01*
X175578430Y-125057830D01*
X175909650Y-124562124D01*
X175996600Y-124124997D01*
X175996600Y-123525002D01*
X175909650Y-123087875D01*
X175578430Y-122592170D01*
X175082724Y-122260950D01*
X174550348Y-122155054D01*
X180830402Y-115875000D01*
X182223153Y-115875000D01*
X182298000Y-115889888D01*
X182372847Y-115875000D01*
X182372852Y-115875000D01*
X182594537Y-115830904D01*
X182845929Y-115662929D01*
X182888331Y-115599470D01*
X187032462Y-111455340D01*
X187095918Y-111412940D01*
X187263893Y-111161548D01*
X187269865Y-111131526D01*
X188232476Y-110168917D01*
X188295929Y-110126519D01*
X188338327Y-110063066D01*
X188338329Y-110063064D01*
X188463903Y-109875128D01*
X188463904Y-109875127D01*
X188508000Y-109653442D01*
X188508000Y-109653438D01*
X188520446Y-109590866D01*
X188763000Y-109590866D01*
X188763000Y-110639134D01*
X189164155Y-111607608D01*
X189905392Y-112348845D01*
X190873866Y-112750000D01*
X191922134Y-112750000D01*
X192890608Y-112348845D01*
X193631845Y-111607608D01*
X194033000Y-110639134D01*
X194033000Y-109590866D01*
X193631845Y-108622392D01*
X192890608Y-107881155D01*
X191922134Y-107480000D01*
X190873866Y-107480000D01*
X189905392Y-107881155D01*
X189164155Y-108622392D01*
X188763000Y-109590866D01*
X188520446Y-109590866D01*
X188522888Y-109578591D01*
X188508000Y-109503744D01*
X188508000Y-106079801D01*
X188812802Y-105775000D01*
X189336155Y-105775000D01*
X189411002Y-105789888D01*
X189485849Y-105775000D01*
X189485854Y-105775000D01*
X189707539Y-105730904D01*
X189958931Y-105562929D01*
X190001333Y-105499470D01*
X191207474Y-104293330D01*
X191270930Y-104250930D01*
X191313925Y-104186583D01*
X191438905Y-103999539D01*
X191452906Y-103929148D01*
X191483001Y-103777853D01*
X191483001Y-103777849D01*
X191497889Y-103703001D01*
X191483001Y-103628153D01*
X191483001Y-102965530D01*
X191508000Y-102839852D01*
X191508000Y-102839847D01*
X191522888Y-102765000D01*
X191508000Y-102690153D01*
X191508000Y-98439848D01*
X191522888Y-98365000D01*
X191508000Y-98290152D01*
X191508000Y-98290148D01*
X191463904Y-98068463D01*
X191463904Y-98068462D01*
X191338329Y-97880527D01*
X191295929Y-97817071D01*
X191232473Y-97774671D01*
X189854675Y-96396873D01*
X190117460Y-96385839D01*
X190562148Y-96201643D01*
X190648554Y-95945159D01*
X189748000Y-95044605D01*
X189733858Y-95058748D01*
X189554253Y-94879143D01*
X189568395Y-94865000D01*
X189927605Y-94865000D01*
X190828159Y-95765554D01*
X191084643Y-95679148D01*
X191294458Y-95105664D01*
X191268839Y-94495540D01*
X191084643Y-94050852D01*
X190828159Y-93964446D01*
X189927605Y-94865000D01*
X189568395Y-94865000D01*
X188667841Y-93964446D01*
X188552539Y-94003290D01*
X188549310Y-93995493D01*
X188338658Y-93784841D01*
X188847446Y-93784841D01*
X189748000Y-94685395D01*
X190648554Y-93784841D01*
X190562148Y-93528357D01*
X189988664Y-93318542D01*
X189378540Y-93344161D01*
X188933852Y-93528357D01*
X188847446Y-93784841D01*
X188338658Y-93784841D01*
X188117507Y-93563690D01*
X187553330Y-93330000D01*
X186942670Y-93330000D01*
X186378493Y-93563690D01*
X185998000Y-93944183D01*
X185617507Y-93563690D01*
X185053330Y-93330000D01*
X184442670Y-93330000D01*
X183878493Y-93563690D01*
X183446690Y-93995493D01*
X183213000Y-94559670D01*
X183213000Y-95170330D01*
X183446690Y-95734507D01*
X183878493Y-96166310D01*
X184442670Y-96400000D01*
X185053330Y-96400000D01*
X185617507Y-96166310D01*
X185998000Y-95785817D01*
X186378493Y-96166310D01*
X186942670Y-96400000D01*
X187553330Y-96400000D01*
X187662838Y-96354640D01*
X187663526Y-96355328D01*
X187663529Y-96355330D01*
X189988001Y-98679803D01*
X189988000Y-101656493D01*
X189803330Y-101580000D01*
X189192670Y-101580000D01*
X188628493Y-101813690D01*
X188248000Y-102194183D01*
X187867507Y-101813690D01*
X187303330Y-101580000D01*
X186692670Y-101580000D01*
X186128493Y-101813690D01*
X185696690Y-102245493D01*
X185693461Y-102253290D01*
X185578159Y-102214446D01*
X184677605Y-103115000D01*
X185578159Y-104015554D01*
X185693461Y-103976710D01*
X185696690Y-103984507D01*
X186128493Y-104416310D01*
X186238000Y-104461669D01*
X186238001Y-109250197D01*
X185233000Y-110255198D01*
X185233000Y-109590866D01*
X184831845Y-108622392D01*
X184090608Y-107881155D01*
X183122134Y-107480000D01*
X182073866Y-107480000D01*
X181105392Y-107881155D01*
X180364155Y-108622392D01*
X179963000Y-109590866D01*
X179963000Y-110639134D01*
X180364155Y-111607608D01*
X181105392Y-112348845D01*
X182073866Y-112750000D01*
X182738199Y-112750000D01*
X181683199Y-113805000D01*
X180074295Y-113805000D01*
X179999448Y-113790112D01*
X179924601Y-113805000D01*
X179924597Y-113805000D01*
X179702912Y-113849096D01*
X179451520Y-114017071D01*
X179409120Y-114080527D01*
X172884648Y-120605000D01*
X171952847Y-120605000D01*
X171878000Y-120590112D01*
X171803153Y-120605000D01*
X171803148Y-120605000D01*
X171581463Y-120649096D01*
X171330071Y-120817071D01*
X171287671Y-120880527D01*
X170293532Y-121874667D01*
X170293526Y-121874671D01*
X169923088Y-122245109D01*
X169418000Y-122144641D01*
X168833275Y-122260950D01*
X168337570Y-122592170D01*
X168148000Y-122875881D01*
X167958430Y-122592170D01*
X167638000Y-122378066D01*
X167638000Y-113775134D01*
X167713903Y-113661537D01*
X167713904Y-113661536D01*
X167772888Y-113365000D01*
X167713904Y-113068463D01*
X167545929Y-112817071D01*
X167482473Y-112774671D01*
X167008000Y-112300199D01*
X167008000Y-111784787D01*
X167572058Y-112348845D01*
X168540532Y-112750000D01*
X169588800Y-112750000D01*
X170557274Y-112348845D01*
X171298511Y-111607608D01*
X171699666Y-110639134D01*
X171699666Y-109590866D01*
X171298511Y-108622392D01*
X170557274Y-107881155D01*
X169588800Y-107480000D01*
X168540532Y-107480000D01*
X167572058Y-107881155D01*
X167008000Y-108445213D01*
X167008000Y-108439846D01*
X167022888Y-108364999D01*
X167008000Y-108290152D01*
X167008000Y-108290148D01*
X166963904Y-108068463D01*
X166838749Y-107881155D01*
X166838329Y-107880526D01*
X166838327Y-107880524D01*
X166795929Y-107817071D01*
X166732476Y-107774673D01*
X165424666Y-106466865D01*
X165424666Y-104461669D01*
X165534173Y-104416310D01*
X165914666Y-104035817D01*
X166295159Y-104416310D01*
X166859336Y-104650000D01*
X167469996Y-104650000D01*
X168034173Y-104416310D01*
X168255324Y-104195159D01*
X183597446Y-104195159D01*
X183683852Y-104451643D01*
X184257336Y-104661458D01*
X184867460Y-104635839D01*
X185312148Y-104451643D01*
X185398554Y-104195159D01*
X184498000Y-103294605D01*
X183597446Y-104195159D01*
X168255324Y-104195159D01*
X168465976Y-103984507D01*
X168699666Y-103420330D01*
X168699666Y-102874336D01*
X182951542Y-102874336D01*
X182977161Y-103484460D01*
X183161357Y-103929148D01*
X183417841Y-104015554D01*
X184318395Y-103115000D01*
X183417841Y-102214446D01*
X183161357Y-102300852D01*
X182951542Y-102874336D01*
X168699666Y-102874336D01*
X168699666Y-102809670D01*
X168465976Y-102245493D01*
X168255324Y-102034841D01*
X183597446Y-102034841D01*
X184498000Y-102935395D01*
X185398554Y-102034841D01*
X185312148Y-101778357D01*
X184738664Y-101568542D01*
X184128540Y-101594161D01*
X183683852Y-101778357D01*
X183597446Y-102034841D01*
X168255324Y-102034841D01*
X168034173Y-101813690D01*
X167469996Y-101580000D01*
X166859336Y-101580000D01*
X166295159Y-101813690D01*
X165914666Y-102194183D01*
X165534173Y-101813690D01*
X164969996Y-101580000D01*
X164359336Y-101580000D01*
X163795159Y-101813690D01*
X163363356Y-102245493D01*
X163360127Y-102253290D01*
X163244825Y-102214446D01*
X162344271Y-103115000D01*
X163244825Y-104015554D01*
X163360127Y-103976710D01*
X163363356Y-103984507D01*
X163795159Y-104416310D01*
X163904666Y-104461669D01*
X163904667Y-106706814D01*
X163889778Y-106781666D01*
X163904667Y-106856518D01*
X163948763Y-107078203D01*
X164116738Y-107329595D01*
X164180194Y-107371995D01*
X165488000Y-108679803D01*
X165488001Y-112540148D01*
X165473112Y-112615000D01*
X165488001Y-112689852D01*
X165517838Y-112839851D01*
X165532097Y-112911537D01*
X165636952Y-113068463D01*
X165700072Y-113162929D01*
X165763528Y-113205329D01*
X166117989Y-113559790D01*
X166118000Y-113559847D01*
X166118001Y-122378065D01*
X165797570Y-122592170D01*
X165608000Y-122875881D01*
X165418430Y-122592170D01*
X165098000Y-122378066D01*
X165098000Y-122029847D01*
X165112888Y-121955000D01*
X165098000Y-121880153D01*
X165098000Y-121880148D01*
X165053904Y-121658463D01*
X164885929Y-121407071D01*
X164822473Y-121364671D01*
X153048668Y-109590866D01*
X157629666Y-109590866D01*
X157629666Y-110639134D01*
X158030821Y-111607608D01*
X158772058Y-112348845D01*
X159740532Y-112750000D01*
X160788800Y-112750000D01*
X161757274Y-112348845D01*
X162498511Y-111607608D01*
X162899666Y-110639134D01*
X162899666Y-109590866D01*
X162498511Y-108622392D01*
X161757274Y-107881155D01*
X160788800Y-107480000D01*
X159740532Y-107480000D01*
X158772058Y-107881155D01*
X158030821Y-108622392D01*
X157629666Y-109590866D01*
X153048668Y-109590866D01*
X150038331Y-106580530D01*
X149995929Y-106517071D01*
X149744537Y-106349096D01*
X149522852Y-106305000D01*
X149522847Y-106305000D01*
X149448000Y-106290112D01*
X149373153Y-106305000D01*
X144712802Y-106305000D01*
X143091333Y-104683532D01*
X143091333Y-104461669D01*
X143200840Y-104416310D01*
X143581333Y-104035817D01*
X143961826Y-104416310D01*
X144526003Y-104650000D01*
X145136663Y-104650000D01*
X145700840Y-104416310D01*
X145921991Y-104195159D01*
X161264112Y-104195159D01*
X161350518Y-104451643D01*
X161924002Y-104661458D01*
X162534126Y-104635839D01*
X162978814Y-104451643D01*
X163065220Y-104195159D01*
X162164666Y-103294605D01*
X161264112Y-104195159D01*
X145921991Y-104195159D01*
X146132643Y-103984507D01*
X146366333Y-103420330D01*
X146366333Y-102874336D01*
X160618208Y-102874336D01*
X160643827Y-103484460D01*
X160828023Y-103929148D01*
X161084507Y-104015554D01*
X161985061Y-103115000D01*
X161084507Y-102214446D01*
X160828023Y-102300852D01*
X160618208Y-102874336D01*
X146366333Y-102874336D01*
X146366333Y-102809670D01*
X146132643Y-102245493D01*
X145921991Y-102034841D01*
X161264112Y-102034841D01*
X162164666Y-102935395D01*
X163065220Y-102034841D01*
X162978814Y-101778357D01*
X162405330Y-101568542D01*
X161795206Y-101594161D01*
X161350518Y-101778357D01*
X161264112Y-102034841D01*
X145921991Y-102034841D01*
X145700840Y-101813690D01*
X145136663Y-101580000D01*
X144526003Y-101580000D01*
X143961826Y-101813690D01*
X143581333Y-102194183D01*
X143200840Y-101813690D01*
X142636663Y-101580000D01*
X142026003Y-101580000D01*
X141461826Y-101813690D01*
X141030023Y-102245493D01*
X141026794Y-102253290D01*
X140911492Y-102214446D01*
X140010938Y-103115000D01*
X140911492Y-104015554D01*
X141026794Y-103976710D01*
X141030023Y-103984507D01*
X141461826Y-104416310D01*
X141571334Y-104461670D01*
X141571334Y-104923481D01*
X141556445Y-104998333D01*
X141571334Y-105073185D01*
X141615430Y-105294870D01*
X141783405Y-105546262D01*
X141846861Y-105588662D01*
X143807670Y-107549472D01*
X143850071Y-107612929D01*
X144101463Y-107780904D01*
X144323148Y-107825000D01*
X144323152Y-107825000D01*
X144398000Y-107839888D01*
X144472848Y-107825000D01*
X145374295Y-107825000D01*
X145238725Y-107881155D01*
X144497488Y-108622392D01*
X144096333Y-109590866D01*
X144096333Y-110639134D01*
X144497488Y-111607608D01*
X145238725Y-112348845D01*
X146207199Y-112750000D01*
X147255467Y-112750000D01*
X148223941Y-112348845D01*
X148965178Y-111607608D01*
X149366333Y-110639134D01*
X149366333Y-109590866D01*
X148965178Y-108622392D01*
X148223941Y-107881155D01*
X148088371Y-107825000D01*
X149133199Y-107825000D01*
X163578000Y-122269802D01*
X163578000Y-122378065D01*
X163257570Y-122592170D01*
X163068000Y-122875881D01*
X162878430Y-122592170D01*
X162558000Y-122378066D01*
X162558000Y-121889848D01*
X162572888Y-121815000D01*
X162558000Y-121740152D01*
X162558000Y-121740148D01*
X162513904Y-121518463D01*
X162345929Y-121267071D01*
X162282473Y-121224671D01*
X161388331Y-120330530D01*
X161345929Y-120267071D01*
X161094537Y-120099096D01*
X160872852Y-120055000D01*
X160872847Y-120055000D01*
X160798000Y-120040112D01*
X160723153Y-120055000D01*
X139762802Y-120055000D01*
X129298668Y-109590866D01*
X135296333Y-109590866D01*
X135296333Y-110639134D01*
X135697488Y-111607608D01*
X136438725Y-112348845D01*
X137407199Y-112750000D01*
X138455467Y-112750000D01*
X139423941Y-112348845D01*
X140165178Y-111607608D01*
X140566333Y-110639134D01*
X140566333Y-109590866D01*
X140165178Y-108622392D01*
X139423941Y-107881155D01*
X138455467Y-107480000D01*
X137407199Y-107480000D01*
X136438725Y-107881155D01*
X135697488Y-108622392D01*
X135296333Y-109590866D01*
X129298668Y-109590866D01*
X124588331Y-104880530D01*
X124545929Y-104817071D01*
X124294537Y-104649096D01*
X124072852Y-104605000D01*
X124072847Y-104605000D01*
X123998000Y-104590112D01*
X123923153Y-104605000D01*
X122911970Y-104605000D01*
X123367507Y-104416310D01*
X123588658Y-104195159D01*
X138930779Y-104195159D01*
X139017185Y-104451643D01*
X139590669Y-104661458D01*
X140200793Y-104635839D01*
X140645481Y-104451643D01*
X140731887Y-104195159D01*
X139831333Y-103294605D01*
X138930779Y-104195159D01*
X123588658Y-104195159D01*
X123799310Y-103984507D01*
X124033000Y-103420330D01*
X124033000Y-102874336D01*
X138284875Y-102874336D01*
X138310494Y-103484460D01*
X138494690Y-103929148D01*
X138751174Y-104015554D01*
X139651728Y-103115000D01*
X138751174Y-102214446D01*
X138494690Y-102300852D01*
X138284875Y-102874336D01*
X124033000Y-102874336D01*
X124033000Y-102809670D01*
X123799310Y-102245493D01*
X123588658Y-102034841D01*
X138930779Y-102034841D01*
X139831333Y-102935395D01*
X140731887Y-102034841D01*
X140645481Y-101778357D01*
X140071997Y-101568542D01*
X139461873Y-101594161D01*
X139017185Y-101778357D01*
X138930779Y-102034841D01*
X123588658Y-102034841D01*
X123367507Y-101813690D01*
X122803330Y-101580000D01*
X122192670Y-101580000D01*
X121628493Y-101813690D01*
X121248000Y-102194183D01*
X120867507Y-101813690D01*
X120303330Y-101580000D01*
X119692670Y-101580000D01*
X119128493Y-101813690D01*
X118696690Y-102245493D01*
X118693461Y-102253290D01*
X118578159Y-102214446D01*
X117677605Y-103115000D01*
X117318395Y-103115000D01*
X116417841Y-102214446D01*
X116161357Y-102300852D01*
X115951542Y-102874336D01*
X111708000Y-102874336D01*
X111708000Y-102034841D01*
X116597446Y-102034841D01*
X117498000Y-102935395D01*
X118398554Y-102034841D01*
X118312148Y-101778357D01*
X117738664Y-101568542D01*
X117128540Y-101594161D01*
X116683852Y-101778357D01*
X116597446Y-102034841D01*
X111708000Y-102034841D01*
X111708000Y-87340866D01*
X112963000Y-87340866D01*
X112963000Y-88389134D01*
X113364155Y-89357608D01*
X114105392Y-90098845D01*
X115073866Y-90500000D01*
X116122134Y-90500000D01*
X117090608Y-90098845D01*
X117831845Y-89357608D01*
X118233000Y-88389134D01*
X118233000Y-87340866D01*
X121763000Y-87340866D01*
X121763000Y-88389134D01*
X122164155Y-89357608D01*
X122905392Y-90098845D01*
X123873866Y-90500000D01*
X124922134Y-90500000D01*
X125890608Y-90098845D01*
X126631845Y-89357608D01*
X127033000Y-88389134D01*
X127033000Y-87340866D01*
X126631845Y-86372392D01*
X125890608Y-85631155D01*
X124922134Y-85230000D01*
X123873866Y-85230000D01*
X122905392Y-85631155D01*
X122164155Y-86372392D01*
X121763000Y-87340866D01*
X118233000Y-87340866D01*
X117831845Y-86372392D01*
X117090608Y-85631155D01*
X116122134Y-85230000D01*
X115073866Y-85230000D01*
X114105392Y-85631155D01*
X113364155Y-86372392D01*
X112963000Y-87340866D01*
X111708000Y-87340866D01*
X111708000Y-75265003D01*
X128295400Y-75265003D01*
X128295400Y-75864998D01*
X128382350Y-76302125D01*
X128713570Y-76797830D01*
X129209276Y-77129050D01*
X129794000Y-77245359D01*
X130378725Y-77129050D01*
X130874430Y-76797830D01*
X131064000Y-76514119D01*
X131253570Y-76797830D01*
X131749276Y-77129050D01*
X132334000Y-77245359D01*
X132918725Y-77129050D01*
X133414430Y-76797830D01*
X133604000Y-76514119D01*
X133793570Y-76797830D01*
X134289276Y-77129050D01*
X134874000Y-77245359D01*
X135458725Y-77129050D01*
X135954430Y-76797830D01*
X136144000Y-76514119D01*
X136333570Y-76797830D01*
X136829276Y-77129050D01*
X137414000Y-77245359D01*
X137998725Y-77129050D01*
X138494430Y-76797830D01*
X138684000Y-76514119D01*
X138873570Y-76797830D01*
X139369276Y-77129050D01*
X139954000Y-77245359D01*
X140538725Y-77129050D01*
X141034430Y-76797830D01*
X141224000Y-76514119D01*
X141413570Y-76797830D01*
X141909276Y-77129050D01*
X142494000Y-77245359D01*
X143078725Y-77129050D01*
X143574430Y-76797830D01*
X143764000Y-76514119D01*
X143953570Y-76797830D01*
X144449276Y-77129050D01*
X145034000Y-77245359D01*
X145618725Y-77129050D01*
X146114430Y-76797830D01*
X146304000Y-76514119D01*
X146493570Y-76797830D01*
X146989276Y-77129050D01*
X147574000Y-77245359D01*
X148158725Y-77129050D01*
X148654430Y-76797830D01*
X148844000Y-76514119D01*
X149033570Y-76797830D01*
X149529276Y-77129050D01*
X150114000Y-77245359D01*
X150698725Y-77129050D01*
X151194430Y-76797830D01*
X151384000Y-76514119D01*
X151573570Y-76797830D01*
X152069276Y-77129050D01*
X152654000Y-77245359D01*
X153238725Y-77129050D01*
X153734430Y-76797830D01*
X154065650Y-76302124D01*
X154152600Y-75864997D01*
X154152600Y-75265002D01*
X154065650Y-74827875D01*
X153734430Y-74332170D01*
X153238724Y-74000950D01*
X152654000Y-73884641D01*
X152069275Y-74000950D01*
X151573570Y-74332170D01*
X151384000Y-74615881D01*
X151194430Y-74332170D01*
X150698724Y-74000950D01*
X150114000Y-73884641D01*
X149529275Y-74000950D01*
X149033570Y-74332170D01*
X148844000Y-74615881D01*
X148654430Y-74332170D01*
X148158724Y-74000950D01*
X147574000Y-73884641D01*
X146989275Y-74000950D01*
X146493570Y-74332170D01*
X146304000Y-74615881D01*
X146114430Y-74332170D01*
X145618724Y-74000950D01*
X145034000Y-73884641D01*
X144449275Y-74000950D01*
X143953570Y-74332170D01*
X143764000Y-74615881D01*
X143574430Y-74332170D01*
X143078724Y-74000950D01*
X142494000Y-73884641D01*
X141909275Y-74000950D01*
X141413570Y-74332170D01*
X141224000Y-74615881D01*
X141034430Y-74332170D01*
X140538724Y-74000950D01*
X139954000Y-73884641D01*
X139369275Y-74000950D01*
X138873570Y-74332170D01*
X138684000Y-74615881D01*
X138494430Y-74332170D01*
X137998724Y-74000950D01*
X137414000Y-73884641D01*
X136829275Y-74000950D01*
X136333570Y-74332170D01*
X136144000Y-74615881D01*
X135954430Y-74332170D01*
X135458724Y-74000950D01*
X134874000Y-73884641D01*
X134289275Y-74000950D01*
X133793570Y-74332170D01*
X133604000Y-74615881D01*
X133414430Y-74332170D01*
X132918724Y-74000950D01*
X132334000Y-73884641D01*
X131749275Y-74000950D01*
X131253570Y-74332170D01*
X131064000Y-74615881D01*
X130874430Y-74332170D01*
X130378724Y-74000950D01*
X129794000Y-73884641D01*
X129209275Y-74000950D01*
X128713570Y-74332170D01*
X128382350Y-74827876D01*
X128295400Y-75265003D01*
X111708000Y-75265003D01*
X111708000Y-70075000D01*
X198288000Y-70075000D01*
X198288000Y-71542693D01*
X198288000Y-71542693D01*
G37*
X198288000Y-71542693D02*
X198068625Y-71214375D01*
X197577418Y-70886161D01*
X197144256Y-70800000D01*
X196851744Y-70800000D01*
X196418582Y-70886161D01*
X195927375Y-71214375D01*
X195599161Y-71705582D01*
X195483908Y-72285000D01*
X195599161Y-72864418D01*
X195927375Y-73355625D01*
X196085071Y-73460994D01*
X195814670Y-73641670D01*
X195582195Y-73989595D01*
X195500560Y-74400000D01*
X195500560Y-74605000D01*
X189715774Y-74605000D01*
X189580481Y-74402519D01*
X189138891Y-74107458D01*
X188749485Y-74030000D01*
X188486515Y-74030000D01*
X188097109Y-74107458D01*
X187655519Y-74402519D01*
X187360458Y-74844109D01*
X187256846Y-75365000D01*
X187360458Y-75885891D01*
X187655519Y-76327481D01*
X188097109Y-76622542D01*
X188486515Y-76700000D01*
X188749485Y-76700000D01*
X189138891Y-76622542D01*
X189580481Y-76327481D01*
X189715774Y-76125000D01*
X195644882Y-76125000D01*
X195549843Y-76267235D01*
X195500560Y-76515000D01*
X195500560Y-77305000D01*
X173812802Y-77305000D01*
X173308000Y-76800199D01*
X173308000Y-76633847D01*
X173417570Y-76797830D01*
X173913276Y-77129050D01*
X174498000Y-77245359D01*
X175082725Y-77129050D01*
X175578430Y-76797830D01*
X175909650Y-76302124D01*
X175910017Y-76300275D01*
X180242331Y-76300275D01*
X180304169Y-76536042D01*
X180805122Y-76712419D01*
X181335440Y-76683664D01*
X181691831Y-76536042D01*
X181753669Y-76300275D01*
X180998000Y-75544605D01*
X180242331Y-76300275D01*
X175910017Y-76300275D01*
X175996600Y-75864997D01*
X175996600Y-75265002D01*
X175978126Y-75172122D01*
X179650581Y-75172122D01*
X179679336Y-75702440D01*
X179826958Y-76058831D01*
X180062725Y-76120669D01*
X180818395Y-75365000D01*
X181177605Y-75365000D01*
X181933275Y-76120669D01*
X182169042Y-76058831D01*
X182345419Y-75557878D01*
X182316664Y-75027560D01*
X182169042Y-74671169D01*
X181933275Y-74609331D01*
X181177605Y-75365000D01*
X180818395Y-75365000D01*
X180062725Y-74609331D01*
X179826958Y-74671169D01*
X179650581Y-75172122D01*
X175978126Y-75172122D01*
X175909650Y-74827875D01*
X175643615Y-74429725D01*
X180242331Y-74429725D01*
X180998000Y-75185395D01*
X181753669Y-74429725D01*
X181691831Y-74193958D01*
X181190878Y-74017581D01*
X180660560Y-74046336D01*
X180304169Y-74193958D01*
X180242331Y-74429725D01*
X175643615Y-74429725D01*
X175578430Y-74332170D01*
X175082724Y-74000950D01*
X174498000Y-73884641D01*
X173913275Y-74000950D01*
X173417570Y-74332170D01*
X173228000Y-74615881D01*
X173038430Y-74332170D01*
X172542724Y-74000950D01*
X171958000Y-73884641D01*
X171373275Y-74000950D01*
X170877570Y-74332170D01*
X170688000Y-74615881D01*
X170498430Y-74332170D01*
X170002724Y-74000950D01*
X169418000Y-73884641D01*
X168833275Y-74000950D01*
X168337570Y-74332170D01*
X168148000Y-74615881D01*
X167958430Y-74332170D01*
X167462724Y-74000950D01*
X166878000Y-73884641D01*
X166293275Y-74000950D01*
X165797570Y-74332170D01*
X165608000Y-74615881D01*
X165418430Y-74332170D01*
X164922724Y-74000950D01*
X164338000Y-73884641D01*
X163753275Y-74000950D01*
X163257570Y-74332170D01*
X163068000Y-74615881D01*
X162878430Y-74332170D01*
X162382724Y-74000950D01*
X161798000Y-73884641D01*
X161213275Y-74000950D01*
X160717570Y-74332170D01*
X160528000Y-74615881D01*
X160338430Y-74332170D01*
X159842724Y-74000950D01*
X159258000Y-73884641D01*
X158673275Y-74000950D01*
X158177570Y-74332170D01*
X157988000Y-74615881D01*
X157798430Y-74332170D01*
X157302724Y-74000950D01*
X156718000Y-73884641D01*
X156133275Y-74000950D01*
X155637570Y-74332170D01*
X155306350Y-74827876D01*
X155219400Y-75265003D01*
X155219400Y-75864998D01*
X155306350Y-76302125D01*
X155637570Y-76797830D01*
X156133276Y-77129050D01*
X156718000Y-77245359D01*
X157302725Y-77129050D01*
X157798430Y-76797830D01*
X157988000Y-76514119D01*
X158177570Y-76797830D01*
X158305133Y-76883065D01*
X155383199Y-79805000D01*
X149622848Y-79805000D01*
X149548000Y-79790112D01*
X149473152Y-79805000D01*
X149473148Y-79805000D01*
X149299605Y-79839520D01*
X149251462Y-79849096D01*
X149064418Y-79974076D01*
X149000071Y-80017071D01*
X148957671Y-80080527D01*
X140649666Y-88388533D01*
X140649666Y-87340866D01*
X140248511Y-86372392D01*
X139507274Y-85631155D01*
X138538800Y-85230000D01*
X137490532Y-85230000D01*
X136522058Y-85631155D01*
X135780821Y-86372392D01*
X135379666Y-87340866D01*
X135379666Y-88389134D01*
X135780821Y-89357608D01*
X136522058Y-90098845D01*
X137490532Y-90500000D01*
X138538199Y-90500000D01*
X137233199Y-91805000D01*
X121100054Y-91805000D01*
X121025207Y-91790112D01*
X120950360Y-91805000D01*
X120950356Y-91805000D01*
X120728671Y-91849096D01*
X120728669Y-91849097D01*
X120728670Y-91849097D01*
X120540734Y-91974671D01*
X120540732Y-91974673D01*
X120477279Y-92017071D01*
X120434881Y-92080525D01*
X119513527Y-93001879D01*
X119450072Y-93044279D01*
X119407672Y-93107735D01*
X119407671Y-93107736D01*
X119282097Y-93295671D01*
X119237790Y-93518418D01*
X119128493Y-93563690D01*
X118748000Y-93944183D01*
X118367507Y-93563690D01*
X117803330Y-93330000D01*
X117192670Y-93330000D01*
X116628493Y-93563690D01*
X116196690Y-93995493D01*
X115963000Y-94559670D01*
X115963000Y-95170330D01*
X116196690Y-95734507D01*
X116628493Y-96166310D01*
X117192670Y-96400000D01*
X117803330Y-96400000D01*
X118367507Y-96166310D01*
X118748000Y-95785817D01*
X119128493Y-96166310D01*
X119692670Y-96400000D01*
X120303330Y-96400000D01*
X120867507Y-96166310D01*
X121088658Y-95945159D01*
X121597446Y-95945159D01*
X121683852Y-96201643D01*
X122257336Y-96411458D01*
X122867460Y-96385839D01*
X123312148Y-96201643D01*
X123398554Y-95945159D01*
X122498000Y-95044605D01*
X121597446Y-95945159D01*
X121088658Y-95945159D01*
X121299310Y-95734507D01*
X121302539Y-95726710D01*
X121417841Y-95765554D01*
X122318395Y-94865000D01*
X122677605Y-94865000D01*
X123578159Y-95765554D01*
X123834643Y-95679148D01*
X124044458Y-95105664D01*
X124018839Y-94495540D01*
X123834643Y-94050852D01*
X123578159Y-93964446D01*
X122677605Y-94865000D01*
X122318395Y-94865000D01*
X121417841Y-93964446D01*
X121302539Y-94003290D01*
X121299310Y-93995493D01*
X120984413Y-93680596D01*
X121340011Y-93325000D01*
X122584865Y-93325000D01*
X122128540Y-93344161D01*
X121683852Y-93528357D01*
X121597446Y-93784841D01*
X122498000Y-94685395D01*
X123398554Y-93784841D01*
X123312148Y-93528357D01*
X122756316Y-93325000D01*
X137473153Y-93325000D01*
X137548000Y-93339888D01*
X137622847Y-93325000D01*
X137622852Y-93325000D01*
X137844537Y-93280904D01*
X138095929Y-93112929D01*
X138138331Y-93049470D01*
X141654667Y-89533134D01*
X141654666Y-93518331D01*
X141545159Y-93563690D01*
X141164666Y-93944183D01*
X140784173Y-93563690D01*
X140219996Y-93330000D01*
X139609336Y-93330000D01*
X139045159Y-93563690D01*
X138613356Y-93995493D01*
X138379666Y-94559670D01*
X138379666Y-95170330D01*
X138613356Y-95734507D01*
X139045159Y-96166310D01*
X139609336Y-96400000D01*
X140219996Y-96400000D01*
X140784173Y-96166310D01*
X141164666Y-95785817D01*
X141545159Y-96166310D01*
X142109336Y-96400000D01*
X142719996Y-96400000D01*
X143284173Y-96166310D01*
X143505324Y-95945159D01*
X144014112Y-95945159D01*
X144100518Y-96201643D01*
X144674002Y-96411458D01*
X145284126Y-96385839D01*
X145728814Y-96201643D01*
X145815220Y-95945159D01*
X144914666Y-95044605D01*
X144014112Y-95945159D01*
X143505324Y-95945159D01*
X143715976Y-95734507D01*
X143719205Y-95726710D01*
X143834507Y-95765554D01*
X144735061Y-94865000D01*
X145094271Y-94865000D01*
X145994825Y-95765554D01*
X146251309Y-95679148D01*
X146461124Y-95105664D01*
X146438198Y-94559670D01*
X160796332Y-94559670D01*
X160796332Y-95170330D01*
X161030022Y-95734507D01*
X161461825Y-96166310D01*
X162026002Y-96400000D01*
X162636662Y-96400000D01*
X163200839Y-96166310D01*
X163581332Y-95785817D01*
X163961825Y-96166310D01*
X164526002Y-96400000D01*
X165136662Y-96400000D01*
X165700839Y-96166310D01*
X165921990Y-95945159D01*
X166430778Y-95945159D01*
X166517184Y-96201643D01*
X167090668Y-96411458D01*
X167700792Y-96385839D01*
X168145480Y-96201643D01*
X168231886Y-95945159D01*
X167331332Y-95044605D01*
X166430778Y-95945159D01*
X165921990Y-95945159D01*
X166132642Y-95734507D01*
X166135871Y-95726710D01*
X166251173Y-95765554D01*
X167151727Y-94865000D01*
X167510937Y-94865000D01*
X168411491Y-95765554D01*
X168667975Y-95679148D01*
X168877790Y-95105664D01*
X168852171Y-94495540D01*
X168667975Y-94050852D01*
X168411491Y-93964446D01*
X167510937Y-94865000D01*
X167151727Y-94865000D01*
X166251173Y-93964446D01*
X166135871Y-94003290D01*
X166132642Y-93995493D01*
X165921990Y-93784841D01*
X166430778Y-93784841D01*
X167331332Y-94685395D01*
X168231886Y-93784841D01*
X168145480Y-93528357D01*
X167571996Y-93318542D01*
X166961872Y-93344161D01*
X166517184Y-93528357D01*
X166430778Y-93784841D01*
X165921990Y-93784841D01*
X165700839Y-93563690D01*
X165136662Y-93330000D01*
X164526002Y-93330000D01*
X163961825Y-93563690D01*
X163581332Y-93944183D01*
X163200839Y-93563690D01*
X162636662Y-93330000D01*
X162026002Y-93330000D01*
X161461825Y-93563690D01*
X161030022Y-93995493D01*
X160796332Y-94559670D01*
X146438198Y-94559670D01*
X146435505Y-94495540D01*
X146251309Y-94050852D01*
X145994825Y-93964446D01*
X145094271Y-94865000D01*
X144735061Y-94865000D01*
X143834507Y-93964446D01*
X143719205Y-94003290D01*
X143715976Y-93995493D01*
X143505324Y-93784841D01*
X144014112Y-93784841D01*
X144914666Y-94685395D01*
X145815220Y-93784841D01*
X145728814Y-93528357D01*
X145155330Y-93318542D01*
X144545206Y-93344161D01*
X144100518Y-93528357D01*
X144014112Y-93784841D01*
X143505324Y-93784841D01*
X143284173Y-93563690D01*
X143174666Y-93518331D01*
X143174666Y-88649545D01*
X144179666Y-87644545D01*
X144179666Y-88389134D01*
X144580821Y-89357608D01*
X145322058Y-90098845D01*
X146290532Y-90500000D01*
X147338800Y-90500000D01*
X148307274Y-90098845D01*
X149048511Y-89357608D01*
X149449666Y-88389134D01*
X149449666Y-87340866D01*
X157796332Y-87340866D01*
X157796332Y-88389134D01*
X158197487Y-89357608D01*
X158938724Y-90098845D01*
X159907198Y-90500000D01*
X160955466Y-90500000D01*
X161923940Y-90098845D01*
X162665177Y-89357608D01*
X163066332Y-88389134D01*
X163066332Y-87340866D01*
X166596332Y-87340866D01*
X166596332Y-88389134D01*
X166997487Y-89357608D01*
X167738724Y-90098845D01*
X168707198Y-90500000D01*
X169755466Y-90500000D01*
X170723940Y-90098845D01*
X171465177Y-89357608D01*
X171866332Y-88389134D01*
X171866332Y-87340866D01*
X180213000Y-87340866D01*
X180213000Y-88389134D01*
X180614155Y-89357608D01*
X181355392Y-90098845D01*
X182323866Y-90500000D01*
X183372134Y-90500000D01*
X184340608Y-90098845D01*
X185081845Y-89357608D01*
X185483000Y-88389134D01*
X185483000Y-87340866D01*
X189013000Y-87340866D01*
X189013000Y-88389134D01*
X189414155Y-89357608D01*
X190155392Y-90098845D01*
X191123866Y-90500000D01*
X192172134Y-90500000D01*
X193140608Y-90098845D01*
X193881845Y-89357608D01*
X194283000Y-88389134D01*
X194283000Y-87340866D01*
X193881845Y-86372392D01*
X193140608Y-85631155D01*
X192172134Y-85230000D01*
X191123866Y-85230000D01*
X190155392Y-85631155D01*
X189414155Y-86372392D01*
X189013000Y-87340866D01*
X185483000Y-87340866D01*
X185081845Y-86372392D01*
X184340608Y-85631155D01*
X183372134Y-85230000D01*
X182323866Y-85230000D01*
X181355392Y-85631155D01*
X180614155Y-86372392D01*
X180213000Y-87340866D01*
X171866332Y-87340866D01*
X171465177Y-86372392D01*
X170723940Y-85631155D01*
X169755466Y-85230000D01*
X168707198Y-85230000D01*
X167738724Y-85631155D01*
X166997487Y-86372392D01*
X166596332Y-87340866D01*
X163066332Y-87340866D01*
X162665177Y-86372392D01*
X161923940Y-85631155D01*
X160955466Y-85230000D01*
X159907198Y-85230000D01*
X158938724Y-85631155D01*
X158197487Y-86372392D01*
X157796332Y-87340866D01*
X149449666Y-87340866D01*
X149048511Y-86372392D01*
X148307274Y-85631155D01*
X147338800Y-85230000D01*
X146594212Y-85230000D01*
X149599212Y-82225000D01*
X156073153Y-82225000D01*
X156148000Y-82239888D01*
X156222847Y-82225000D01*
X156222852Y-82225000D01*
X156444537Y-82180904D01*
X156695929Y-82012929D01*
X156738331Y-81949470D01*
X160562802Y-78125000D01*
X163473153Y-78125000D01*
X163548000Y-78139888D01*
X163622847Y-78125000D01*
X163622852Y-78125000D01*
X163844537Y-78080904D01*
X164095929Y-77912929D01*
X164138331Y-77849470D01*
X164822473Y-77165329D01*
X164857288Y-77142066D01*
X164922725Y-77129050D01*
X165418430Y-76797830D01*
X165608000Y-76514119D01*
X165797570Y-76797830D01*
X166293276Y-77129050D01*
X166878000Y-77245359D01*
X167462725Y-77129050D01*
X167958430Y-76797830D01*
X168148000Y-76514119D01*
X168337570Y-76797830D01*
X168833276Y-77129050D01*
X169418000Y-77245359D01*
X170002725Y-77129050D01*
X170498430Y-76797830D01*
X170688000Y-76514119D01*
X170877570Y-76797830D01*
X171373276Y-77129050D01*
X171792494Y-77212438D01*
X171832097Y-77411537D01*
X171945013Y-77580527D01*
X172000072Y-77662929D01*
X172063528Y-77705329D01*
X172907671Y-78549473D01*
X172950071Y-78612929D01*
X173201463Y-78780904D01*
X173423148Y-78825000D01*
X173423153Y-78825000D01*
X173498000Y-78839888D01*
X173572847Y-78825000D01*
X180803102Y-78825000D01*
X180541783Y-78933242D01*
X180166242Y-79308783D01*
X179963000Y-79799452D01*
X179963000Y-80330548D01*
X180166242Y-80821217D01*
X180541783Y-81196758D01*
X181032452Y-81400000D01*
X181563548Y-81400000D01*
X182054217Y-81196758D01*
X182429758Y-80821217D01*
X182633000Y-80330548D01*
X182633000Y-79799452D01*
X182429758Y-79308783D01*
X182054217Y-78933242D01*
X181792898Y-78825000D01*
X188370856Y-78825000D01*
X187955519Y-79102519D01*
X187660458Y-79544109D01*
X187556846Y-80065000D01*
X187660458Y-80585891D01*
X187955519Y-81027481D01*
X188397109Y-81322542D01*
X188786515Y-81400000D01*
X189049485Y-81400000D01*
X189438891Y-81322542D01*
X189880481Y-81027481D01*
X190015774Y-80825000D01*
X193433199Y-80825000D01*
X194388000Y-81779802D01*
X194388001Y-83640148D01*
X194373112Y-83715000D01*
X194388001Y-83789852D01*
X194432097Y-84011537D01*
X194600072Y-84262929D01*
X194663527Y-84305328D01*
X194807670Y-84449472D01*
X194850071Y-84512929D01*
X195101463Y-84680904D01*
X195323148Y-84725000D01*
X195323152Y-84725000D01*
X195397999Y-84739888D01*
X195472846Y-84725000D01*
X195500560Y-84725000D01*
X195500560Y-85215000D01*
X195549843Y-85462765D01*
X195690191Y-85672809D01*
X195900235Y-85813157D01*
X196148000Y-85862440D01*
X196238001Y-85862440D01*
X196238000Y-90389851D01*
X196238001Y-90389856D01*
X196238000Y-112450198D01*
X189333199Y-119355000D01*
X188445440Y-119355000D01*
X188445440Y-119315000D01*
X188396157Y-119067235D01*
X188255809Y-118857191D01*
X188045765Y-118716843D01*
X187798000Y-118667560D01*
X186198000Y-118667560D01*
X185950235Y-118716843D01*
X185740191Y-118857191D01*
X185599843Y-119067235D01*
X185550560Y-119315000D01*
X185550560Y-120915000D01*
X185599843Y-121162765D01*
X185740191Y-121372809D01*
X185950235Y-121513157D01*
X186050503Y-121533101D01*
X185781466Y-121802138D01*
X185563000Y-122329561D01*
X185563000Y-122900439D01*
X185781466Y-123427862D01*
X186185138Y-123831534D01*
X186712561Y-124050000D01*
X187283439Y-124050000D01*
X187810862Y-123831534D01*
X188214534Y-123427862D01*
X188433000Y-122900439D01*
X188433000Y-122329561D01*
X188214534Y-121802138D01*
X187945497Y-121533101D01*
X188045765Y-121513157D01*
X188255809Y-121372809D01*
X188396157Y-121162765D01*
X188445440Y-120915000D01*
X188445440Y-120875000D01*
X189573153Y-120875000D01*
X189648000Y-120889888D01*
X189722847Y-120875000D01*
X189722852Y-120875000D01*
X189944537Y-120830904D01*
X190195929Y-120662929D01*
X190238331Y-120599470D01*
X197482473Y-113355329D01*
X197545929Y-113312929D01*
X197688557Y-113099472D01*
X197713904Y-113061538D01*
X197749909Y-112880527D01*
X197758000Y-112839852D01*
X197758000Y-112839848D01*
X197772888Y-112765000D01*
X197758000Y-112690152D01*
X197758000Y-85862440D01*
X197848000Y-85862440D01*
X198095765Y-85813157D01*
X198288000Y-85684708D01*
X198288001Y-125655000D01*
X111708000Y-125655000D01*
X111708000Y-123525003D01*
X137439400Y-123525003D01*
X137439400Y-124124998D01*
X137526350Y-124562125D01*
X137857570Y-125057830D01*
X138353276Y-125389050D01*
X138938000Y-125505359D01*
X139522725Y-125389050D01*
X140018430Y-125057830D01*
X140208000Y-124774119D01*
X140397570Y-125057830D01*
X140893276Y-125389050D01*
X141478000Y-125505359D01*
X142062725Y-125389050D01*
X142558430Y-125057830D01*
X142748000Y-124774119D01*
X142937570Y-125057830D01*
X143433276Y-125389050D01*
X144018000Y-125505359D01*
X144602725Y-125389050D01*
X145098430Y-125057830D01*
X145288000Y-124774119D01*
X145477570Y-125057830D01*
X145973276Y-125389050D01*
X146558000Y-125505359D01*
X147142725Y-125389050D01*
X147638430Y-125057830D01*
X147831909Y-124768267D01*
X148195964Y-125175732D01*
X148723209Y-125429709D01*
X148738974Y-125432358D01*
X148971000Y-125311217D01*
X148971000Y-123952000D01*
X148951000Y-123952000D01*
X148951000Y-123698000D01*
X148971000Y-123698000D01*
X148971000Y-122338783D01*
X149225000Y-122338783D01*
X149225000Y-123698000D01*
X149245000Y-123698000D01*
X149245000Y-123952000D01*
X149225000Y-123952000D01*
X149225000Y-125311217D01*
X149457026Y-125432358D01*
X149472791Y-125429709D01*
X150000036Y-125175732D01*
X150364090Y-124768268D01*
X150557570Y-125057830D01*
X151053276Y-125389050D01*
X151638000Y-125505359D01*
X152222725Y-125389050D01*
X152718430Y-125057830D01*
X152908000Y-124774119D01*
X153097570Y-125057830D01*
X153593276Y-125389050D01*
X154178000Y-125505359D01*
X154762725Y-125389050D01*
X155258430Y-125057830D01*
X155448000Y-124774119D01*
X155637570Y-125057830D01*
X156133276Y-125389050D01*
X156718000Y-125505359D01*
X157302725Y-125389050D01*
X157798430Y-125057830D01*
X158129650Y-124562124D01*
X158216600Y-124124997D01*
X158216600Y-123525002D01*
X158129650Y-123087875D01*
X157798430Y-122592170D01*
X157302724Y-122260950D01*
X156718000Y-122144641D01*
X156133275Y-122260950D01*
X155637570Y-122592170D01*
X155448000Y-122875881D01*
X155258430Y-122592170D01*
X154762724Y-122260950D01*
X154178000Y-122144641D01*
X153593275Y-122260950D01*
X153097570Y-122592170D01*
X152908000Y-122875881D01*
X152718430Y-122592170D01*
X152222724Y-122260950D01*
X151638000Y-122144641D01*
X151053275Y-122260950D01*
X150557570Y-122592170D01*
X150364091Y-122881733D01*
X150000036Y-122474268D01*
X149472791Y-122220291D01*
X149457026Y-122217642D01*
X149225000Y-122338783D01*
X148971000Y-122338783D01*
X148738974Y-122217642D01*
X148723209Y-122220291D01*
X148195964Y-122474268D01*
X147831910Y-122881732D01*
X147638430Y-122592170D01*
X147142724Y-122260950D01*
X146558000Y-122144641D01*
X145973275Y-122260950D01*
X145477570Y-122592170D01*
X145288000Y-122875881D01*
X145098430Y-122592170D01*
X144602724Y-122260950D01*
X144018000Y-122144641D01*
X143433275Y-122260950D01*
X142937570Y-122592170D01*
X142748000Y-122875881D01*
X142558430Y-122592170D01*
X142062724Y-122260950D01*
X141478000Y-122144641D01*
X140893275Y-122260950D01*
X140397570Y-122592170D01*
X140208000Y-122875881D01*
X140018430Y-122592170D01*
X139522724Y-122260950D01*
X138938000Y-122144641D01*
X138353275Y-122260950D01*
X137857570Y-122592170D01*
X137526350Y-123087876D01*
X137439400Y-123525003D01*
X111708000Y-123525003D01*
X111708000Y-109590866D01*
X112963000Y-109590866D01*
X112963000Y-110639134D01*
X113364155Y-111607608D01*
X114105392Y-112348845D01*
X115073866Y-112750000D01*
X116122134Y-112750000D01*
X117090608Y-112348845D01*
X117831845Y-111607608D01*
X118233000Y-110639134D01*
X118233000Y-109590866D01*
X117831845Y-108622392D01*
X117090608Y-107881155D01*
X116122134Y-107480000D01*
X115073866Y-107480000D01*
X114105392Y-107881155D01*
X113364155Y-108622392D01*
X112963000Y-109590866D01*
X111708000Y-109590866D01*
X111708000Y-104195159D01*
X116597446Y-104195159D01*
X116683852Y-104451643D01*
X117257336Y-104661458D01*
X117867460Y-104635839D01*
X118312148Y-104451643D01*
X118398554Y-104195159D01*
X117498000Y-103294605D01*
X116597446Y-104195159D01*
X111708000Y-104195159D01*
X111708000Y-102874336D01*
X115951542Y-102874336D01*
X115977161Y-103484460D01*
X116161357Y-103929148D01*
X116417841Y-104015554D01*
X117318395Y-103115000D01*
X117677605Y-103115000D01*
X118578159Y-104015554D01*
X118693461Y-103976710D01*
X118696690Y-103984507D01*
X119128493Y-104416310D01*
X119692670Y-104650000D01*
X120303330Y-104650000D01*
X120412839Y-104604640D01*
X121657670Y-105849472D01*
X121700071Y-105912929D01*
X121951463Y-106080904D01*
X122173148Y-106125000D01*
X122173152Y-106125000D01*
X122248000Y-106139888D01*
X122322848Y-106125000D01*
X123683199Y-106125000D01*
X125120269Y-107562070D01*
X124922134Y-107480000D01*
X123873866Y-107480000D01*
X122905392Y-107881155D01*
X122164155Y-108622392D01*
X121763000Y-109590866D01*
X121763000Y-110639134D01*
X122164155Y-111607608D01*
X122905392Y-112348845D01*
X123873866Y-112750000D01*
X124922134Y-112750000D01*
X125890608Y-112348845D01*
X126631845Y-111607608D01*
X127033000Y-110639134D01*
X127033000Y-109590866D01*
X126950930Y-109392731D01*
X138857670Y-121299472D01*
X138900071Y-121362929D01*
X139151463Y-121530904D01*
X139373148Y-121575000D01*
X139373152Y-121575000D01*
X139448000Y-121589888D01*
X139522848Y-121575000D01*
X160483199Y-121575000D01*
X161038001Y-122129803D01*
X161038001Y-122378065D01*
X160717570Y-122592170D01*
X160386350Y-123087876D01*
X160299400Y-123525003D01*
X160299400Y-124124998D01*
X160386350Y-124562125D01*
X160717570Y-125057830D01*
X161213276Y-125389050D01*
X161798000Y-125505359D01*
X162382725Y-125389050D01*
X162878430Y-125057830D01*
X163068000Y-124774119D01*
X163257570Y-125057830D01*
X163753276Y-125389050D01*
X164338000Y-125505359D01*
X164922725Y-125389050D01*
X165418430Y-125057830D01*
X165608000Y-124774119D01*
X165797570Y-125057830D01*
X166293276Y-125389050D01*
X166878000Y-125505359D01*
X167462725Y-125389050D01*
X167958430Y-125057830D01*
X168148000Y-124774119D01*
X168337570Y-125057830D01*
X168833276Y-125389050D01*
X169418000Y-125505359D01*
X170002725Y-125389050D01*
X170498430Y-125057830D01*
X170688000Y-124774119D01*
X170877570Y-125057830D01*
X171373276Y-125389050D01*
X171958000Y-125505359D01*
X172542725Y-125389050D01*
X173038430Y-125057830D01*
X173228000Y-124774119D01*
X173417570Y-125057830D01*
X173913276Y-125389050D01*
X174498000Y-125505359D01*
X175082725Y-125389050D01*
X175578430Y-125057830D01*
X175909650Y-124562124D01*
X175996600Y-124124997D01*
X175996600Y-123525002D01*
X175909650Y-123087875D01*
X175578430Y-122592170D01*
X175082724Y-122260950D01*
X174550348Y-122155054D01*
X180830402Y-115875000D01*
X182223153Y-115875000D01*
X182298000Y-115889888D01*
X182372847Y-115875000D01*
X182372852Y-115875000D01*
X182594537Y-115830904D01*
X182845929Y-115662929D01*
X182888331Y-115599470D01*
X187032462Y-111455340D01*
X187095918Y-111412940D01*
X187263893Y-111161548D01*
X187269865Y-111131526D01*
X188232476Y-110168917D01*
X188295929Y-110126519D01*
X188338327Y-110063066D01*
X188338329Y-110063064D01*
X188463903Y-109875128D01*
X188463904Y-109875127D01*
X188508000Y-109653442D01*
X188508000Y-109653438D01*
X188520446Y-109590866D01*
X188763000Y-109590866D01*
X188763000Y-110639134D01*
X189164155Y-111607608D01*
X189905392Y-112348845D01*
X190873866Y-112750000D01*
X191922134Y-112750000D01*
X192890608Y-112348845D01*
X193631845Y-111607608D01*
X194033000Y-110639134D01*
X194033000Y-109590866D01*
X193631845Y-108622392D01*
X192890608Y-107881155D01*
X191922134Y-107480000D01*
X190873866Y-107480000D01*
X189905392Y-107881155D01*
X189164155Y-108622392D01*
X188763000Y-109590866D01*
X188520446Y-109590866D01*
X188522888Y-109578591D01*
X188508000Y-109503744D01*
X188508000Y-106079801D01*
X188812802Y-105775000D01*
X189336155Y-105775000D01*
X189411002Y-105789888D01*
X189485849Y-105775000D01*
X189485854Y-105775000D01*
X189707539Y-105730904D01*
X189958931Y-105562929D01*
X190001333Y-105499470D01*
X191207474Y-104293330D01*
X191270930Y-104250930D01*
X191313925Y-104186583D01*
X191438905Y-103999539D01*
X191452906Y-103929148D01*
X191483001Y-103777853D01*
X191483001Y-103777849D01*
X191497889Y-103703001D01*
X191483001Y-103628153D01*
X191483001Y-102965530D01*
X191508000Y-102839852D01*
X191508000Y-102839847D01*
X191522888Y-102765000D01*
X191508000Y-102690153D01*
X191508000Y-98439848D01*
X191522888Y-98365000D01*
X191508000Y-98290152D01*
X191508000Y-98290148D01*
X191463904Y-98068463D01*
X191463904Y-98068462D01*
X191338329Y-97880527D01*
X191295929Y-97817071D01*
X191232473Y-97774671D01*
X189854675Y-96396873D01*
X190117460Y-96385839D01*
X190562148Y-96201643D01*
X190648554Y-95945159D01*
X189748000Y-95044605D01*
X189733858Y-95058748D01*
X189554253Y-94879143D01*
X189568395Y-94865000D01*
X189927605Y-94865000D01*
X190828159Y-95765554D01*
X191084643Y-95679148D01*
X191294458Y-95105664D01*
X191268839Y-94495540D01*
X191084643Y-94050852D01*
X190828159Y-93964446D01*
X189927605Y-94865000D01*
X189568395Y-94865000D01*
X188667841Y-93964446D01*
X188552539Y-94003290D01*
X188549310Y-93995493D01*
X188338658Y-93784841D01*
X188847446Y-93784841D01*
X189748000Y-94685395D01*
X190648554Y-93784841D01*
X190562148Y-93528357D01*
X189988664Y-93318542D01*
X189378540Y-93344161D01*
X188933852Y-93528357D01*
X188847446Y-93784841D01*
X188338658Y-93784841D01*
X188117507Y-93563690D01*
X187553330Y-93330000D01*
X186942670Y-93330000D01*
X186378493Y-93563690D01*
X185998000Y-93944183D01*
X185617507Y-93563690D01*
X185053330Y-93330000D01*
X184442670Y-93330000D01*
X183878493Y-93563690D01*
X183446690Y-93995493D01*
X183213000Y-94559670D01*
X183213000Y-95170330D01*
X183446690Y-95734507D01*
X183878493Y-96166310D01*
X184442670Y-96400000D01*
X185053330Y-96400000D01*
X185617507Y-96166310D01*
X185998000Y-95785817D01*
X186378493Y-96166310D01*
X186942670Y-96400000D01*
X187553330Y-96400000D01*
X187662838Y-96354640D01*
X187663526Y-96355328D01*
X187663529Y-96355330D01*
X189988001Y-98679803D01*
X189988000Y-101656493D01*
X189803330Y-101580000D01*
X189192670Y-101580000D01*
X188628493Y-101813690D01*
X188248000Y-102194183D01*
X187867507Y-101813690D01*
X187303330Y-101580000D01*
X186692670Y-101580000D01*
X186128493Y-101813690D01*
X185696690Y-102245493D01*
X185693461Y-102253290D01*
X185578159Y-102214446D01*
X184677605Y-103115000D01*
X185578159Y-104015554D01*
X185693461Y-103976710D01*
X185696690Y-103984507D01*
X186128493Y-104416310D01*
X186238000Y-104461669D01*
X186238001Y-109250197D01*
X185233000Y-110255198D01*
X185233000Y-109590866D01*
X184831845Y-108622392D01*
X184090608Y-107881155D01*
X183122134Y-107480000D01*
X182073866Y-107480000D01*
X181105392Y-107881155D01*
X180364155Y-108622392D01*
X179963000Y-109590866D01*
X179963000Y-110639134D01*
X180364155Y-111607608D01*
X181105392Y-112348845D01*
X182073866Y-112750000D01*
X182738199Y-112750000D01*
X181683199Y-113805000D01*
X180074295Y-113805000D01*
X179999448Y-113790112D01*
X179924601Y-113805000D01*
X179924597Y-113805000D01*
X179702912Y-113849096D01*
X179451520Y-114017071D01*
X179409120Y-114080527D01*
X172884648Y-120605000D01*
X171952847Y-120605000D01*
X171878000Y-120590112D01*
X171803153Y-120605000D01*
X171803148Y-120605000D01*
X171581463Y-120649096D01*
X171330071Y-120817071D01*
X171287671Y-120880527D01*
X170293532Y-121874667D01*
X170293526Y-121874671D01*
X169923088Y-122245109D01*
X169418000Y-122144641D01*
X168833275Y-122260950D01*
X168337570Y-122592170D01*
X168148000Y-122875881D01*
X167958430Y-122592170D01*
X167638000Y-122378066D01*
X167638000Y-113775134D01*
X167713903Y-113661537D01*
X167713904Y-113661536D01*
X167772888Y-113365000D01*
X167713904Y-113068463D01*
X167545929Y-112817071D01*
X167482473Y-112774671D01*
X167008000Y-112300199D01*
X167008000Y-111784787D01*
X167572058Y-112348845D01*
X168540532Y-112750000D01*
X169588800Y-112750000D01*
X170557274Y-112348845D01*
X171298511Y-111607608D01*
X171699666Y-110639134D01*
X171699666Y-109590866D01*
X171298511Y-108622392D01*
X170557274Y-107881155D01*
X169588800Y-107480000D01*
X168540532Y-107480000D01*
X167572058Y-107881155D01*
X167008000Y-108445213D01*
X167008000Y-108439846D01*
X167022888Y-108364999D01*
X167008000Y-108290152D01*
X167008000Y-108290148D01*
X166963904Y-108068463D01*
X166838749Y-107881155D01*
X166838329Y-107880526D01*
X166838327Y-107880524D01*
X166795929Y-107817071D01*
X166732476Y-107774673D01*
X165424666Y-106466865D01*
X165424666Y-104461669D01*
X165534173Y-104416310D01*
X165914666Y-104035817D01*
X166295159Y-104416310D01*
X166859336Y-104650000D01*
X167469996Y-104650000D01*
X168034173Y-104416310D01*
X168255324Y-104195159D01*
X183597446Y-104195159D01*
X183683852Y-104451643D01*
X184257336Y-104661458D01*
X184867460Y-104635839D01*
X185312148Y-104451643D01*
X185398554Y-104195159D01*
X184498000Y-103294605D01*
X183597446Y-104195159D01*
X168255324Y-104195159D01*
X168465976Y-103984507D01*
X168699666Y-103420330D01*
X168699666Y-102874336D01*
X182951542Y-102874336D01*
X182977161Y-103484460D01*
X183161357Y-103929148D01*
X183417841Y-104015554D01*
X184318395Y-103115000D01*
X183417841Y-102214446D01*
X183161357Y-102300852D01*
X182951542Y-102874336D01*
X168699666Y-102874336D01*
X168699666Y-102809670D01*
X168465976Y-102245493D01*
X168255324Y-102034841D01*
X183597446Y-102034841D01*
X184498000Y-102935395D01*
X185398554Y-102034841D01*
X185312148Y-101778357D01*
X184738664Y-101568542D01*
X184128540Y-101594161D01*
X183683852Y-101778357D01*
X183597446Y-102034841D01*
X168255324Y-102034841D01*
X168034173Y-101813690D01*
X167469996Y-101580000D01*
X166859336Y-101580000D01*
X166295159Y-101813690D01*
X165914666Y-102194183D01*
X165534173Y-101813690D01*
X164969996Y-101580000D01*
X164359336Y-101580000D01*
X163795159Y-101813690D01*
X163363356Y-102245493D01*
X163360127Y-102253290D01*
X163244825Y-102214446D01*
X162344271Y-103115000D01*
X163244825Y-104015554D01*
X163360127Y-103976710D01*
X163363356Y-103984507D01*
X163795159Y-104416310D01*
X163904666Y-104461669D01*
X163904667Y-106706814D01*
X163889778Y-106781666D01*
X163904667Y-106856518D01*
X163948763Y-107078203D01*
X164116738Y-107329595D01*
X164180194Y-107371995D01*
X165488000Y-108679803D01*
X165488001Y-112540148D01*
X165473112Y-112615000D01*
X165488001Y-112689852D01*
X165517838Y-112839851D01*
X165532097Y-112911537D01*
X165636952Y-113068463D01*
X165700072Y-113162929D01*
X165763528Y-113205329D01*
X166117989Y-113559790D01*
X166118000Y-113559847D01*
X166118001Y-122378065D01*
X165797570Y-122592170D01*
X165608000Y-122875881D01*
X165418430Y-122592170D01*
X165098000Y-122378066D01*
X165098000Y-122029847D01*
X165112888Y-121955000D01*
X165098000Y-121880153D01*
X165098000Y-121880148D01*
X165053904Y-121658463D01*
X164885929Y-121407071D01*
X164822473Y-121364671D01*
X153048668Y-109590866D01*
X157629666Y-109590866D01*
X157629666Y-110639134D01*
X158030821Y-111607608D01*
X158772058Y-112348845D01*
X159740532Y-112750000D01*
X160788800Y-112750000D01*
X161757274Y-112348845D01*
X162498511Y-111607608D01*
X162899666Y-110639134D01*
X162899666Y-109590866D01*
X162498511Y-108622392D01*
X161757274Y-107881155D01*
X160788800Y-107480000D01*
X159740532Y-107480000D01*
X158772058Y-107881155D01*
X158030821Y-108622392D01*
X157629666Y-109590866D01*
X153048668Y-109590866D01*
X150038331Y-106580530D01*
X149995929Y-106517071D01*
X149744537Y-106349096D01*
X149522852Y-106305000D01*
X149522847Y-106305000D01*
X149448000Y-106290112D01*
X149373153Y-106305000D01*
X144712802Y-106305000D01*
X143091333Y-104683532D01*
X143091333Y-104461669D01*
X143200840Y-104416310D01*
X143581333Y-104035817D01*
X143961826Y-104416310D01*
X144526003Y-104650000D01*
X145136663Y-104650000D01*
X145700840Y-104416310D01*
X145921991Y-104195159D01*
X161264112Y-104195159D01*
X161350518Y-104451643D01*
X161924002Y-104661458D01*
X162534126Y-104635839D01*
X162978814Y-104451643D01*
X163065220Y-104195159D01*
X162164666Y-103294605D01*
X161264112Y-104195159D01*
X145921991Y-104195159D01*
X146132643Y-103984507D01*
X146366333Y-103420330D01*
X146366333Y-102874336D01*
X160618208Y-102874336D01*
X160643827Y-103484460D01*
X160828023Y-103929148D01*
X161084507Y-104015554D01*
X161985061Y-103115000D01*
X161084507Y-102214446D01*
X160828023Y-102300852D01*
X160618208Y-102874336D01*
X146366333Y-102874336D01*
X146366333Y-102809670D01*
X146132643Y-102245493D01*
X145921991Y-102034841D01*
X161264112Y-102034841D01*
X162164666Y-102935395D01*
X163065220Y-102034841D01*
X162978814Y-101778357D01*
X162405330Y-101568542D01*
X161795206Y-101594161D01*
X161350518Y-101778357D01*
X161264112Y-102034841D01*
X145921991Y-102034841D01*
X145700840Y-101813690D01*
X145136663Y-101580000D01*
X144526003Y-101580000D01*
X143961826Y-101813690D01*
X143581333Y-102194183D01*
X143200840Y-101813690D01*
X142636663Y-101580000D01*
X142026003Y-101580000D01*
X141461826Y-101813690D01*
X141030023Y-102245493D01*
X141026794Y-102253290D01*
X140911492Y-102214446D01*
X140010938Y-103115000D01*
X140911492Y-104015554D01*
X141026794Y-103976710D01*
X141030023Y-103984507D01*
X141461826Y-104416310D01*
X141571334Y-104461670D01*
X141571334Y-104923481D01*
X141556445Y-104998333D01*
X141571334Y-105073185D01*
X141615430Y-105294870D01*
X141783405Y-105546262D01*
X141846861Y-105588662D01*
X143807670Y-107549472D01*
X143850071Y-107612929D01*
X144101463Y-107780904D01*
X144323148Y-107825000D01*
X144323152Y-107825000D01*
X144398000Y-107839888D01*
X144472848Y-107825000D01*
X145374295Y-107825000D01*
X145238725Y-107881155D01*
X144497488Y-108622392D01*
X144096333Y-109590866D01*
X144096333Y-110639134D01*
X144497488Y-111607608D01*
X145238725Y-112348845D01*
X146207199Y-112750000D01*
X147255467Y-112750000D01*
X148223941Y-112348845D01*
X148965178Y-111607608D01*
X149366333Y-110639134D01*
X149366333Y-109590866D01*
X148965178Y-108622392D01*
X148223941Y-107881155D01*
X148088371Y-107825000D01*
X149133199Y-107825000D01*
X163578000Y-122269802D01*
X163578000Y-122378065D01*
X163257570Y-122592170D01*
X163068000Y-122875881D01*
X162878430Y-122592170D01*
X162558000Y-122378066D01*
X162558000Y-121889848D01*
X162572888Y-121815000D01*
X162558000Y-121740152D01*
X162558000Y-121740148D01*
X162513904Y-121518463D01*
X162345929Y-121267071D01*
X162282473Y-121224671D01*
X161388331Y-120330530D01*
X161345929Y-120267071D01*
X161094537Y-120099096D01*
X160872852Y-120055000D01*
X160872847Y-120055000D01*
X160798000Y-120040112D01*
X160723153Y-120055000D01*
X139762802Y-120055000D01*
X129298668Y-109590866D01*
X135296333Y-109590866D01*
X135296333Y-110639134D01*
X135697488Y-111607608D01*
X136438725Y-112348845D01*
X137407199Y-112750000D01*
X138455467Y-112750000D01*
X139423941Y-112348845D01*
X140165178Y-111607608D01*
X140566333Y-110639134D01*
X140566333Y-109590866D01*
X140165178Y-108622392D01*
X139423941Y-107881155D01*
X138455467Y-107480000D01*
X137407199Y-107480000D01*
X136438725Y-107881155D01*
X135697488Y-108622392D01*
X135296333Y-109590866D01*
X129298668Y-109590866D01*
X124588331Y-104880530D01*
X124545929Y-104817071D01*
X124294537Y-104649096D01*
X124072852Y-104605000D01*
X124072847Y-104605000D01*
X123998000Y-104590112D01*
X123923153Y-104605000D01*
X122911970Y-104605000D01*
X123367507Y-104416310D01*
X123588658Y-104195159D01*
X138930779Y-104195159D01*
X139017185Y-104451643D01*
X139590669Y-104661458D01*
X140200793Y-104635839D01*
X140645481Y-104451643D01*
X140731887Y-104195159D01*
X139831333Y-103294605D01*
X138930779Y-104195159D01*
X123588658Y-104195159D01*
X123799310Y-103984507D01*
X124033000Y-103420330D01*
X124033000Y-102874336D01*
X138284875Y-102874336D01*
X138310494Y-103484460D01*
X138494690Y-103929148D01*
X138751174Y-104015554D01*
X139651728Y-103115000D01*
X138751174Y-102214446D01*
X138494690Y-102300852D01*
X138284875Y-102874336D01*
X124033000Y-102874336D01*
X124033000Y-102809670D01*
X123799310Y-102245493D01*
X123588658Y-102034841D01*
X138930779Y-102034841D01*
X139831333Y-102935395D01*
X140731887Y-102034841D01*
X140645481Y-101778357D01*
X140071997Y-101568542D01*
X139461873Y-101594161D01*
X139017185Y-101778357D01*
X138930779Y-102034841D01*
X123588658Y-102034841D01*
X123367507Y-101813690D01*
X122803330Y-101580000D01*
X122192670Y-101580000D01*
X121628493Y-101813690D01*
X121248000Y-102194183D01*
X120867507Y-101813690D01*
X120303330Y-101580000D01*
X119692670Y-101580000D01*
X119128493Y-101813690D01*
X118696690Y-102245493D01*
X118693461Y-102253290D01*
X118578159Y-102214446D01*
X117677605Y-103115000D01*
X117318395Y-103115000D01*
X116417841Y-102214446D01*
X116161357Y-102300852D01*
X115951542Y-102874336D01*
X111708000Y-102874336D01*
X111708000Y-102034841D01*
X116597446Y-102034841D01*
X117498000Y-102935395D01*
X118398554Y-102034841D01*
X118312148Y-101778357D01*
X117738664Y-101568542D01*
X117128540Y-101594161D01*
X116683852Y-101778357D01*
X116597446Y-102034841D01*
X111708000Y-102034841D01*
X111708000Y-87340866D01*
X112963000Y-87340866D01*
X112963000Y-88389134D01*
X113364155Y-89357608D01*
X114105392Y-90098845D01*
X115073866Y-90500000D01*
X116122134Y-90500000D01*
X117090608Y-90098845D01*
X117831845Y-89357608D01*
X118233000Y-88389134D01*
X118233000Y-87340866D01*
X121763000Y-87340866D01*
X121763000Y-88389134D01*
X122164155Y-89357608D01*
X122905392Y-90098845D01*
X123873866Y-90500000D01*
X124922134Y-90500000D01*
X125890608Y-90098845D01*
X126631845Y-89357608D01*
X127033000Y-88389134D01*
X127033000Y-87340866D01*
X126631845Y-86372392D01*
X125890608Y-85631155D01*
X124922134Y-85230000D01*
X123873866Y-85230000D01*
X122905392Y-85631155D01*
X122164155Y-86372392D01*
X121763000Y-87340866D01*
X118233000Y-87340866D01*
X117831845Y-86372392D01*
X117090608Y-85631155D01*
X116122134Y-85230000D01*
X115073866Y-85230000D01*
X114105392Y-85631155D01*
X113364155Y-86372392D01*
X112963000Y-87340866D01*
X111708000Y-87340866D01*
X111708000Y-75265003D01*
X128295400Y-75265003D01*
X128295400Y-75864998D01*
X128382350Y-76302125D01*
X128713570Y-76797830D01*
X129209276Y-77129050D01*
X129794000Y-77245359D01*
X130378725Y-77129050D01*
X130874430Y-76797830D01*
X131064000Y-76514119D01*
X131253570Y-76797830D01*
X131749276Y-77129050D01*
X132334000Y-77245359D01*
X132918725Y-77129050D01*
X133414430Y-76797830D01*
X133604000Y-76514119D01*
X133793570Y-76797830D01*
X134289276Y-77129050D01*
X134874000Y-77245359D01*
X135458725Y-77129050D01*
X135954430Y-76797830D01*
X136144000Y-76514119D01*
X136333570Y-76797830D01*
X136829276Y-77129050D01*
X137414000Y-77245359D01*
X137998725Y-77129050D01*
X138494430Y-76797830D01*
X138684000Y-76514119D01*
X138873570Y-76797830D01*
X139369276Y-77129050D01*
X139954000Y-77245359D01*
X140538725Y-77129050D01*
X141034430Y-76797830D01*
X141224000Y-76514119D01*
X141413570Y-76797830D01*
X141909276Y-77129050D01*
X142494000Y-77245359D01*
X143078725Y-77129050D01*
X143574430Y-76797830D01*
X143764000Y-76514119D01*
X143953570Y-76797830D01*
X144449276Y-77129050D01*
X145034000Y-77245359D01*
X145618725Y-77129050D01*
X146114430Y-76797830D01*
X146304000Y-76514119D01*
X146493570Y-76797830D01*
X146989276Y-77129050D01*
X147574000Y-77245359D01*
X148158725Y-77129050D01*
X148654430Y-76797830D01*
X148844000Y-76514119D01*
X149033570Y-76797830D01*
X149529276Y-77129050D01*
X150114000Y-77245359D01*
X150698725Y-77129050D01*
X151194430Y-76797830D01*
X151384000Y-76514119D01*
X151573570Y-76797830D01*
X152069276Y-77129050D01*
X152654000Y-77245359D01*
X153238725Y-77129050D01*
X153734430Y-76797830D01*
X154065650Y-76302124D01*
X154152600Y-75864997D01*
X154152600Y-75265002D01*
X154065650Y-74827875D01*
X153734430Y-74332170D01*
X153238724Y-74000950D01*
X152654000Y-73884641D01*
X152069275Y-74000950D01*
X151573570Y-74332170D01*
X151384000Y-74615881D01*
X151194430Y-74332170D01*
X150698724Y-74000950D01*
X150114000Y-73884641D01*
X149529275Y-74000950D01*
X149033570Y-74332170D01*
X148844000Y-74615881D01*
X148654430Y-74332170D01*
X148158724Y-74000950D01*
X147574000Y-73884641D01*
X146989275Y-74000950D01*
X146493570Y-74332170D01*
X146304000Y-74615881D01*
X146114430Y-74332170D01*
X145618724Y-74000950D01*
X145034000Y-73884641D01*
X144449275Y-74000950D01*
X143953570Y-74332170D01*
X143764000Y-74615881D01*
X143574430Y-74332170D01*
X143078724Y-74000950D01*
X142494000Y-73884641D01*
X141909275Y-74000950D01*
X141413570Y-74332170D01*
X141224000Y-74615881D01*
X141034430Y-74332170D01*
X140538724Y-74000950D01*
X139954000Y-73884641D01*
X139369275Y-74000950D01*
X138873570Y-74332170D01*
X138684000Y-74615881D01*
X138494430Y-74332170D01*
X137998724Y-74000950D01*
X137414000Y-73884641D01*
X136829275Y-74000950D01*
X136333570Y-74332170D01*
X136144000Y-74615881D01*
X135954430Y-74332170D01*
X135458724Y-74000950D01*
X134874000Y-73884641D01*
X134289275Y-74000950D01*
X133793570Y-74332170D01*
X133604000Y-74615881D01*
X133414430Y-74332170D01*
X132918724Y-74000950D01*
X132334000Y-73884641D01*
X131749275Y-74000950D01*
X131253570Y-74332170D01*
X131064000Y-74615881D01*
X130874430Y-74332170D01*
X130378724Y-74000950D01*
X129794000Y-73884641D01*
X129209275Y-74000950D01*
X128713570Y-74332170D01*
X128382350Y-74827876D01*
X128295400Y-75265003D01*
X111708000Y-75265003D01*
X111708000Y-70075000D01*
X198288000Y-70075000D01*
X198288000Y-71542693D01*
G04 #@! TD*
M02*
