G04 #@! TF.GenerationSoftware,KiCad,Pcbnew,(5.0.1-3-g963ef8bb5)*
G04 #@! TF.CreationDate,2019-07-05T13:12:53+05:30*
G04 #@! TF.ProjectId,8knobs-v2.1-orderworkshop,386B6E6F62732D76322E312D6F726465,rev?*
G04 #@! TF.SameCoordinates,Original*
G04 #@! TF.FileFunction,Soldermask,Bot*
G04 #@! TF.FilePolarity,Negative*
%FSLAX46Y46*%
G04 Gerber Fmt 4.6, Leading zero omitted, Abs format (unit mm)*
G04 Created by KiCad (PCBNEW (5.0.1-3-g963ef8bb5)) date 2019 July 05, Friday 13:12:53*
%MOMM*%
%LPD*%
G01*
G04 APERTURE LIST*
%ADD10C,0.100000*%
G04 APERTURE END LIST*
D10*
G36*
X139107294Y-122821496D02*
X139195822Y-122848351D01*
X139270087Y-122870879D01*
X139420112Y-122951068D01*
X139551612Y-123058988D01*
X139659532Y-123190488D01*
X139739721Y-123340512D01*
X139752571Y-123382873D01*
X139789104Y-123503305D01*
X139801600Y-123630180D01*
X139801600Y-124019819D01*
X139789104Y-124146694D01*
X139752571Y-124267128D01*
X139739721Y-124309488D01*
X139659532Y-124459512D01*
X139551612Y-124591012D01*
X139420112Y-124698932D01*
X139270088Y-124779121D01*
X139227727Y-124791971D01*
X139107295Y-124828504D01*
X138994432Y-124839620D01*
X138938001Y-124845178D01*
X138938000Y-124845178D01*
X138768706Y-124828504D01*
X138648274Y-124791971D01*
X138605913Y-124779121D01*
X138455889Y-124698932D01*
X138365946Y-124625117D01*
X138324388Y-124591012D01*
X138216469Y-124459512D01*
X138216467Y-124459509D01*
X138136279Y-124309488D01*
X138123429Y-124267127D01*
X138086896Y-124146695D01*
X138074400Y-124019820D01*
X138074400Y-123630181D01*
X138086896Y-123503306D01*
X138136278Y-123340517D01*
X138136279Y-123340513D01*
X138216468Y-123190488D01*
X138324388Y-123058988D01*
X138455888Y-122951068D01*
X138605912Y-122870879D01*
X138680177Y-122848351D01*
X138768705Y-122821496D01*
X138881568Y-122810380D01*
X138937999Y-122804822D01*
X138938000Y-122804822D01*
X139107294Y-122821496D01*
X139107294Y-122821496D01*
G37*
G36*
X141647294Y-122821496D02*
X141735822Y-122848351D01*
X141810087Y-122870879D01*
X141960112Y-122951068D01*
X142091612Y-123058988D01*
X142199532Y-123190488D01*
X142279721Y-123340512D01*
X142292571Y-123382873D01*
X142329104Y-123503305D01*
X142341600Y-123630180D01*
X142341600Y-124019819D01*
X142329104Y-124146694D01*
X142292571Y-124267128D01*
X142279721Y-124309488D01*
X142199532Y-124459512D01*
X142091612Y-124591012D01*
X141960112Y-124698932D01*
X141810088Y-124779121D01*
X141767727Y-124791971D01*
X141647295Y-124828504D01*
X141534432Y-124839620D01*
X141478001Y-124845178D01*
X141478000Y-124845178D01*
X141308706Y-124828504D01*
X141188274Y-124791971D01*
X141145913Y-124779121D01*
X140995889Y-124698932D01*
X140905946Y-124625117D01*
X140864388Y-124591012D01*
X140756469Y-124459512D01*
X140756467Y-124459509D01*
X140676279Y-124309488D01*
X140663429Y-124267127D01*
X140626896Y-124146695D01*
X140614400Y-124019820D01*
X140614400Y-123630181D01*
X140626896Y-123503306D01*
X140676278Y-123340517D01*
X140676279Y-123340513D01*
X140756468Y-123190488D01*
X140864388Y-123058988D01*
X140995888Y-122951068D01*
X141145912Y-122870879D01*
X141220177Y-122848351D01*
X141308705Y-122821496D01*
X141421568Y-122810380D01*
X141477999Y-122804822D01*
X141478000Y-122804822D01*
X141647294Y-122821496D01*
X141647294Y-122821496D01*
G37*
G36*
X144187294Y-122821496D02*
X144275822Y-122848351D01*
X144350087Y-122870879D01*
X144500112Y-122951068D01*
X144631612Y-123058988D01*
X144739532Y-123190488D01*
X144819721Y-123340512D01*
X144832571Y-123382873D01*
X144869104Y-123503305D01*
X144881600Y-123630180D01*
X144881600Y-124019819D01*
X144869104Y-124146694D01*
X144832571Y-124267128D01*
X144819721Y-124309488D01*
X144739532Y-124459512D01*
X144631612Y-124591012D01*
X144500112Y-124698932D01*
X144350088Y-124779121D01*
X144307727Y-124791971D01*
X144187295Y-124828504D01*
X144074432Y-124839620D01*
X144018001Y-124845178D01*
X144018000Y-124845178D01*
X143848706Y-124828504D01*
X143728274Y-124791971D01*
X143685913Y-124779121D01*
X143535889Y-124698932D01*
X143445946Y-124625117D01*
X143404388Y-124591012D01*
X143296469Y-124459512D01*
X143296467Y-124459509D01*
X143216279Y-124309488D01*
X143203429Y-124267127D01*
X143166896Y-124146695D01*
X143154400Y-124019820D01*
X143154400Y-123630181D01*
X143166896Y-123503306D01*
X143216278Y-123340517D01*
X143216279Y-123340513D01*
X143296468Y-123190488D01*
X143404388Y-123058988D01*
X143535888Y-122951068D01*
X143685912Y-122870879D01*
X143760177Y-122848351D01*
X143848705Y-122821496D01*
X143961568Y-122810380D01*
X144017999Y-122804822D01*
X144018000Y-122804822D01*
X144187294Y-122821496D01*
X144187294Y-122821496D01*
G37*
G36*
X146727294Y-122821496D02*
X146815822Y-122848351D01*
X146890087Y-122870879D01*
X147040112Y-122951068D01*
X147171612Y-123058988D01*
X147279532Y-123190488D01*
X147359721Y-123340512D01*
X147372571Y-123382873D01*
X147409104Y-123503305D01*
X147421600Y-123630180D01*
X147421600Y-124019819D01*
X147409104Y-124146694D01*
X147372571Y-124267128D01*
X147359721Y-124309488D01*
X147279532Y-124459512D01*
X147171612Y-124591012D01*
X147040112Y-124698932D01*
X146890088Y-124779121D01*
X146847727Y-124791971D01*
X146727295Y-124828504D01*
X146614432Y-124839620D01*
X146558001Y-124845178D01*
X146558000Y-124845178D01*
X146388706Y-124828504D01*
X146268274Y-124791971D01*
X146225913Y-124779121D01*
X146075889Y-124698932D01*
X145985946Y-124625117D01*
X145944388Y-124591012D01*
X145836469Y-124459512D01*
X145836467Y-124459509D01*
X145756279Y-124309488D01*
X145743429Y-124267127D01*
X145706896Y-124146695D01*
X145694400Y-124019820D01*
X145694400Y-123630181D01*
X145706896Y-123503306D01*
X145756278Y-123340517D01*
X145756279Y-123340513D01*
X145836468Y-123190488D01*
X145944388Y-123058988D01*
X146075888Y-122951068D01*
X146225912Y-122870879D01*
X146300177Y-122848351D01*
X146388705Y-122821496D01*
X146501568Y-122810380D01*
X146557999Y-122804822D01*
X146558000Y-122804822D01*
X146727294Y-122821496D01*
X146727294Y-122821496D01*
G37*
G36*
X149267294Y-122821496D02*
X149355822Y-122848351D01*
X149430087Y-122870879D01*
X149580112Y-122951068D01*
X149711612Y-123058988D01*
X149819532Y-123190488D01*
X149899721Y-123340512D01*
X149912571Y-123382873D01*
X149949104Y-123503305D01*
X149961600Y-123630180D01*
X149961600Y-124019819D01*
X149949104Y-124146694D01*
X149912571Y-124267128D01*
X149899721Y-124309488D01*
X149819532Y-124459512D01*
X149711612Y-124591012D01*
X149580112Y-124698932D01*
X149430088Y-124779121D01*
X149387727Y-124791971D01*
X149267295Y-124828504D01*
X149154432Y-124839620D01*
X149098001Y-124845178D01*
X149098000Y-124845178D01*
X148928706Y-124828504D01*
X148808274Y-124791971D01*
X148765913Y-124779121D01*
X148615889Y-124698932D01*
X148525946Y-124625117D01*
X148484388Y-124591012D01*
X148376469Y-124459512D01*
X148376467Y-124459509D01*
X148296279Y-124309488D01*
X148283429Y-124267127D01*
X148246896Y-124146695D01*
X148234400Y-124019820D01*
X148234400Y-123630181D01*
X148246896Y-123503306D01*
X148296278Y-123340517D01*
X148296279Y-123340513D01*
X148376468Y-123190488D01*
X148484388Y-123058988D01*
X148615888Y-122951068D01*
X148765912Y-122870879D01*
X148840177Y-122848351D01*
X148928705Y-122821496D01*
X149041568Y-122810380D01*
X149097999Y-122804822D01*
X149098000Y-122804822D01*
X149267294Y-122821496D01*
X149267294Y-122821496D01*
G37*
G36*
X151807294Y-122821496D02*
X151895822Y-122848351D01*
X151970087Y-122870879D01*
X152120112Y-122951068D01*
X152251612Y-123058988D01*
X152359532Y-123190488D01*
X152439721Y-123340512D01*
X152452571Y-123382873D01*
X152489104Y-123503305D01*
X152501600Y-123630180D01*
X152501600Y-124019819D01*
X152489104Y-124146694D01*
X152452571Y-124267128D01*
X152439721Y-124309488D01*
X152359532Y-124459512D01*
X152251612Y-124591012D01*
X152120112Y-124698932D01*
X151970088Y-124779121D01*
X151927727Y-124791971D01*
X151807295Y-124828504D01*
X151694432Y-124839620D01*
X151638001Y-124845178D01*
X151638000Y-124845178D01*
X151468706Y-124828504D01*
X151348274Y-124791971D01*
X151305913Y-124779121D01*
X151155889Y-124698932D01*
X151065946Y-124625117D01*
X151024388Y-124591012D01*
X150916469Y-124459512D01*
X150916467Y-124459509D01*
X150836279Y-124309488D01*
X150823429Y-124267127D01*
X150786896Y-124146695D01*
X150774400Y-124019820D01*
X150774400Y-123630181D01*
X150786896Y-123503306D01*
X150836278Y-123340517D01*
X150836279Y-123340513D01*
X150916468Y-123190488D01*
X151024388Y-123058988D01*
X151155888Y-122951068D01*
X151305912Y-122870879D01*
X151380177Y-122848351D01*
X151468705Y-122821496D01*
X151581568Y-122810380D01*
X151637999Y-122804822D01*
X151638000Y-122804822D01*
X151807294Y-122821496D01*
X151807294Y-122821496D01*
G37*
G36*
X154347294Y-122821496D02*
X154435822Y-122848351D01*
X154510087Y-122870879D01*
X154660112Y-122951068D01*
X154791612Y-123058988D01*
X154899532Y-123190488D01*
X154979721Y-123340512D01*
X154992571Y-123382873D01*
X155029104Y-123503305D01*
X155041600Y-123630180D01*
X155041600Y-124019819D01*
X155029104Y-124146694D01*
X154992571Y-124267128D01*
X154979721Y-124309488D01*
X154899532Y-124459512D01*
X154791612Y-124591012D01*
X154660112Y-124698932D01*
X154510088Y-124779121D01*
X154467727Y-124791971D01*
X154347295Y-124828504D01*
X154234432Y-124839620D01*
X154178001Y-124845178D01*
X154178000Y-124845178D01*
X154008706Y-124828504D01*
X153888274Y-124791971D01*
X153845913Y-124779121D01*
X153695889Y-124698932D01*
X153605946Y-124625117D01*
X153564388Y-124591012D01*
X153456469Y-124459512D01*
X153456467Y-124459509D01*
X153376279Y-124309488D01*
X153363429Y-124267127D01*
X153326896Y-124146695D01*
X153314400Y-124019820D01*
X153314400Y-123630181D01*
X153326896Y-123503306D01*
X153376278Y-123340517D01*
X153376279Y-123340513D01*
X153456468Y-123190488D01*
X153564388Y-123058988D01*
X153695888Y-122951068D01*
X153845912Y-122870879D01*
X153920177Y-122848351D01*
X154008705Y-122821496D01*
X154121568Y-122810380D01*
X154177999Y-122804822D01*
X154178000Y-122804822D01*
X154347294Y-122821496D01*
X154347294Y-122821496D01*
G37*
G36*
X156887294Y-122821496D02*
X156975822Y-122848351D01*
X157050087Y-122870879D01*
X157200112Y-122951068D01*
X157331612Y-123058988D01*
X157439532Y-123190488D01*
X157519721Y-123340512D01*
X157532571Y-123382873D01*
X157569104Y-123503305D01*
X157581600Y-123630180D01*
X157581600Y-124019819D01*
X157569104Y-124146694D01*
X157532571Y-124267128D01*
X157519721Y-124309488D01*
X157439532Y-124459512D01*
X157331612Y-124591012D01*
X157200112Y-124698932D01*
X157050088Y-124779121D01*
X157007727Y-124791971D01*
X156887295Y-124828504D01*
X156774432Y-124839620D01*
X156718001Y-124845178D01*
X156718000Y-124845178D01*
X156548706Y-124828504D01*
X156428274Y-124791971D01*
X156385913Y-124779121D01*
X156235889Y-124698932D01*
X156145946Y-124625117D01*
X156104388Y-124591012D01*
X155996469Y-124459512D01*
X155996467Y-124459509D01*
X155916279Y-124309488D01*
X155903429Y-124267127D01*
X155866896Y-124146695D01*
X155854400Y-124019820D01*
X155854400Y-123630181D01*
X155866896Y-123503306D01*
X155916278Y-123340517D01*
X155916279Y-123340513D01*
X155996468Y-123190488D01*
X156104388Y-123058988D01*
X156235888Y-122951068D01*
X156385912Y-122870879D01*
X156460177Y-122848351D01*
X156548705Y-122821496D01*
X156661568Y-122810380D01*
X156717999Y-122804822D01*
X156718000Y-122804822D01*
X156887294Y-122821496D01*
X156887294Y-122821496D01*
G37*
G36*
X161967294Y-122821496D02*
X162055822Y-122848351D01*
X162130087Y-122870879D01*
X162280112Y-122951068D01*
X162411612Y-123058988D01*
X162519532Y-123190488D01*
X162599721Y-123340512D01*
X162612571Y-123382873D01*
X162649104Y-123503305D01*
X162661600Y-123630180D01*
X162661600Y-124019819D01*
X162649104Y-124146694D01*
X162612571Y-124267128D01*
X162599721Y-124309488D01*
X162519532Y-124459512D01*
X162411612Y-124591012D01*
X162280112Y-124698932D01*
X162130088Y-124779121D01*
X162087727Y-124791971D01*
X161967295Y-124828504D01*
X161854432Y-124839620D01*
X161798001Y-124845178D01*
X161798000Y-124845178D01*
X161628706Y-124828504D01*
X161508274Y-124791971D01*
X161465913Y-124779121D01*
X161315889Y-124698932D01*
X161225946Y-124625117D01*
X161184388Y-124591012D01*
X161076469Y-124459512D01*
X161076467Y-124459509D01*
X160996279Y-124309488D01*
X160983429Y-124267127D01*
X160946896Y-124146695D01*
X160934400Y-124019820D01*
X160934400Y-123630181D01*
X160946896Y-123503306D01*
X160996278Y-123340517D01*
X160996279Y-123340513D01*
X161076468Y-123190488D01*
X161184388Y-123058988D01*
X161315888Y-122951068D01*
X161465912Y-122870879D01*
X161540177Y-122848351D01*
X161628705Y-122821496D01*
X161741568Y-122810380D01*
X161797999Y-122804822D01*
X161798000Y-122804822D01*
X161967294Y-122821496D01*
X161967294Y-122821496D01*
G37*
G36*
X164507294Y-122821496D02*
X164595822Y-122848351D01*
X164670087Y-122870879D01*
X164820112Y-122951068D01*
X164951612Y-123058988D01*
X165059532Y-123190488D01*
X165139721Y-123340512D01*
X165152571Y-123382873D01*
X165189104Y-123503305D01*
X165201600Y-123630180D01*
X165201600Y-124019819D01*
X165189104Y-124146694D01*
X165152571Y-124267128D01*
X165139721Y-124309488D01*
X165059532Y-124459512D01*
X164951612Y-124591012D01*
X164820112Y-124698932D01*
X164670088Y-124779121D01*
X164627727Y-124791971D01*
X164507295Y-124828504D01*
X164394432Y-124839620D01*
X164338001Y-124845178D01*
X164338000Y-124845178D01*
X164168706Y-124828504D01*
X164048274Y-124791971D01*
X164005913Y-124779121D01*
X163855889Y-124698932D01*
X163765946Y-124625117D01*
X163724388Y-124591012D01*
X163616469Y-124459512D01*
X163616467Y-124459509D01*
X163536279Y-124309488D01*
X163523429Y-124267127D01*
X163486896Y-124146695D01*
X163474400Y-124019820D01*
X163474400Y-123630181D01*
X163486896Y-123503306D01*
X163536278Y-123340517D01*
X163536279Y-123340513D01*
X163616468Y-123190488D01*
X163724388Y-123058988D01*
X163855888Y-122951068D01*
X164005912Y-122870879D01*
X164080177Y-122848351D01*
X164168705Y-122821496D01*
X164281568Y-122810380D01*
X164337999Y-122804822D01*
X164338000Y-122804822D01*
X164507294Y-122821496D01*
X164507294Y-122821496D01*
G37*
G36*
X167047294Y-122821496D02*
X167135822Y-122848351D01*
X167210087Y-122870879D01*
X167360112Y-122951068D01*
X167491612Y-123058988D01*
X167599532Y-123190488D01*
X167679721Y-123340512D01*
X167692571Y-123382873D01*
X167729104Y-123503305D01*
X167741600Y-123630180D01*
X167741600Y-124019819D01*
X167729104Y-124146694D01*
X167692571Y-124267128D01*
X167679721Y-124309488D01*
X167599532Y-124459512D01*
X167491612Y-124591012D01*
X167360112Y-124698932D01*
X167210088Y-124779121D01*
X167167727Y-124791971D01*
X167047295Y-124828504D01*
X166934432Y-124839620D01*
X166878001Y-124845178D01*
X166878000Y-124845178D01*
X166708706Y-124828504D01*
X166588274Y-124791971D01*
X166545913Y-124779121D01*
X166395889Y-124698932D01*
X166305946Y-124625117D01*
X166264388Y-124591012D01*
X166156469Y-124459512D01*
X166156467Y-124459509D01*
X166076279Y-124309488D01*
X166063429Y-124267127D01*
X166026896Y-124146695D01*
X166014400Y-124019820D01*
X166014400Y-123630181D01*
X166026896Y-123503306D01*
X166076278Y-123340517D01*
X166076279Y-123340513D01*
X166156468Y-123190488D01*
X166264388Y-123058988D01*
X166395888Y-122951068D01*
X166545912Y-122870879D01*
X166620177Y-122848351D01*
X166708705Y-122821496D01*
X166821568Y-122810380D01*
X166877999Y-122804822D01*
X166878000Y-122804822D01*
X167047294Y-122821496D01*
X167047294Y-122821496D01*
G37*
G36*
X169587294Y-122821496D02*
X169675822Y-122848351D01*
X169750087Y-122870879D01*
X169900112Y-122951068D01*
X170031612Y-123058988D01*
X170139532Y-123190488D01*
X170219721Y-123340512D01*
X170232571Y-123382873D01*
X170269104Y-123503305D01*
X170281600Y-123630180D01*
X170281600Y-124019819D01*
X170269104Y-124146694D01*
X170232571Y-124267128D01*
X170219721Y-124309488D01*
X170139532Y-124459512D01*
X170031612Y-124591012D01*
X169900112Y-124698932D01*
X169750088Y-124779121D01*
X169707727Y-124791971D01*
X169587295Y-124828504D01*
X169474432Y-124839620D01*
X169418001Y-124845178D01*
X169418000Y-124845178D01*
X169248706Y-124828504D01*
X169128274Y-124791971D01*
X169085913Y-124779121D01*
X168935889Y-124698932D01*
X168845946Y-124625117D01*
X168804388Y-124591012D01*
X168696469Y-124459512D01*
X168696467Y-124459509D01*
X168616279Y-124309488D01*
X168603429Y-124267127D01*
X168566896Y-124146695D01*
X168554400Y-124019820D01*
X168554400Y-123630181D01*
X168566896Y-123503306D01*
X168616278Y-123340517D01*
X168616279Y-123340513D01*
X168696468Y-123190488D01*
X168804388Y-123058988D01*
X168935888Y-122951068D01*
X169085912Y-122870879D01*
X169160177Y-122848351D01*
X169248705Y-122821496D01*
X169361568Y-122810380D01*
X169417999Y-122804822D01*
X169418000Y-122804822D01*
X169587294Y-122821496D01*
X169587294Y-122821496D01*
G37*
G36*
X172127294Y-122821496D02*
X172215822Y-122848351D01*
X172290087Y-122870879D01*
X172440112Y-122951068D01*
X172571612Y-123058988D01*
X172679532Y-123190488D01*
X172759721Y-123340512D01*
X172772571Y-123382873D01*
X172809104Y-123503305D01*
X172821600Y-123630180D01*
X172821600Y-124019819D01*
X172809104Y-124146694D01*
X172772571Y-124267128D01*
X172759721Y-124309488D01*
X172679532Y-124459512D01*
X172571612Y-124591012D01*
X172440112Y-124698932D01*
X172290088Y-124779121D01*
X172247727Y-124791971D01*
X172127295Y-124828504D01*
X172014432Y-124839620D01*
X171958001Y-124845178D01*
X171958000Y-124845178D01*
X171788706Y-124828504D01*
X171668274Y-124791971D01*
X171625913Y-124779121D01*
X171475889Y-124698932D01*
X171385946Y-124625117D01*
X171344388Y-124591012D01*
X171236469Y-124459512D01*
X171236467Y-124459509D01*
X171156279Y-124309488D01*
X171143429Y-124267127D01*
X171106896Y-124146695D01*
X171094400Y-124019820D01*
X171094400Y-123630181D01*
X171106896Y-123503306D01*
X171156278Y-123340517D01*
X171156279Y-123340513D01*
X171236468Y-123190488D01*
X171344388Y-123058988D01*
X171475888Y-122951068D01*
X171625912Y-122870879D01*
X171700177Y-122848351D01*
X171788705Y-122821496D01*
X171901568Y-122810380D01*
X171957999Y-122804822D01*
X171958000Y-122804822D01*
X172127294Y-122821496D01*
X172127294Y-122821496D01*
G37*
G36*
X174667294Y-122821496D02*
X174755822Y-122848351D01*
X174830087Y-122870879D01*
X174980112Y-122951068D01*
X175111612Y-123058988D01*
X175219532Y-123190488D01*
X175299721Y-123340512D01*
X175312571Y-123382873D01*
X175349104Y-123503305D01*
X175361600Y-123630180D01*
X175361600Y-124019819D01*
X175349104Y-124146694D01*
X175312571Y-124267128D01*
X175299721Y-124309488D01*
X175219532Y-124459512D01*
X175111612Y-124591012D01*
X174980112Y-124698932D01*
X174830088Y-124779121D01*
X174787727Y-124791971D01*
X174667295Y-124828504D01*
X174554432Y-124839620D01*
X174498001Y-124845178D01*
X174498000Y-124845178D01*
X174328706Y-124828504D01*
X174208274Y-124791971D01*
X174165913Y-124779121D01*
X174015889Y-124698932D01*
X173925946Y-124625117D01*
X173884388Y-124591012D01*
X173776469Y-124459512D01*
X173776467Y-124459509D01*
X173696279Y-124309488D01*
X173683429Y-124267127D01*
X173646896Y-124146695D01*
X173634400Y-124019820D01*
X173634400Y-123630181D01*
X173646896Y-123503306D01*
X173696278Y-123340517D01*
X173696279Y-123340513D01*
X173776468Y-123190488D01*
X173884388Y-123058988D01*
X174015888Y-122951068D01*
X174165912Y-122870879D01*
X174240177Y-122848351D01*
X174328705Y-122821496D01*
X174441568Y-122810380D01*
X174497999Y-122804822D01*
X174498000Y-122804822D01*
X174667294Y-122821496D01*
X174667294Y-122821496D01*
G37*
G36*
X187231352Y-121845743D02*
X187376941Y-121906048D01*
X187507973Y-121993601D01*
X187619399Y-122105027D01*
X187706952Y-122236059D01*
X187767257Y-122381648D01*
X187798000Y-122536205D01*
X187798000Y-122693795D01*
X187767257Y-122848352D01*
X187706952Y-122993941D01*
X187619399Y-123124973D01*
X187507973Y-123236399D01*
X187376941Y-123323952D01*
X187231352Y-123384257D01*
X187076795Y-123415000D01*
X186919205Y-123415000D01*
X186764648Y-123384257D01*
X186619059Y-123323952D01*
X186488027Y-123236399D01*
X186376601Y-123124973D01*
X186289048Y-122993941D01*
X186228743Y-122848352D01*
X186198000Y-122693795D01*
X186198000Y-122536205D01*
X186228743Y-122381648D01*
X186289048Y-122236059D01*
X186376601Y-122105027D01*
X186488027Y-121993601D01*
X186619059Y-121906048D01*
X186764648Y-121845743D01*
X186919205Y-121815000D01*
X187076795Y-121815000D01*
X187231352Y-121845743D01*
X187231352Y-121845743D01*
G37*
G36*
X187798000Y-120915000D02*
X186198000Y-120915000D01*
X186198000Y-119315000D01*
X187798000Y-119315000D01*
X187798000Y-120915000D01*
X187798000Y-120915000D01*
G37*
G36*
X138514711Y-108191859D02*
X138878687Y-108342622D01*
X139206262Y-108561501D01*
X139484832Y-108840071D01*
X139703711Y-109167646D01*
X139854474Y-109531622D01*
X139931333Y-109918016D01*
X139931333Y-110311984D01*
X139854474Y-110698378D01*
X139703711Y-111062354D01*
X139484832Y-111389929D01*
X139206262Y-111668499D01*
X138878687Y-111887378D01*
X138514711Y-112038141D01*
X138128317Y-112115000D01*
X137734349Y-112115000D01*
X137347955Y-112038141D01*
X136983979Y-111887378D01*
X136656404Y-111668499D01*
X136377834Y-111389929D01*
X136158955Y-111062354D01*
X136008192Y-110698378D01*
X135931333Y-110311984D01*
X135931333Y-109918016D01*
X136008192Y-109531622D01*
X136158955Y-109167646D01*
X136377834Y-108840071D01*
X136656404Y-108561501D01*
X136983979Y-108342622D01*
X137347955Y-108191859D01*
X137734349Y-108115000D01*
X138128317Y-108115000D01*
X138514711Y-108191859D01*
X138514711Y-108191859D01*
G37*
G36*
X191981378Y-108191859D02*
X192345354Y-108342622D01*
X192672929Y-108561501D01*
X192951499Y-108840071D01*
X193170378Y-109167646D01*
X193321141Y-109531622D01*
X193398000Y-109918016D01*
X193398000Y-110311984D01*
X193321141Y-110698378D01*
X193170378Y-111062354D01*
X192951499Y-111389929D01*
X192672929Y-111668499D01*
X192345354Y-111887378D01*
X191981378Y-112038141D01*
X191594984Y-112115000D01*
X191201016Y-112115000D01*
X190814622Y-112038141D01*
X190450646Y-111887378D01*
X190123071Y-111668499D01*
X189844501Y-111389929D01*
X189625622Y-111062354D01*
X189474859Y-110698378D01*
X189398000Y-110311984D01*
X189398000Y-109918016D01*
X189474859Y-109531622D01*
X189625622Y-109167646D01*
X189844501Y-108840071D01*
X190123071Y-108561501D01*
X190450646Y-108342622D01*
X190814622Y-108191859D01*
X191201016Y-108115000D01*
X191594984Y-108115000D01*
X191981378Y-108191859D01*
X191981378Y-108191859D01*
G37*
G36*
X183181378Y-108191859D02*
X183545354Y-108342622D01*
X183872929Y-108561501D01*
X184151499Y-108840071D01*
X184370378Y-109167646D01*
X184521141Y-109531622D01*
X184598000Y-109918016D01*
X184598000Y-110311984D01*
X184521141Y-110698378D01*
X184370378Y-111062354D01*
X184151499Y-111389929D01*
X183872929Y-111668499D01*
X183545354Y-111887378D01*
X183181378Y-112038141D01*
X182794984Y-112115000D01*
X182401016Y-112115000D01*
X182014622Y-112038141D01*
X181650646Y-111887378D01*
X181323071Y-111668499D01*
X181044501Y-111389929D01*
X180825622Y-111062354D01*
X180674859Y-110698378D01*
X180598000Y-110311984D01*
X180598000Y-109918016D01*
X180674859Y-109531622D01*
X180825622Y-109167646D01*
X181044501Y-108840071D01*
X181323071Y-108561501D01*
X181650646Y-108342622D01*
X182014622Y-108191859D01*
X182401016Y-108115000D01*
X182794984Y-108115000D01*
X183181378Y-108191859D01*
X183181378Y-108191859D01*
G37*
G36*
X160848044Y-108191859D02*
X161212020Y-108342622D01*
X161539595Y-108561501D01*
X161818165Y-108840071D01*
X162037044Y-109167646D01*
X162187807Y-109531622D01*
X162264666Y-109918016D01*
X162264666Y-110311984D01*
X162187807Y-110698378D01*
X162037044Y-111062354D01*
X161818165Y-111389929D01*
X161539595Y-111668499D01*
X161212020Y-111887378D01*
X160848044Y-112038141D01*
X160461650Y-112115000D01*
X160067682Y-112115000D01*
X159681288Y-112038141D01*
X159317312Y-111887378D01*
X158989737Y-111668499D01*
X158711167Y-111389929D01*
X158492288Y-111062354D01*
X158341525Y-110698378D01*
X158264666Y-110311984D01*
X158264666Y-109918016D01*
X158341525Y-109531622D01*
X158492288Y-109167646D01*
X158711167Y-108840071D01*
X158989737Y-108561501D01*
X159317312Y-108342622D01*
X159681288Y-108191859D01*
X160067682Y-108115000D01*
X160461650Y-108115000D01*
X160848044Y-108191859D01*
X160848044Y-108191859D01*
G37*
G36*
X169648044Y-108191859D02*
X170012020Y-108342622D01*
X170339595Y-108561501D01*
X170618165Y-108840071D01*
X170837044Y-109167646D01*
X170987807Y-109531622D01*
X171064666Y-109918016D01*
X171064666Y-110311984D01*
X170987807Y-110698378D01*
X170837044Y-111062354D01*
X170618165Y-111389929D01*
X170339595Y-111668499D01*
X170012020Y-111887378D01*
X169648044Y-112038141D01*
X169261650Y-112115000D01*
X168867682Y-112115000D01*
X168481288Y-112038141D01*
X168117312Y-111887378D01*
X167789737Y-111668499D01*
X167511167Y-111389929D01*
X167292288Y-111062354D01*
X167141525Y-110698378D01*
X167064666Y-110311984D01*
X167064666Y-109918016D01*
X167141525Y-109531622D01*
X167292288Y-109167646D01*
X167511167Y-108840071D01*
X167789737Y-108561501D01*
X168117312Y-108342622D01*
X168481288Y-108191859D01*
X168867682Y-108115000D01*
X169261650Y-108115000D01*
X169648044Y-108191859D01*
X169648044Y-108191859D01*
G37*
G36*
X116181378Y-108191859D02*
X116545354Y-108342622D01*
X116872929Y-108561501D01*
X117151499Y-108840071D01*
X117370378Y-109167646D01*
X117521141Y-109531622D01*
X117598000Y-109918016D01*
X117598000Y-110311984D01*
X117521141Y-110698378D01*
X117370378Y-111062354D01*
X117151499Y-111389929D01*
X116872929Y-111668499D01*
X116545354Y-111887378D01*
X116181378Y-112038141D01*
X115794984Y-112115000D01*
X115401016Y-112115000D01*
X115014622Y-112038141D01*
X114650646Y-111887378D01*
X114323071Y-111668499D01*
X114044501Y-111389929D01*
X113825622Y-111062354D01*
X113674859Y-110698378D01*
X113598000Y-110311984D01*
X113598000Y-109918016D01*
X113674859Y-109531622D01*
X113825622Y-109167646D01*
X114044501Y-108840071D01*
X114323071Y-108561501D01*
X114650646Y-108342622D01*
X115014622Y-108191859D01*
X115401016Y-108115000D01*
X115794984Y-108115000D01*
X116181378Y-108191859D01*
X116181378Y-108191859D01*
G37*
G36*
X124981378Y-108191859D02*
X125345354Y-108342622D01*
X125672929Y-108561501D01*
X125951499Y-108840071D01*
X126170378Y-109167646D01*
X126321141Y-109531622D01*
X126398000Y-109918016D01*
X126398000Y-110311984D01*
X126321141Y-110698378D01*
X126170378Y-111062354D01*
X125951499Y-111389929D01*
X125672929Y-111668499D01*
X125345354Y-111887378D01*
X124981378Y-112038141D01*
X124594984Y-112115000D01*
X124201016Y-112115000D01*
X123814622Y-112038141D01*
X123450646Y-111887378D01*
X123123071Y-111668499D01*
X122844501Y-111389929D01*
X122625622Y-111062354D01*
X122474859Y-110698378D01*
X122398000Y-110311984D01*
X122398000Y-109918016D01*
X122474859Y-109531622D01*
X122625622Y-109167646D01*
X122844501Y-108840071D01*
X123123071Y-108561501D01*
X123450646Y-108342622D01*
X123814622Y-108191859D01*
X124201016Y-108115000D01*
X124594984Y-108115000D01*
X124981378Y-108191859D01*
X124981378Y-108191859D01*
G37*
G36*
X147314711Y-108191859D02*
X147678687Y-108342622D01*
X148006262Y-108561501D01*
X148284832Y-108840071D01*
X148503711Y-109167646D01*
X148654474Y-109531622D01*
X148731333Y-109918016D01*
X148731333Y-110311984D01*
X148654474Y-110698378D01*
X148503711Y-111062354D01*
X148284832Y-111389929D01*
X148006262Y-111668499D01*
X147678687Y-111887378D01*
X147314711Y-112038141D01*
X146928317Y-112115000D01*
X146534349Y-112115000D01*
X146147955Y-112038141D01*
X145783979Y-111887378D01*
X145456404Y-111668499D01*
X145177834Y-111389929D01*
X144958955Y-111062354D01*
X144808192Y-110698378D01*
X144731333Y-110311984D01*
X144731333Y-109918016D01*
X144808192Y-109531622D01*
X144958955Y-109167646D01*
X145177834Y-108840071D01*
X145456404Y-108561501D01*
X145783979Y-108342622D01*
X146147955Y-108191859D01*
X146534349Y-108115000D01*
X146928317Y-108115000D01*
X147314711Y-108191859D01*
X147314711Y-108191859D01*
G37*
G36*
X162427187Y-102249586D02*
X162590975Y-102317429D01*
X162738386Y-102415926D01*
X162863740Y-102541280D01*
X162962237Y-102688691D01*
X163030080Y-102852479D01*
X163064666Y-103026356D01*
X163064666Y-103203644D01*
X163030080Y-103377521D01*
X162962237Y-103541309D01*
X162863740Y-103688720D01*
X162738386Y-103814074D01*
X162590975Y-103912571D01*
X162427187Y-103980414D01*
X162253310Y-104015000D01*
X162076022Y-104015000D01*
X161902145Y-103980414D01*
X161738357Y-103912571D01*
X161590946Y-103814074D01*
X161465592Y-103688720D01*
X161367095Y-103541309D01*
X161299252Y-103377521D01*
X161264666Y-103203644D01*
X161264666Y-103026356D01*
X161299252Y-102852479D01*
X161367095Y-102688691D01*
X161465592Y-102541280D01*
X161590946Y-102415926D01*
X161738357Y-102317429D01*
X161902145Y-102249586D01*
X162076022Y-102215000D01*
X162253310Y-102215000D01*
X162427187Y-102249586D01*
X162427187Y-102249586D01*
G37*
G36*
X120260521Y-102249586D02*
X120424309Y-102317429D01*
X120571720Y-102415926D01*
X120697074Y-102541280D01*
X120795571Y-102688691D01*
X120863414Y-102852479D01*
X120898000Y-103026356D01*
X120898000Y-103203644D01*
X120863414Y-103377521D01*
X120795571Y-103541309D01*
X120697074Y-103688720D01*
X120571720Y-103814074D01*
X120424309Y-103912571D01*
X120260521Y-103980414D01*
X120086644Y-104015000D01*
X119909356Y-104015000D01*
X119735479Y-103980414D01*
X119571691Y-103912571D01*
X119424280Y-103814074D01*
X119298926Y-103688720D01*
X119200429Y-103541309D01*
X119132586Y-103377521D01*
X119098000Y-103203644D01*
X119098000Y-103026356D01*
X119132586Y-102852479D01*
X119200429Y-102688691D01*
X119298926Y-102541280D01*
X119424280Y-102415926D01*
X119571691Y-102317429D01*
X119735479Y-102249586D01*
X119909356Y-102215000D01*
X120086644Y-102215000D01*
X120260521Y-102249586D01*
X120260521Y-102249586D01*
G37*
G36*
X189760521Y-102249586D02*
X189924309Y-102317429D01*
X190071720Y-102415926D01*
X190197074Y-102541280D01*
X190295571Y-102688691D01*
X190363414Y-102852479D01*
X190398000Y-103026356D01*
X190398000Y-103203644D01*
X190363414Y-103377521D01*
X190295571Y-103541309D01*
X190197074Y-103688720D01*
X190071720Y-103814074D01*
X189924309Y-103912571D01*
X189760521Y-103980414D01*
X189586644Y-104015000D01*
X189409356Y-104015000D01*
X189235479Y-103980414D01*
X189071691Y-103912571D01*
X188924280Y-103814074D01*
X188798926Y-103688720D01*
X188700429Y-103541309D01*
X188632586Y-103377521D01*
X188598000Y-103203644D01*
X188598000Y-103026356D01*
X188632586Y-102852479D01*
X188700429Y-102688691D01*
X188798926Y-102541280D01*
X188924280Y-102415926D01*
X189071691Y-102317429D01*
X189235479Y-102249586D01*
X189409356Y-102215000D01*
X189586644Y-102215000D01*
X189760521Y-102249586D01*
X189760521Y-102249586D01*
G37*
G36*
X187260521Y-102249586D02*
X187424309Y-102317429D01*
X187571720Y-102415926D01*
X187697074Y-102541280D01*
X187795571Y-102688691D01*
X187863414Y-102852479D01*
X187898000Y-103026356D01*
X187898000Y-103203644D01*
X187863414Y-103377521D01*
X187795571Y-103541309D01*
X187697074Y-103688720D01*
X187571720Y-103814074D01*
X187424309Y-103912571D01*
X187260521Y-103980414D01*
X187086644Y-104015000D01*
X186909356Y-104015000D01*
X186735479Y-103980414D01*
X186571691Y-103912571D01*
X186424280Y-103814074D01*
X186298926Y-103688720D01*
X186200429Y-103541309D01*
X186132586Y-103377521D01*
X186098000Y-103203644D01*
X186098000Y-103026356D01*
X186132586Y-102852479D01*
X186200429Y-102688691D01*
X186298926Y-102541280D01*
X186424280Y-102415926D01*
X186571691Y-102317429D01*
X186735479Y-102249586D01*
X186909356Y-102215000D01*
X187086644Y-102215000D01*
X187260521Y-102249586D01*
X187260521Y-102249586D01*
G37*
G36*
X184760521Y-102249586D02*
X184924309Y-102317429D01*
X185071720Y-102415926D01*
X185197074Y-102541280D01*
X185295571Y-102688691D01*
X185363414Y-102852479D01*
X185398000Y-103026356D01*
X185398000Y-103203644D01*
X185363414Y-103377521D01*
X185295571Y-103541309D01*
X185197074Y-103688720D01*
X185071720Y-103814074D01*
X184924309Y-103912571D01*
X184760521Y-103980414D01*
X184586644Y-104015000D01*
X184409356Y-104015000D01*
X184235479Y-103980414D01*
X184071691Y-103912571D01*
X183924280Y-103814074D01*
X183798926Y-103688720D01*
X183700429Y-103541309D01*
X183632586Y-103377521D01*
X183598000Y-103203644D01*
X183598000Y-103026356D01*
X183632586Y-102852479D01*
X183700429Y-102688691D01*
X183798926Y-102541280D01*
X183924280Y-102415926D01*
X184071691Y-102317429D01*
X184235479Y-102249586D01*
X184409356Y-102215000D01*
X184586644Y-102215000D01*
X184760521Y-102249586D01*
X184760521Y-102249586D01*
G37*
G36*
X122760521Y-102249586D02*
X122924309Y-102317429D01*
X123071720Y-102415926D01*
X123197074Y-102541280D01*
X123295571Y-102688691D01*
X123363414Y-102852479D01*
X123398000Y-103026356D01*
X123398000Y-103203644D01*
X123363414Y-103377521D01*
X123295571Y-103541309D01*
X123197074Y-103688720D01*
X123071720Y-103814074D01*
X122924309Y-103912571D01*
X122760521Y-103980414D01*
X122586644Y-104015000D01*
X122409356Y-104015000D01*
X122235479Y-103980414D01*
X122071691Y-103912571D01*
X121924280Y-103814074D01*
X121798926Y-103688720D01*
X121700429Y-103541309D01*
X121632586Y-103377521D01*
X121598000Y-103203644D01*
X121598000Y-103026356D01*
X121632586Y-102852479D01*
X121700429Y-102688691D01*
X121798926Y-102541280D01*
X121924280Y-102415926D01*
X122071691Y-102317429D01*
X122235479Y-102249586D01*
X122409356Y-102215000D01*
X122586644Y-102215000D01*
X122760521Y-102249586D01*
X122760521Y-102249586D01*
G37*
G36*
X145093854Y-102249586D02*
X145257642Y-102317429D01*
X145405053Y-102415926D01*
X145530407Y-102541280D01*
X145628904Y-102688691D01*
X145696747Y-102852479D01*
X145731333Y-103026356D01*
X145731333Y-103203644D01*
X145696747Y-103377521D01*
X145628904Y-103541309D01*
X145530407Y-103688720D01*
X145405053Y-103814074D01*
X145257642Y-103912571D01*
X145093854Y-103980414D01*
X144919977Y-104015000D01*
X144742689Y-104015000D01*
X144568812Y-103980414D01*
X144405024Y-103912571D01*
X144257613Y-103814074D01*
X144132259Y-103688720D01*
X144033762Y-103541309D01*
X143965919Y-103377521D01*
X143931333Y-103203644D01*
X143931333Y-103026356D01*
X143965919Y-102852479D01*
X144033762Y-102688691D01*
X144132259Y-102541280D01*
X144257613Y-102415926D01*
X144405024Y-102317429D01*
X144568812Y-102249586D01*
X144742689Y-102215000D01*
X144919977Y-102215000D01*
X145093854Y-102249586D01*
X145093854Y-102249586D01*
G37*
G36*
X142593854Y-102249586D02*
X142757642Y-102317429D01*
X142905053Y-102415926D01*
X143030407Y-102541280D01*
X143128904Y-102688691D01*
X143196747Y-102852479D01*
X143231333Y-103026356D01*
X143231333Y-103203644D01*
X143196747Y-103377521D01*
X143128904Y-103541309D01*
X143030407Y-103688720D01*
X142905053Y-103814074D01*
X142757642Y-103912571D01*
X142593854Y-103980414D01*
X142419977Y-104015000D01*
X142242689Y-104015000D01*
X142068812Y-103980414D01*
X141905024Y-103912571D01*
X141757613Y-103814074D01*
X141632259Y-103688720D01*
X141533762Y-103541309D01*
X141465919Y-103377521D01*
X141431333Y-103203644D01*
X141431333Y-103026356D01*
X141465919Y-102852479D01*
X141533762Y-102688691D01*
X141632259Y-102541280D01*
X141757613Y-102415926D01*
X141905024Y-102317429D01*
X142068812Y-102249586D01*
X142242689Y-102215000D01*
X142419977Y-102215000D01*
X142593854Y-102249586D01*
X142593854Y-102249586D01*
G37*
G36*
X167427187Y-102249586D02*
X167590975Y-102317429D01*
X167738386Y-102415926D01*
X167863740Y-102541280D01*
X167962237Y-102688691D01*
X168030080Y-102852479D01*
X168064666Y-103026356D01*
X168064666Y-103203644D01*
X168030080Y-103377521D01*
X167962237Y-103541309D01*
X167863740Y-103688720D01*
X167738386Y-103814074D01*
X167590975Y-103912571D01*
X167427187Y-103980414D01*
X167253310Y-104015000D01*
X167076022Y-104015000D01*
X166902145Y-103980414D01*
X166738357Y-103912571D01*
X166590946Y-103814074D01*
X166465592Y-103688720D01*
X166367095Y-103541309D01*
X166299252Y-103377521D01*
X166264666Y-103203644D01*
X166264666Y-103026356D01*
X166299252Y-102852479D01*
X166367095Y-102688691D01*
X166465592Y-102541280D01*
X166590946Y-102415926D01*
X166738357Y-102317429D01*
X166902145Y-102249586D01*
X167076022Y-102215000D01*
X167253310Y-102215000D01*
X167427187Y-102249586D01*
X167427187Y-102249586D01*
G37*
G36*
X117760521Y-102249586D02*
X117924309Y-102317429D01*
X118071720Y-102415926D01*
X118197074Y-102541280D01*
X118295571Y-102688691D01*
X118363414Y-102852479D01*
X118398000Y-103026356D01*
X118398000Y-103203644D01*
X118363414Y-103377521D01*
X118295571Y-103541309D01*
X118197074Y-103688720D01*
X118071720Y-103814074D01*
X117924309Y-103912571D01*
X117760521Y-103980414D01*
X117586644Y-104015000D01*
X117409356Y-104015000D01*
X117235479Y-103980414D01*
X117071691Y-103912571D01*
X116924280Y-103814074D01*
X116798926Y-103688720D01*
X116700429Y-103541309D01*
X116632586Y-103377521D01*
X116598000Y-103203644D01*
X116598000Y-103026356D01*
X116632586Y-102852479D01*
X116700429Y-102688691D01*
X116798926Y-102541280D01*
X116924280Y-102415926D01*
X117071691Y-102317429D01*
X117235479Y-102249586D01*
X117409356Y-102215000D01*
X117586644Y-102215000D01*
X117760521Y-102249586D01*
X117760521Y-102249586D01*
G37*
G36*
X164927187Y-102249586D02*
X165090975Y-102317429D01*
X165238386Y-102415926D01*
X165363740Y-102541280D01*
X165462237Y-102688691D01*
X165530080Y-102852479D01*
X165564666Y-103026356D01*
X165564666Y-103203644D01*
X165530080Y-103377521D01*
X165462237Y-103541309D01*
X165363740Y-103688720D01*
X165238386Y-103814074D01*
X165090975Y-103912571D01*
X164927187Y-103980414D01*
X164753310Y-104015000D01*
X164576022Y-104015000D01*
X164402145Y-103980414D01*
X164238357Y-103912571D01*
X164090946Y-103814074D01*
X163965592Y-103688720D01*
X163867095Y-103541309D01*
X163799252Y-103377521D01*
X163764666Y-103203644D01*
X163764666Y-103026356D01*
X163799252Y-102852479D01*
X163867095Y-102688691D01*
X163965592Y-102541280D01*
X164090946Y-102415926D01*
X164238357Y-102317429D01*
X164402145Y-102249586D01*
X164576022Y-102215000D01*
X164753310Y-102215000D01*
X164927187Y-102249586D01*
X164927187Y-102249586D01*
G37*
G36*
X140093854Y-102249586D02*
X140257642Y-102317429D01*
X140405053Y-102415926D01*
X140530407Y-102541280D01*
X140628904Y-102688691D01*
X140696747Y-102852479D01*
X140731333Y-103026356D01*
X140731333Y-103203644D01*
X140696747Y-103377521D01*
X140628904Y-103541309D01*
X140530407Y-103688720D01*
X140405053Y-103814074D01*
X140257642Y-103912571D01*
X140093854Y-103980414D01*
X139919977Y-104015000D01*
X139742689Y-104015000D01*
X139568812Y-103980414D01*
X139405024Y-103912571D01*
X139257613Y-103814074D01*
X139132259Y-103688720D01*
X139033762Y-103541309D01*
X138965919Y-103377521D01*
X138931333Y-103203644D01*
X138931333Y-103026356D01*
X138965919Y-102852479D01*
X139033762Y-102688691D01*
X139132259Y-102541280D01*
X139257613Y-102415926D01*
X139405024Y-102317429D01*
X139568812Y-102249586D01*
X139742689Y-102215000D01*
X139919977Y-102215000D01*
X140093854Y-102249586D01*
X140093854Y-102249586D01*
G37*
G36*
X185010521Y-93999586D02*
X185174309Y-94067429D01*
X185321720Y-94165926D01*
X185447074Y-94291280D01*
X185545571Y-94438691D01*
X185613414Y-94602479D01*
X185648000Y-94776356D01*
X185648000Y-94953644D01*
X185613414Y-95127521D01*
X185545571Y-95291309D01*
X185447074Y-95438720D01*
X185321720Y-95564074D01*
X185174309Y-95662571D01*
X185010521Y-95730414D01*
X184836644Y-95765000D01*
X184659356Y-95765000D01*
X184485479Y-95730414D01*
X184321691Y-95662571D01*
X184174280Y-95564074D01*
X184048926Y-95438720D01*
X183950429Y-95291309D01*
X183882586Y-95127521D01*
X183848000Y-94953644D01*
X183848000Y-94776356D01*
X183882586Y-94602479D01*
X183950429Y-94438691D01*
X184048926Y-94291280D01*
X184174280Y-94165926D01*
X184321691Y-94067429D01*
X184485479Y-93999586D01*
X184659356Y-93965000D01*
X184836644Y-93965000D01*
X185010521Y-93999586D01*
X185010521Y-93999586D01*
G37*
G36*
X187510521Y-93999586D02*
X187674309Y-94067429D01*
X187821720Y-94165926D01*
X187947074Y-94291280D01*
X188045571Y-94438691D01*
X188113414Y-94602479D01*
X188148000Y-94776356D01*
X188148000Y-94953644D01*
X188113414Y-95127521D01*
X188045571Y-95291309D01*
X187947074Y-95438720D01*
X187821720Y-95564074D01*
X187674309Y-95662571D01*
X187510521Y-95730414D01*
X187336644Y-95765000D01*
X187159356Y-95765000D01*
X186985479Y-95730414D01*
X186821691Y-95662571D01*
X186674280Y-95564074D01*
X186548926Y-95438720D01*
X186450429Y-95291309D01*
X186382586Y-95127521D01*
X186348000Y-94953644D01*
X186348000Y-94776356D01*
X186382586Y-94602479D01*
X186450429Y-94438691D01*
X186548926Y-94291280D01*
X186674280Y-94165926D01*
X186821691Y-94067429D01*
X186985479Y-93999586D01*
X187159356Y-93965000D01*
X187336644Y-93965000D01*
X187510521Y-93999586D01*
X187510521Y-93999586D01*
G37*
G36*
X167593853Y-93999586D02*
X167757641Y-94067429D01*
X167905052Y-94165926D01*
X168030406Y-94291280D01*
X168128903Y-94438691D01*
X168196746Y-94602479D01*
X168231332Y-94776356D01*
X168231332Y-94953644D01*
X168196746Y-95127521D01*
X168128903Y-95291309D01*
X168030406Y-95438720D01*
X167905052Y-95564074D01*
X167757641Y-95662571D01*
X167593853Y-95730414D01*
X167419976Y-95765000D01*
X167242688Y-95765000D01*
X167068811Y-95730414D01*
X166905023Y-95662571D01*
X166757612Y-95564074D01*
X166632258Y-95438720D01*
X166533761Y-95291309D01*
X166465918Y-95127521D01*
X166431332Y-94953644D01*
X166431332Y-94776356D01*
X166465918Y-94602479D01*
X166533761Y-94438691D01*
X166632258Y-94291280D01*
X166757612Y-94165926D01*
X166905023Y-94067429D01*
X167068811Y-93999586D01*
X167242688Y-93965000D01*
X167419976Y-93965000D01*
X167593853Y-93999586D01*
X167593853Y-93999586D01*
G37*
G36*
X165093853Y-93999586D02*
X165257641Y-94067429D01*
X165405052Y-94165926D01*
X165530406Y-94291280D01*
X165628903Y-94438691D01*
X165696746Y-94602479D01*
X165731332Y-94776356D01*
X165731332Y-94953644D01*
X165696746Y-95127521D01*
X165628903Y-95291309D01*
X165530406Y-95438720D01*
X165405052Y-95564074D01*
X165257641Y-95662571D01*
X165093853Y-95730414D01*
X164919976Y-95765000D01*
X164742688Y-95765000D01*
X164568811Y-95730414D01*
X164405023Y-95662571D01*
X164257612Y-95564074D01*
X164132258Y-95438720D01*
X164033761Y-95291309D01*
X163965918Y-95127521D01*
X163931332Y-94953644D01*
X163931332Y-94776356D01*
X163965918Y-94602479D01*
X164033761Y-94438691D01*
X164132258Y-94291280D01*
X164257612Y-94165926D01*
X164405023Y-94067429D01*
X164568811Y-93999586D01*
X164742688Y-93965000D01*
X164919976Y-93965000D01*
X165093853Y-93999586D01*
X165093853Y-93999586D01*
G37*
G36*
X162593853Y-93999586D02*
X162757641Y-94067429D01*
X162905052Y-94165926D01*
X163030406Y-94291280D01*
X163128903Y-94438691D01*
X163196746Y-94602479D01*
X163231332Y-94776356D01*
X163231332Y-94953644D01*
X163196746Y-95127521D01*
X163128903Y-95291309D01*
X163030406Y-95438720D01*
X162905052Y-95564074D01*
X162757641Y-95662571D01*
X162593853Y-95730414D01*
X162419976Y-95765000D01*
X162242688Y-95765000D01*
X162068811Y-95730414D01*
X161905023Y-95662571D01*
X161757612Y-95564074D01*
X161632258Y-95438720D01*
X161533761Y-95291309D01*
X161465918Y-95127521D01*
X161431332Y-94953644D01*
X161431332Y-94776356D01*
X161465918Y-94602479D01*
X161533761Y-94438691D01*
X161632258Y-94291280D01*
X161757612Y-94165926D01*
X161905023Y-94067429D01*
X162068811Y-93999586D01*
X162242688Y-93965000D01*
X162419976Y-93965000D01*
X162593853Y-93999586D01*
X162593853Y-93999586D01*
G37*
G36*
X145177187Y-93999586D02*
X145340975Y-94067429D01*
X145488386Y-94165926D01*
X145613740Y-94291280D01*
X145712237Y-94438691D01*
X145780080Y-94602479D01*
X145814666Y-94776356D01*
X145814666Y-94953644D01*
X145780080Y-95127521D01*
X145712237Y-95291309D01*
X145613740Y-95438720D01*
X145488386Y-95564074D01*
X145340975Y-95662571D01*
X145177187Y-95730414D01*
X145003310Y-95765000D01*
X144826022Y-95765000D01*
X144652145Y-95730414D01*
X144488357Y-95662571D01*
X144340946Y-95564074D01*
X144215592Y-95438720D01*
X144117095Y-95291309D01*
X144049252Y-95127521D01*
X144014666Y-94953644D01*
X144014666Y-94776356D01*
X144049252Y-94602479D01*
X144117095Y-94438691D01*
X144215592Y-94291280D01*
X144340946Y-94165926D01*
X144488357Y-94067429D01*
X144652145Y-93999586D01*
X144826022Y-93965000D01*
X145003310Y-93965000D01*
X145177187Y-93999586D01*
X145177187Y-93999586D01*
G37*
G36*
X142677187Y-93999586D02*
X142840975Y-94067429D01*
X142988386Y-94165926D01*
X143113740Y-94291280D01*
X143212237Y-94438691D01*
X143280080Y-94602479D01*
X143314666Y-94776356D01*
X143314666Y-94953644D01*
X143280080Y-95127521D01*
X143212237Y-95291309D01*
X143113740Y-95438720D01*
X142988386Y-95564074D01*
X142840975Y-95662571D01*
X142677187Y-95730414D01*
X142503310Y-95765000D01*
X142326022Y-95765000D01*
X142152145Y-95730414D01*
X141988357Y-95662571D01*
X141840946Y-95564074D01*
X141715592Y-95438720D01*
X141617095Y-95291309D01*
X141549252Y-95127521D01*
X141514666Y-94953644D01*
X141514666Y-94776356D01*
X141549252Y-94602479D01*
X141617095Y-94438691D01*
X141715592Y-94291280D01*
X141840946Y-94165926D01*
X141988357Y-94067429D01*
X142152145Y-93999586D01*
X142326022Y-93965000D01*
X142503310Y-93965000D01*
X142677187Y-93999586D01*
X142677187Y-93999586D01*
G37*
G36*
X122760521Y-93999586D02*
X122924309Y-94067429D01*
X123071720Y-94165926D01*
X123197074Y-94291280D01*
X123295571Y-94438691D01*
X123363414Y-94602479D01*
X123398000Y-94776356D01*
X123398000Y-94953644D01*
X123363414Y-95127521D01*
X123295571Y-95291309D01*
X123197074Y-95438720D01*
X123071720Y-95564074D01*
X122924309Y-95662571D01*
X122760521Y-95730414D01*
X122586644Y-95765000D01*
X122409356Y-95765000D01*
X122235479Y-95730414D01*
X122071691Y-95662571D01*
X121924280Y-95564074D01*
X121798926Y-95438720D01*
X121700429Y-95291309D01*
X121632586Y-95127521D01*
X121598000Y-94953644D01*
X121598000Y-94776356D01*
X121632586Y-94602479D01*
X121700429Y-94438691D01*
X121798926Y-94291280D01*
X121924280Y-94165926D01*
X122071691Y-94067429D01*
X122235479Y-93999586D01*
X122409356Y-93965000D01*
X122586644Y-93965000D01*
X122760521Y-93999586D01*
X122760521Y-93999586D01*
G37*
G36*
X120260521Y-93999586D02*
X120424309Y-94067429D01*
X120571720Y-94165926D01*
X120697074Y-94291280D01*
X120795571Y-94438691D01*
X120863414Y-94602479D01*
X120898000Y-94776356D01*
X120898000Y-94953644D01*
X120863414Y-95127521D01*
X120795571Y-95291309D01*
X120697074Y-95438720D01*
X120571720Y-95564074D01*
X120424309Y-95662571D01*
X120260521Y-95730414D01*
X120086644Y-95765000D01*
X119909356Y-95765000D01*
X119735479Y-95730414D01*
X119571691Y-95662571D01*
X119424280Y-95564074D01*
X119298926Y-95438720D01*
X119200429Y-95291309D01*
X119132586Y-95127521D01*
X119098000Y-94953644D01*
X119098000Y-94776356D01*
X119132586Y-94602479D01*
X119200429Y-94438691D01*
X119298926Y-94291280D01*
X119424280Y-94165926D01*
X119571691Y-94067429D01*
X119735479Y-93999586D01*
X119909356Y-93965000D01*
X120086644Y-93965000D01*
X120260521Y-93999586D01*
X120260521Y-93999586D01*
G37*
G36*
X140177187Y-93999586D02*
X140340975Y-94067429D01*
X140488386Y-94165926D01*
X140613740Y-94291280D01*
X140712237Y-94438691D01*
X140780080Y-94602479D01*
X140814666Y-94776356D01*
X140814666Y-94953644D01*
X140780080Y-95127521D01*
X140712237Y-95291309D01*
X140613740Y-95438720D01*
X140488386Y-95564074D01*
X140340975Y-95662571D01*
X140177187Y-95730414D01*
X140003310Y-95765000D01*
X139826022Y-95765000D01*
X139652145Y-95730414D01*
X139488357Y-95662571D01*
X139340946Y-95564074D01*
X139215592Y-95438720D01*
X139117095Y-95291309D01*
X139049252Y-95127521D01*
X139014666Y-94953644D01*
X139014666Y-94776356D01*
X139049252Y-94602479D01*
X139117095Y-94438691D01*
X139215592Y-94291280D01*
X139340946Y-94165926D01*
X139488357Y-94067429D01*
X139652145Y-93999586D01*
X139826022Y-93965000D01*
X140003310Y-93965000D01*
X140177187Y-93999586D01*
X140177187Y-93999586D01*
G37*
G36*
X117760521Y-93999586D02*
X117924309Y-94067429D01*
X118071720Y-94165926D01*
X118197074Y-94291280D01*
X118295571Y-94438691D01*
X118363414Y-94602479D01*
X118398000Y-94776356D01*
X118398000Y-94953644D01*
X118363414Y-95127521D01*
X118295571Y-95291309D01*
X118197074Y-95438720D01*
X118071720Y-95564074D01*
X117924309Y-95662571D01*
X117760521Y-95730414D01*
X117586644Y-95765000D01*
X117409356Y-95765000D01*
X117235479Y-95730414D01*
X117071691Y-95662571D01*
X116924280Y-95564074D01*
X116798926Y-95438720D01*
X116700429Y-95291309D01*
X116632586Y-95127521D01*
X116598000Y-94953644D01*
X116598000Y-94776356D01*
X116632586Y-94602479D01*
X116700429Y-94438691D01*
X116798926Y-94291280D01*
X116924280Y-94165926D01*
X117071691Y-94067429D01*
X117235479Y-93999586D01*
X117409356Y-93965000D01*
X117586644Y-93965000D01*
X117760521Y-93999586D01*
X117760521Y-93999586D01*
G37*
G36*
X190010521Y-93999586D02*
X190174309Y-94067429D01*
X190321720Y-94165926D01*
X190447074Y-94291280D01*
X190545571Y-94438691D01*
X190613414Y-94602479D01*
X190648000Y-94776356D01*
X190648000Y-94953644D01*
X190613414Y-95127521D01*
X190545571Y-95291309D01*
X190447074Y-95438720D01*
X190321720Y-95564074D01*
X190174309Y-95662571D01*
X190010521Y-95730414D01*
X189836644Y-95765000D01*
X189659356Y-95765000D01*
X189485479Y-95730414D01*
X189321691Y-95662571D01*
X189174280Y-95564074D01*
X189048926Y-95438720D01*
X188950429Y-95291309D01*
X188882586Y-95127521D01*
X188848000Y-94953644D01*
X188848000Y-94776356D01*
X188882586Y-94602479D01*
X188950429Y-94438691D01*
X189048926Y-94291280D01*
X189174280Y-94165926D01*
X189321691Y-94067429D01*
X189485479Y-93999586D01*
X189659356Y-93965000D01*
X189836644Y-93965000D01*
X190010521Y-93999586D01*
X190010521Y-93999586D01*
G37*
G36*
X183431378Y-85941859D02*
X183795354Y-86092622D01*
X184122929Y-86311501D01*
X184401499Y-86590071D01*
X184620378Y-86917646D01*
X184771141Y-87281622D01*
X184848000Y-87668016D01*
X184848000Y-88061984D01*
X184771141Y-88448378D01*
X184620378Y-88812354D01*
X184401499Y-89139929D01*
X184122929Y-89418499D01*
X183795354Y-89637378D01*
X183431378Y-89788141D01*
X183044984Y-89865000D01*
X182651016Y-89865000D01*
X182264622Y-89788141D01*
X181900646Y-89637378D01*
X181573071Y-89418499D01*
X181294501Y-89139929D01*
X181075622Y-88812354D01*
X180924859Y-88448378D01*
X180848000Y-88061984D01*
X180848000Y-87668016D01*
X180924859Y-87281622D01*
X181075622Y-86917646D01*
X181294501Y-86590071D01*
X181573071Y-86311501D01*
X181900646Y-86092622D01*
X182264622Y-85941859D01*
X182651016Y-85865000D01*
X183044984Y-85865000D01*
X183431378Y-85941859D01*
X183431378Y-85941859D01*
G37*
G36*
X192231378Y-85941859D02*
X192595354Y-86092622D01*
X192922929Y-86311501D01*
X193201499Y-86590071D01*
X193420378Y-86917646D01*
X193571141Y-87281622D01*
X193648000Y-87668016D01*
X193648000Y-88061984D01*
X193571141Y-88448378D01*
X193420378Y-88812354D01*
X193201499Y-89139929D01*
X192922929Y-89418499D01*
X192595354Y-89637378D01*
X192231378Y-89788141D01*
X191844984Y-89865000D01*
X191451016Y-89865000D01*
X191064622Y-89788141D01*
X190700646Y-89637378D01*
X190373071Y-89418499D01*
X190094501Y-89139929D01*
X189875622Y-88812354D01*
X189724859Y-88448378D01*
X189648000Y-88061984D01*
X189648000Y-87668016D01*
X189724859Y-87281622D01*
X189875622Y-86917646D01*
X190094501Y-86590071D01*
X190373071Y-86311501D01*
X190700646Y-86092622D01*
X191064622Y-85941859D01*
X191451016Y-85865000D01*
X191844984Y-85865000D01*
X192231378Y-85941859D01*
X192231378Y-85941859D01*
G37*
G36*
X116181378Y-85941859D02*
X116545354Y-86092622D01*
X116872929Y-86311501D01*
X117151499Y-86590071D01*
X117370378Y-86917646D01*
X117521141Y-87281622D01*
X117598000Y-87668016D01*
X117598000Y-88061984D01*
X117521141Y-88448378D01*
X117370378Y-88812354D01*
X117151499Y-89139929D01*
X116872929Y-89418499D01*
X116545354Y-89637378D01*
X116181378Y-89788141D01*
X115794984Y-89865000D01*
X115401016Y-89865000D01*
X115014622Y-89788141D01*
X114650646Y-89637378D01*
X114323071Y-89418499D01*
X114044501Y-89139929D01*
X113825622Y-88812354D01*
X113674859Y-88448378D01*
X113598000Y-88061984D01*
X113598000Y-87668016D01*
X113674859Y-87281622D01*
X113825622Y-86917646D01*
X114044501Y-86590071D01*
X114323071Y-86311501D01*
X114650646Y-86092622D01*
X115014622Y-85941859D01*
X115401016Y-85865000D01*
X115794984Y-85865000D01*
X116181378Y-85941859D01*
X116181378Y-85941859D01*
G37*
G36*
X124981378Y-85941859D02*
X125345354Y-86092622D01*
X125672929Y-86311501D01*
X125951499Y-86590071D01*
X126170378Y-86917646D01*
X126321141Y-87281622D01*
X126398000Y-87668016D01*
X126398000Y-88061984D01*
X126321141Y-88448378D01*
X126170378Y-88812354D01*
X125951499Y-89139929D01*
X125672929Y-89418499D01*
X125345354Y-89637378D01*
X124981378Y-89788141D01*
X124594984Y-89865000D01*
X124201016Y-89865000D01*
X123814622Y-89788141D01*
X123450646Y-89637378D01*
X123123071Y-89418499D01*
X122844501Y-89139929D01*
X122625622Y-88812354D01*
X122474859Y-88448378D01*
X122398000Y-88061984D01*
X122398000Y-87668016D01*
X122474859Y-87281622D01*
X122625622Y-86917646D01*
X122844501Y-86590071D01*
X123123071Y-86311501D01*
X123450646Y-86092622D01*
X123814622Y-85941859D01*
X124201016Y-85865000D01*
X124594984Y-85865000D01*
X124981378Y-85941859D01*
X124981378Y-85941859D01*
G37*
G36*
X169814710Y-85941859D02*
X170178686Y-86092622D01*
X170506261Y-86311501D01*
X170784831Y-86590071D01*
X171003710Y-86917646D01*
X171154473Y-87281622D01*
X171231332Y-87668016D01*
X171231332Y-88061984D01*
X171154473Y-88448378D01*
X171003710Y-88812354D01*
X170784831Y-89139929D01*
X170506261Y-89418499D01*
X170178686Y-89637378D01*
X169814710Y-89788141D01*
X169428316Y-89865000D01*
X169034348Y-89865000D01*
X168647954Y-89788141D01*
X168283978Y-89637378D01*
X167956403Y-89418499D01*
X167677833Y-89139929D01*
X167458954Y-88812354D01*
X167308191Y-88448378D01*
X167231332Y-88061984D01*
X167231332Y-87668016D01*
X167308191Y-87281622D01*
X167458954Y-86917646D01*
X167677833Y-86590071D01*
X167956403Y-86311501D01*
X168283978Y-86092622D01*
X168647954Y-85941859D01*
X169034348Y-85865000D01*
X169428316Y-85865000D01*
X169814710Y-85941859D01*
X169814710Y-85941859D01*
G37*
G36*
X161014710Y-85941859D02*
X161378686Y-86092622D01*
X161706261Y-86311501D01*
X161984831Y-86590071D01*
X162203710Y-86917646D01*
X162354473Y-87281622D01*
X162431332Y-87668016D01*
X162431332Y-88061984D01*
X162354473Y-88448378D01*
X162203710Y-88812354D01*
X161984831Y-89139929D01*
X161706261Y-89418499D01*
X161378686Y-89637378D01*
X161014710Y-89788141D01*
X160628316Y-89865000D01*
X160234348Y-89865000D01*
X159847954Y-89788141D01*
X159483978Y-89637378D01*
X159156403Y-89418499D01*
X158877833Y-89139929D01*
X158658954Y-88812354D01*
X158508191Y-88448378D01*
X158431332Y-88061984D01*
X158431332Y-87668016D01*
X158508191Y-87281622D01*
X158658954Y-86917646D01*
X158877833Y-86590071D01*
X159156403Y-86311501D01*
X159483978Y-86092622D01*
X159847954Y-85941859D01*
X160234348Y-85865000D01*
X160628316Y-85865000D01*
X161014710Y-85941859D01*
X161014710Y-85941859D01*
G37*
G36*
X147398044Y-85941859D02*
X147762020Y-86092622D01*
X148089595Y-86311501D01*
X148368165Y-86590071D01*
X148587044Y-86917646D01*
X148737807Y-87281622D01*
X148814666Y-87668016D01*
X148814666Y-88061984D01*
X148737807Y-88448378D01*
X148587044Y-88812354D01*
X148368165Y-89139929D01*
X148089595Y-89418499D01*
X147762020Y-89637378D01*
X147398044Y-89788141D01*
X147011650Y-89865000D01*
X146617682Y-89865000D01*
X146231288Y-89788141D01*
X145867312Y-89637378D01*
X145539737Y-89418499D01*
X145261167Y-89139929D01*
X145042288Y-88812354D01*
X144891525Y-88448378D01*
X144814666Y-88061984D01*
X144814666Y-87668016D01*
X144891525Y-87281622D01*
X145042288Y-86917646D01*
X145261167Y-86590071D01*
X145539737Y-86311501D01*
X145867312Y-86092622D01*
X146231288Y-85941859D01*
X146617682Y-85865000D01*
X147011650Y-85865000D01*
X147398044Y-85941859D01*
X147398044Y-85941859D01*
G37*
G36*
X138598044Y-85941859D02*
X138962020Y-86092622D01*
X139289595Y-86311501D01*
X139568165Y-86590071D01*
X139787044Y-86917646D01*
X139937807Y-87281622D01*
X140014666Y-87668016D01*
X140014666Y-88061984D01*
X139937807Y-88448378D01*
X139787044Y-88812354D01*
X139568165Y-89139929D01*
X139289595Y-89418499D01*
X138962020Y-89637378D01*
X138598044Y-89788141D01*
X138211650Y-89865000D01*
X137817682Y-89865000D01*
X137431288Y-89788141D01*
X137067312Y-89637378D01*
X136739737Y-89418499D01*
X136461167Y-89139929D01*
X136242288Y-88812354D01*
X136091525Y-88448378D01*
X136014666Y-88061984D01*
X136014666Y-87668016D01*
X136091525Y-87281622D01*
X136242288Y-86917646D01*
X136461167Y-86590071D01*
X136739737Y-86311501D01*
X137067312Y-86092622D01*
X137431288Y-85941859D01*
X137817682Y-85865000D01*
X138211650Y-85865000D01*
X138598044Y-85941859D01*
X138598044Y-85941859D01*
G37*
G36*
X197848000Y-85215000D02*
X196148000Y-85215000D01*
X196148000Y-83515000D01*
X197848000Y-83515000D01*
X197848000Y-85215000D01*
X197848000Y-85215000D01*
G37*
G36*
X197164630Y-80987299D02*
X197324855Y-81035903D01*
X197472520Y-81114831D01*
X197601949Y-81221051D01*
X197708169Y-81350480D01*
X197787097Y-81498145D01*
X197835701Y-81658370D01*
X197852112Y-81825000D01*
X197835701Y-81991630D01*
X197787097Y-82151855D01*
X197708169Y-82299520D01*
X197601949Y-82428949D01*
X197472520Y-82535169D01*
X197324855Y-82614097D01*
X197164630Y-82662701D01*
X197039752Y-82675000D01*
X196956248Y-82675000D01*
X196831370Y-82662701D01*
X196671145Y-82614097D01*
X196523480Y-82535169D01*
X196394051Y-82428949D01*
X196287831Y-82299520D01*
X196208903Y-82151855D01*
X196160299Y-81991630D01*
X196143888Y-81825000D01*
X196160299Y-81658370D01*
X196208903Y-81498145D01*
X196287831Y-81350480D01*
X196394051Y-81221051D01*
X196523480Y-81114831D01*
X196671145Y-81035903D01*
X196831370Y-80987299D01*
X196956248Y-80975000D01*
X197039752Y-80975000D01*
X197164630Y-80987299D01*
X197164630Y-80987299D01*
G37*
G36*
X181502183Y-79391900D02*
X181629574Y-79444668D01*
X181682685Y-79480155D01*
X181744225Y-79521275D01*
X181841725Y-79618775D01*
X181918332Y-79733426D01*
X181971100Y-79860817D01*
X181998000Y-79996055D01*
X181998000Y-80133945D01*
X181971100Y-80269183D01*
X181918332Y-80396574D01*
X181841726Y-80511224D01*
X181744224Y-80608726D01*
X181629574Y-80685332D01*
X181502183Y-80738100D01*
X181366945Y-80765000D01*
X181229055Y-80765000D01*
X181093817Y-80738100D01*
X180966426Y-80685332D01*
X180851776Y-80608726D01*
X180754274Y-80511224D01*
X180677668Y-80396574D01*
X180624900Y-80269183D01*
X180598000Y-80133945D01*
X180598000Y-79996055D01*
X180624900Y-79860817D01*
X180677668Y-79733426D01*
X180754275Y-79618775D01*
X180851775Y-79521275D01*
X180913316Y-79480155D01*
X180966426Y-79444668D01*
X181093817Y-79391900D01*
X181229055Y-79365000D01*
X181366945Y-79365000D01*
X181502183Y-79391900D01*
X181502183Y-79391900D01*
G37*
G36*
X189055224Y-79375128D02*
X189187175Y-79415155D01*
X189308781Y-79480155D01*
X189415370Y-79567630D01*
X189502845Y-79674219D01*
X189567845Y-79795825D01*
X189607872Y-79927776D01*
X189621387Y-80065000D01*
X189607872Y-80202224D01*
X189567845Y-80334175D01*
X189502845Y-80455781D01*
X189415370Y-80562370D01*
X189308781Y-80649845D01*
X189187175Y-80714845D01*
X189055224Y-80754872D01*
X188952390Y-80765000D01*
X188883610Y-80765000D01*
X188780776Y-80754872D01*
X188648825Y-80714845D01*
X188527219Y-80649845D01*
X188420630Y-80562370D01*
X188333155Y-80455781D01*
X188268155Y-80334175D01*
X188228128Y-80202224D01*
X188214613Y-80065000D01*
X188228128Y-79927776D01*
X188268155Y-79795825D01*
X188333155Y-79674219D01*
X188420630Y-79567630D01*
X188527219Y-79480155D01*
X188648825Y-79415155D01*
X188780776Y-79375128D01*
X188883610Y-79365000D01*
X188952390Y-79365000D01*
X189055224Y-79375128D01*
X189055224Y-79375128D01*
G37*
G36*
X197848000Y-78215000D02*
X196148000Y-78215000D01*
X196148000Y-76515000D01*
X197848000Y-76515000D01*
X197848000Y-78215000D01*
X197848000Y-78215000D01*
G37*
G36*
X152823294Y-74561496D02*
X152943726Y-74598029D01*
X152986087Y-74610879D01*
X153136112Y-74691068D01*
X153267612Y-74798988D01*
X153375532Y-74930488D01*
X153455721Y-75080512D01*
X153460365Y-75095822D01*
X153505104Y-75243305D01*
X153517600Y-75370180D01*
X153517600Y-75759819D01*
X153505104Y-75886694D01*
X153485947Y-75949845D01*
X153455721Y-76049488D01*
X153375532Y-76199512D01*
X153267612Y-76331012D01*
X153136112Y-76438932D01*
X152986088Y-76519121D01*
X152943727Y-76531971D01*
X152823295Y-76568504D01*
X152710432Y-76579620D01*
X152654001Y-76585178D01*
X152654000Y-76585178D01*
X152484706Y-76568504D01*
X152364274Y-76531971D01*
X152321913Y-76519121D01*
X152171889Y-76438932D01*
X152081946Y-76365117D01*
X152040388Y-76331012D01*
X151932469Y-76199512D01*
X151932467Y-76199509D01*
X151852279Y-76049488D01*
X151822053Y-75949845D01*
X151802896Y-75886695D01*
X151790400Y-75759820D01*
X151790400Y-75370181D01*
X151802896Y-75243306D01*
X151852278Y-75080517D01*
X151852279Y-75080513D01*
X151932468Y-74930488D01*
X152040388Y-74798988D01*
X152171888Y-74691068D01*
X152321912Y-74610879D01*
X152364273Y-74598029D01*
X152484705Y-74561496D01*
X152597568Y-74550380D01*
X152653999Y-74544822D01*
X152654000Y-74544822D01*
X152823294Y-74561496D01*
X152823294Y-74561496D01*
G37*
G36*
X156887294Y-74561496D02*
X157007726Y-74598029D01*
X157050087Y-74610879D01*
X157200112Y-74691068D01*
X157331612Y-74798988D01*
X157439532Y-74930488D01*
X157519721Y-75080512D01*
X157524365Y-75095822D01*
X157569104Y-75243305D01*
X157581600Y-75370180D01*
X157581600Y-75759819D01*
X157569104Y-75886694D01*
X157549947Y-75949845D01*
X157519721Y-76049488D01*
X157439532Y-76199512D01*
X157331612Y-76331012D01*
X157200112Y-76438932D01*
X157050088Y-76519121D01*
X157007727Y-76531971D01*
X156887295Y-76568504D01*
X156774432Y-76579620D01*
X156718001Y-76585178D01*
X156718000Y-76585178D01*
X156548706Y-76568504D01*
X156428274Y-76531971D01*
X156385913Y-76519121D01*
X156235889Y-76438932D01*
X156145946Y-76365117D01*
X156104388Y-76331012D01*
X155996469Y-76199512D01*
X155996467Y-76199509D01*
X155916279Y-76049488D01*
X155886053Y-75949845D01*
X155866896Y-75886695D01*
X155854400Y-75759820D01*
X155854400Y-75370181D01*
X155866896Y-75243306D01*
X155916278Y-75080517D01*
X155916279Y-75080513D01*
X155996468Y-74930488D01*
X156104388Y-74798988D01*
X156235888Y-74691068D01*
X156385912Y-74610879D01*
X156428273Y-74598029D01*
X156548705Y-74561496D01*
X156661568Y-74550380D01*
X156717999Y-74544822D01*
X156718000Y-74544822D01*
X156887294Y-74561496D01*
X156887294Y-74561496D01*
G37*
G36*
X159427294Y-74561496D02*
X159547726Y-74598029D01*
X159590087Y-74610879D01*
X159740112Y-74691068D01*
X159871612Y-74798988D01*
X159979532Y-74930488D01*
X160059721Y-75080512D01*
X160064365Y-75095822D01*
X160109104Y-75243305D01*
X160121600Y-75370180D01*
X160121600Y-75759819D01*
X160109104Y-75886694D01*
X160089947Y-75949845D01*
X160059721Y-76049488D01*
X159979532Y-76199512D01*
X159871612Y-76331012D01*
X159740112Y-76438932D01*
X159590088Y-76519121D01*
X159547727Y-76531971D01*
X159427295Y-76568504D01*
X159314432Y-76579620D01*
X159258001Y-76585178D01*
X159258000Y-76585178D01*
X159088706Y-76568504D01*
X158968274Y-76531971D01*
X158925913Y-76519121D01*
X158775889Y-76438932D01*
X158685946Y-76365117D01*
X158644388Y-76331012D01*
X158536469Y-76199512D01*
X158536467Y-76199509D01*
X158456279Y-76049488D01*
X158426053Y-75949845D01*
X158406896Y-75886695D01*
X158394400Y-75759820D01*
X158394400Y-75370181D01*
X158406896Y-75243306D01*
X158456278Y-75080517D01*
X158456279Y-75080513D01*
X158536468Y-74930488D01*
X158644388Y-74798988D01*
X158775888Y-74691068D01*
X158925912Y-74610879D01*
X158968273Y-74598029D01*
X159088705Y-74561496D01*
X159201568Y-74550380D01*
X159257999Y-74544822D01*
X159258000Y-74544822D01*
X159427294Y-74561496D01*
X159427294Y-74561496D01*
G37*
G36*
X161967294Y-74561496D02*
X162087726Y-74598029D01*
X162130087Y-74610879D01*
X162280112Y-74691068D01*
X162411612Y-74798988D01*
X162519532Y-74930488D01*
X162599721Y-75080512D01*
X162604365Y-75095822D01*
X162649104Y-75243305D01*
X162661600Y-75370180D01*
X162661600Y-75759819D01*
X162649104Y-75886694D01*
X162629947Y-75949845D01*
X162599721Y-76049488D01*
X162519532Y-76199512D01*
X162411612Y-76331012D01*
X162280112Y-76438932D01*
X162130088Y-76519121D01*
X162087727Y-76531971D01*
X161967295Y-76568504D01*
X161854432Y-76579620D01*
X161798001Y-76585178D01*
X161798000Y-76585178D01*
X161628706Y-76568504D01*
X161508274Y-76531971D01*
X161465913Y-76519121D01*
X161315889Y-76438932D01*
X161225946Y-76365117D01*
X161184388Y-76331012D01*
X161076469Y-76199512D01*
X161076467Y-76199509D01*
X160996279Y-76049488D01*
X160966053Y-75949845D01*
X160946896Y-75886695D01*
X160934400Y-75759820D01*
X160934400Y-75370181D01*
X160946896Y-75243306D01*
X160996278Y-75080517D01*
X160996279Y-75080513D01*
X161076468Y-74930488D01*
X161184388Y-74798988D01*
X161315888Y-74691068D01*
X161465912Y-74610879D01*
X161508273Y-74598029D01*
X161628705Y-74561496D01*
X161741568Y-74550380D01*
X161797999Y-74544822D01*
X161798000Y-74544822D01*
X161967294Y-74561496D01*
X161967294Y-74561496D01*
G37*
G36*
X164507294Y-74561496D02*
X164627726Y-74598029D01*
X164670087Y-74610879D01*
X164820112Y-74691068D01*
X164951612Y-74798988D01*
X165059532Y-74930488D01*
X165139721Y-75080512D01*
X165144365Y-75095822D01*
X165189104Y-75243305D01*
X165201600Y-75370180D01*
X165201600Y-75759819D01*
X165189104Y-75886694D01*
X165169947Y-75949845D01*
X165139721Y-76049488D01*
X165059532Y-76199512D01*
X164951612Y-76331012D01*
X164820112Y-76438932D01*
X164670088Y-76519121D01*
X164627727Y-76531971D01*
X164507295Y-76568504D01*
X164394432Y-76579620D01*
X164338001Y-76585178D01*
X164338000Y-76585178D01*
X164168706Y-76568504D01*
X164048274Y-76531971D01*
X164005913Y-76519121D01*
X163855889Y-76438932D01*
X163765946Y-76365117D01*
X163724388Y-76331012D01*
X163616469Y-76199512D01*
X163616467Y-76199509D01*
X163536279Y-76049488D01*
X163506053Y-75949845D01*
X163486896Y-75886695D01*
X163474400Y-75759820D01*
X163474400Y-75370181D01*
X163486896Y-75243306D01*
X163536278Y-75080517D01*
X163536279Y-75080513D01*
X163616468Y-74930488D01*
X163724388Y-74798988D01*
X163855888Y-74691068D01*
X164005912Y-74610879D01*
X164048273Y-74598029D01*
X164168705Y-74561496D01*
X164281568Y-74550380D01*
X164337999Y-74544822D01*
X164338000Y-74544822D01*
X164507294Y-74561496D01*
X164507294Y-74561496D01*
G37*
G36*
X167047294Y-74561496D02*
X167167726Y-74598029D01*
X167210087Y-74610879D01*
X167360112Y-74691068D01*
X167491612Y-74798988D01*
X167599532Y-74930488D01*
X167679721Y-75080512D01*
X167684365Y-75095822D01*
X167729104Y-75243305D01*
X167741600Y-75370180D01*
X167741600Y-75759819D01*
X167729104Y-75886694D01*
X167709947Y-75949845D01*
X167679721Y-76049488D01*
X167599532Y-76199512D01*
X167491612Y-76331012D01*
X167360112Y-76438932D01*
X167210088Y-76519121D01*
X167167727Y-76531971D01*
X167047295Y-76568504D01*
X166934432Y-76579620D01*
X166878001Y-76585178D01*
X166878000Y-76585178D01*
X166708706Y-76568504D01*
X166588274Y-76531971D01*
X166545913Y-76519121D01*
X166395889Y-76438932D01*
X166305946Y-76365117D01*
X166264388Y-76331012D01*
X166156469Y-76199512D01*
X166156467Y-76199509D01*
X166076279Y-76049488D01*
X166046053Y-75949845D01*
X166026896Y-75886695D01*
X166014400Y-75759820D01*
X166014400Y-75370181D01*
X166026896Y-75243306D01*
X166076278Y-75080517D01*
X166076279Y-75080513D01*
X166156468Y-74930488D01*
X166264388Y-74798988D01*
X166395888Y-74691068D01*
X166545912Y-74610879D01*
X166588273Y-74598029D01*
X166708705Y-74561496D01*
X166821568Y-74550380D01*
X166877999Y-74544822D01*
X166878000Y-74544822D01*
X167047294Y-74561496D01*
X167047294Y-74561496D01*
G37*
G36*
X169587294Y-74561496D02*
X169707726Y-74598029D01*
X169750087Y-74610879D01*
X169900112Y-74691068D01*
X170031612Y-74798988D01*
X170139532Y-74930488D01*
X170219721Y-75080512D01*
X170224365Y-75095822D01*
X170269104Y-75243305D01*
X170281600Y-75370180D01*
X170281600Y-75759819D01*
X170269104Y-75886694D01*
X170249947Y-75949845D01*
X170219721Y-76049488D01*
X170139532Y-76199512D01*
X170031612Y-76331012D01*
X169900112Y-76438932D01*
X169750088Y-76519121D01*
X169707727Y-76531971D01*
X169587295Y-76568504D01*
X169474432Y-76579620D01*
X169418001Y-76585178D01*
X169418000Y-76585178D01*
X169248706Y-76568504D01*
X169128274Y-76531971D01*
X169085913Y-76519121D01*
X168935889Y-76438932D01*
X168845946Y-76365117D01*
X168804388Y-76331012D01*
X168696469Y-76199512D01*
X168696467Y-76199509D01*
X168616279Y-76049488D01*
X168586053Y-75949845D01*
X168566896Y-75886695D01*
X168554400Y-75759820D01*
X168554400Y-75370181D01*
X168566896Y-75243306D01*
X168616278Y-75080517D01*
X168616279Y-75080513D01*
X168696468Y-74930488D01*
X168804388Y-74798988D01*
X168935888Y-74691068D01*
X169085912Y-74610879D01*
X169128273Y-74598029D01*
X169248705Y-74561496D01*
X169361568Y-74550380D01*
X169417999Y-74544822D01*
X169418000Y-74544822D01*
X169587294Y-74561496D01*
X169587294Y-74561496D01*
G37*
G36*
X172127294Y-74561496D02*
X172247726Y-74598029D01*
X172290087Y-74610879D01*
X172440112Y-74691068D01*
X172571612Y-74798988D01*
X172679532Y-74930488D01*
X172759721Y-75080512D01*
X172764365Y-75095822D01*
X172809104Y-75243305D01*
X172821600Y-75370180D01*
X172821600Y-75759819D01*
X172809104Y-75886694D01*
X172789947Y-75949845D01*
X172759721Y-76049488D01*
X172679532Y-76199512D01*
X172571612Y-76331012D01*
X172440112Y-76438932D01*
X172290088Y-76519121D01*
X172247727Y-76531971D01*
X172127295Y-76568504D01*
X172014432Y-76579620D01*
X171958001Y-76585178D01*
X171958000Y-76585178D01*
X171788706Y-76568504D01*
X171668274Y-76531971D01*
X171625913Y-76519121D01*
X171475889Y-76438932D01*
X171385946Y-76365117D01*
X171344388Y-76331012D01*
X171236469Y-76199512D01*
X171236467Y-76199509D01*
X171156279Y-76049488D01*
X171126053Y-75949845D01*
X171106896Y-75886695D01*
X171094400Y-75759820D01*
X171094400Y-75370181D01*
X171106896Y-75243306D01*
X171156278Y-75080517D01*
X171156279Y-75080513D01*
X171236468Y-74930488D01*
X171344388Y-74798988D01*
X171475888Y-74691068D01*
X171625912Y-74610879D01*
X171668273Y-74598029D01*
X171788705Y-74561496D01*
X171901568Y-74550380D01*
X171957999Y-74544822D01*
X171958000Y-74544822D01*
X172127294Y-74561496D01*
X172127294Y-74561496D01*
G37*
G36*
X174667294Y-74561496D02*
X174787726Y-74598029D01*
X174830087Y-74610879D01*
X174980112Y-74691068D01*
X175111612Y-74798988D01*
X175219532Y-74930488D01*
X175299721Y-75080512D01*
X175304365Y-75095822D01*
X175349104Y-75243305D01*
X175361600Y-75370180D01*
X175361600Y-75759819D01*
X175349104Y-75886694D01*
X175329947Y-75949845D01*
X175299721Y-76049488D01*
X175219532Y-76199512D01*
X175111612Y-76331012D01*
X174980112Y-76438932D01*
X174830088Y-76519121D01*
X174787727Y-76531971D01*
X174667295Y-76568504D01*
X174554432Y-76579620D01*
X174498001Y-76585178D01*
X174498000Y-76585178D01*
X174328706Y-76568504D01*
X174208274Y-76531971D01*
X174165913Y-76519121D01*
X174015889Y-76438932D01*
X173925946Y-76365117D01*
X173884388Y-76331012D01*
X173776469Y-76199512D01*
X173776467Y-76199509D01*
X173696279Y-76049488D01*
X173666053Y-75949845D01*
X173646896Y-75886695D01*
X173634400Y-75759820D01*
X173634400Y-75370181D01*
X173646896Y-75243306D01*
X173696278Y-75080517D01*
X173696279Y-75080513D01*
X173776468Y-74930488D01*
X173884388Y-74798988D01*
X174015888Y-74691068D01*
X174165912Y-74610879D01*
X174208273Y-74598029D01*
X174328705Y-74561496D01*
X174441568Y-74550380D01*
X174497999Y-74544822D01*
X174498000Y-74544822D01*
X174667294Y-74561496D01*
X174667294Y-74561496D01*
G37*
G36*
X150283294Y-74561496D02*
X150403726Y-74598029D01*
X150446087Y-74610879D01*
X150596112Y-74691068D01*
X150727612Y-74798988D01*
X150835532Y-74930488D01*
X150915721Y-75080512D01*
X150920365Y-75095822D01*
X150965104Y-75243305D01*
X150977600Y-75370180D01*
X150977600Y-75759819D01*
X150965104Y-75886694D01*
X150945947Y-75949845D01*
X150915721Y-76049488D01*
X150835532Y-76199512D01*
X150727612Y-76331012D01*
X150596112Y-76438932D01*
X150446088Y-76519121D01*
X150403727Y-76531971D01*
X150283295Y-76568504D01*
X150170432Y-76579620D01*
X150114001Y-76585178D01*
X150114000Y-76585178D01*
X149944706Y-76568504D01*
X149824274Y-76531971D01*
X149781913Y-76519121D01*
X149631889Y-76438932D01*
X149541946Y-76365117D01*
X149500388Y-76331012D01*
X149392469Y-76199512D01*
X149392467Y-76199509D01*
X149312279Y-76049488D01*
X149282053Y-75949845D01*
X149262896Y-75886695D01*
X149250400Y-75759820D01*
X149250400Y-75370181D01*
X149262896Y-75243306D01*
X149312278Y-75080517D01*
X149312279Y-75080513D01*
X149392468Y-74930488D01*
X149500388Y-74798988D01*
X149631888Y-74691068D01*
X149781912Y-74610879D01*
X149824273Y-74598029D01*
X149944705Y-74561496D01*
X150057568Y-74550380D01*
X150113999Y-74544822D01*
X150114000Y-74544822D01*
X150283294Y-74561496D01*
X150283294Y-74561496D01*
G37*
G36*
X147743294Y-74561496D02*
X147863726Y-74598029D01*
X147906087Y-74610879D01*
X148056112Y-74691068D01*
X148187612Y-74798988D01*
X148295532Y-74930488D01*
X148375721Y-75080512D01*
X148380365Y-75095822D01*
X148425104Y-75243305D01*
X148437600Y-75370180D01*
X148437600Y-75759819D01*
X148425104Y-75886694D01*
X148405947Y-75949845D01*
X148375721Y-76049488D01*
X148295532Y-76199512D01*
X148187612Y-76331012D01*
X148056112Y-76438932D01*
X147906088Y-76519121D01*
X147863727Y-76531971D01*
X147743295Y-76568504D01*
X147630432Y-76579620D01*
X147574001Y-76585178D01*
X147574000Y-76585178D01*
X147404706Y-76568504D01*
X147284274Y-76531971D01*
X147241913Y-76519121D01*
X147091889Y-76438932D01*
X147001946Y-76365117D01*
X146960388Y-76331012D01*
X146852469Y-76199512D01*
X146852467Y-76199509D01*
X146772279Y-76049488D01*
X146742053Y-75949845D01*
X146722896Y-75886695D01*
X146710400Y-75759820D01*
X146710400Y-75370181D01*
X146722896Y-75243306D01*
X146772278Y-75080517D01*
X146772279Y-75080513D01*
X146852468Y-74930488D01*
X146960388Y-74798988D01*
X147091888Y-74691068D01*
X147241912Y-74610879D01*
X147284273Y-74598029D01*
X147404705Y-74561496D01*
X147517568Y-74550380D01*
X147573999Y-74544822D01*
X147574000Y-74544822D01*
X147743294Y-74561496D01*
X147743294Y-74561496D01*
G37*
G36*
X145203294Y-74561496D02*
X145323726Y-74598029D01*
X145366087Y-74610879D01*
X145516112Y-74691068D01*
X145647612Y-74798988D01*
X145755532Y-74930488D01*
X145835721Y-75080512D01*
X145840365Y-75095822D01*
X145885104Y-75243305D01*
X145897600Y-75370180D01*
X145897600Y-75759819D01*
X145885104Y-75886694D01*
X145865947Y-75949845D01*
X145835721Y-76049488D01*
X145755532Y-76199512D01*
X145647612Y-76331012D01*
X145516112Y-76438932D01*
X145366088Y-76519121D01*
X145323727Y-76531971D01*
X145203295Y-76568504D01*
X145090432Y-76579620D01*
X145034001Y-76585178D01*
X145034000Y-76585178D01*
X144864706Y-76568504D01*
X144744274Y-76531971D01*
X144701913Y-76519121D01*
X144551889Y-76438932D01*
X144461946Y-76365117D01*
X144420388Y-76331012D01*
X144312469Y-76199512D01*
X144312467Y-76199509D01*
X144232279Y-76049488D01*
X144202053Y-75949845D01*
X144182896Y-75886695D01*
X144170400Y-75759820D01*
X144170400Y-75370181D01*
X144182896Y-75243306D01*
X144232278Y-75080517D01*
X144232279Y-75080513D01*
X144312468Y-74930488D01*
X144420388Y-74798988D01*
X144551888Y-74691068D01*
X144701912Y-74610879D01*
X144744273Y-74598029D01*
X144864705Y-74561496D01*
X144977568Y-74550380D01*
X145033999Y-74544822D01*
X145034000Y-74544822D01*
X145203294Y-74561496D01*
X145203294Y-74561496D01*
G37*
G36*
X142663294Y-74561496D02*
X142783726Y-74598029D01*
X142826087Y-74610879D01*
X142976112Y-74691068D01*
X143107612Y-74798988D01*
X143215532Y-74930488D01*
X143295721Y-75080512D01*
X143300365Y-75095822D01*
X143345104Y-75243305D01*
X143357600Y-75370180D01*
X143357600Y-75759819D01*
X143345104Y-75886694D01*
X143325947Y-75949845D01*
X143295721Y-76049488D01*
X143215532Y-76199512D01*
X143107612Y-76331012D01*
X142976112Y-76438932D01*
X142826088Y-76519121D01*
X142783727Y-76531971D01*
X142663295Y-76568504D01*
X142550432Y-76579620D01*
X142494001Y-76585178D01*
X142494000Y-76585178D01*
X142324706Y-76568504D01*
X142204274Y-76531971D01*
X142161913Y-76519121D01*
X142011889Y-76438932D01*
X141921946Y-76365117D01*
X141880388Y-76331012D01*
X141772469Y-76199512D01*
X141772467Y-76199509D01*
X141692279Y-76049488D01*
X141662053Y-75949845D01*
X141642896Y-75886695D01*
X141630400Y-75759820D01*
X141630400Y-75370181D01*
X141642896Y-75243306D01*
X141692278Y-75080517D01*
X141692279Y-75080513D01*
X141772468Y-74930488D01*
X141880388Y-74798988D01*
X142011888Y-74691068D01*
X142161912Y-74610879D01*
X142204273Y-74598029D01*
X142324705Y-74561496D01*
X142437568Y-74550380D01*
X142493999Y-74544822D01*
X142494000Y-74544822D01*
X142663294Y-74561496D01*
X142663294Y-74561496D01*
G37*
G36*
X140123294Y-74561496D02*
X140243726Y-74598029D01*
X140286087Y-74610879D01*
X140436112Y-74691068D01*
X140567612Y-74798988D01*
X140675532Y-74930488D01*
X140755721Y-75080512D01*
X140760365Y-75095822D01*
X140805104Y-75243305D01*
X140817600Y-75370180D01*
X140817600Y-75759819D01*
X140805104Y-75886694D01*
X140785947Y-75949845D01*
X140755721Y-76049488D01*
X140675532Y-76199512D01*
X140567612Y-76331012D01*
X140436112Y-76438932D01*
X140286088Y-76519121D01*
X140243727Y-76531971D01*
X140123295Y-76568504D01*
X140010432Y-76579620D01*
X139954001Y-76585178D01*
X139954000Y-76585178D01*
X139784706Y-76568504D01*
X139664274Y-76531971D01*
X139621913Y-76519121D01*
X139471889Y-76438932D01*
X139381946Y-76365117D01*
X139340388Y-76331012D01*
X139232469Y-76199512D01*
X139232467Y-76199509D01*
X139152279Y-76049488D01*
X139122053Y-75949845D01*
X139102896Y-75886695D01*
X139090400Y-75759820D01*
X139090400Y-75370181D01*
X139102896Y-75243306D01*
X139152278Y-75080517D01*
X139152279Y-75080513D01*
X139232468Y-74930488D01*
X139340388Y-74798988D01*
X139471888Y-74691068D01*
X139621912Y-74610879D01*
X139664273Y-74598029D01*
X139784705Y-74561496D01*
X139897568Y-74550380D01*
X139953999Y-74544822D01*
X139954000Y-74544822D01*
X140123294Y-74561496D01*
X140123294Y-74561496D01*
G37*
G36*
X137583294Y-74561496D02*
X137703726Y-74598029D01*
X137746087Y-74610879D01*
X137896112Y-74691068D01*
X138027612Y-74798988D01*
X138135532Y-74930488D01*
X138215721Y-75080512D01*
X138220365Y-75095822D01*
X138265104Y-75243305D01*
X138277600Y-75370180D01*
X138277600Y-75759819D01*
X138265104Y-75886694D01*
X138245947Y-75949845D01*
X138215721Y-76049488D01*
X138135532Y-76199512D01*
X138027612Y-76331012D01*
X137896112Y-76438932D01*
X137746088Y-76519121D01*
X137703727Y-76531971D01*
X137583295Y-76568504D01*
X137470432Y-76579620D01*
X137414001Y-76585178D01*
X137414000Y-76585178D01*
X137244706Y-76568504D01*
X137124274Y-76531971D01*
X137081913Y-76519121D01*
X136931889Y-76438932D01*
X136841946Y-76365117D01*
X136800388Y-76331012D01*
X136692469Y-76199512D01*
X136692467Y-76199509D01*
X136612279Y-76049488D01*
X136582053Y-75949845D01*
X136562896Y-75886695D01*
X136550400Y-75759820D01*
X136550400Y-75370181D01*
X136562896Y-75243306D01*
X136612278Y-75080517D01*
X136612279Y-75080513D01*
X136692468Y-74930488D01*
X136800388Y-74798988D01*
X136931888Y-74691068D01*
X137081912Y-74610879D01*
X137124273Y-74598029D01*
X137244705Y-74561496D01*
X137357568Y-74550380D01*
X137413999Y-74544822D01*
X137414000Y-74544822D01*
X137583294Y-74561496D01*
X137583294Y-74561496D01*
G37*
G36*
X135043294Y-74561496D02*
X135163726Y-74598029D01*
X135206087Y-74610879D01*
X135356112Y-74691068D01*
X135487612Y-74798988D01*
X135595532Y-74930488D01*
X135675721Y-75080512D01*
X135680365Y-75095822D01*
X135725104Y-75243305D01*
X135737600Y-75370180D01*
X135737600Y-75759819D01*
X135725104Y-75886694D01*
X135705947Y-75949845D01*
X135675721Y-76049488D01*
X135595532Y-76199512D01*
X135487612Y-76331012D01*
X135356112Y-76438932D01*
X135206088Y-76519121D01*
X135163727Y-76531971D01*
X135043295Y-76568504D01*
X134930432Y-76579620D01*
X134874001Y-76585178D01*
X134874000Y-76585178D01*
X134704706Y-76568504D01*
X134584274Y-76531971D01*
X134541913Y-76519121D01*
X134391889Y-76438932D01*
X134301946Y-76365117D01*
X134260388Y-76331012D01*
X134152469Y-76199512D01*
X134152467Y-76199509D01*
X134072279Y-76049488D01*
X134042053Y-75949845D01*
X134022896Y-75886695D01*
X134010400Y-75759820D01*
X134010400Y-75370181D01*
X134022896Y-75243306D01*
X134072278Y-75080517D01*
X134072279Y-75080513D01*
X134152468Y-74930488D01*
X134260388Y-74798988D01*
X134391888Y-74691068D01*
X134541912Y-74610879D01*
X134584273Y-74598029D01*
X134704705Y-74561496D01*
X134817568Y-74550380D01*
X134873999Y-74544822D01*
X134874000Y-74544822D01*
X135043294Y-74561496D01*
X135043294Y-74561496D01*
G37*
G36*
X132503294Y-74561496D02*
X132623726Y-74598029D01*
X132666087Y-74610879D01*
X132816112Y-74691068D01*
X132947612Y-74798988D01*
X133055532Y-74930488D01*
X133135721Y-75080512D01*
X133140365Y-75095822D01*
X133185104Y-75243305D01*
X133197600Y-75370180D01*
X133197600Y-75759819D01*
X133185104Y-75886694D01*
X133165947Y-75949845D01*
X133135721Y-76049488D01*
X133055532Y-76199512D01*
X132947612Y-76331012D01*
X132816112Y-76438932D01*
X132666088Y-76519121D01*
X132623727Y-76531971D01*
X132503295Y-76568504D01*
X132390432Y-76579620D01*
X132334001Y-76585178D01*
X132334000Y-76585178D01*
X132164706Y-76568504D01*
X132044274Y-76531971D01*
X132001913Y-76519121D01*
X131851889Y-76438932D01*
X131761946Y-76365117D01*
X131720388Y-76331012D01*
X131612469Y-76199512D01*
X131612467Y-76199509D01*
X131532279Y-76049488D01*
X131502053Y-75949845D01*
X131482896Y-75886695D01*
X131470400Y-75759820D01*
X131470400Y-75370181D01*
X131482896Y-75243306D01*
X131532278Y-75080517D01*
X131532279Y-75080513D01*
X131612468Y-74930488D01*
X131720388Y-74798988D01*
X131851888Y-74691068D01*
X132001912Y-74610879D01*
X132044273Y-74598029D01*
X132164705Y-74561496D01*
X132277568Y-74550380D01*
X132333999Y-74544822D01*
X132334000Y-74544822D01*
X132503294Y-74561496D01*
X132503294Y-74561496D01*
G37*
G36*
X129963294Y-74561496D02*
X130083726Y-74598029D01*
X130126087Y-74610879D01*
X130276112Y-74691068D01*
X130407612Y-74798988D01*
X130515532Y-74930488D01*
X130595721Y-75080512D01*
X130600365Y-75095822D01*
X130645104Y-75243305D01*
X130657600Y-75370180D01*
X130657600Y-75759819D01*
X130645104Y-75886694D01*
X130625947Y-75949845D01*
X130595721Y-76049488D01*
X130515532Y-76199512D01*
X130407612Y-76331012D01*
X130276112Y-76438932D01*
X130126088Y-76519121D01*
X130083727Y-76531971D01*
X129963295Y-76568504D01*
X129850432Y-76579620D01*
X129794001Y-76585178D01*
X129794000Y-76585178D01*
X129624706Y-76568504D01*
X129504274Y-76531971D01*
X129461913Y-76519121D01*
X129311889Y-76438932D01*
X129221946Y-76365117D01*
X129180388Y-76331012D01*
X129072469Y-76199512D01*
X129072467Y-76199509D01*
X128992279Y-76049488D01*
X128962053Y-75949845D01*
X128942896Y-75886695D01*
X128930400Y-75759820D01*
X128930400Y-75370181D01*
X128942896Y-75243306D01*
X128992278Y-75080517D01*
X128992279Y-75080513D01*
X129072468Y-74930488D01*
X129180388Y-74798988D01*
X129311888Y-74691068D01*
X129461912Y-74610879D01*
X129504273Y-74598029D01*
X129624705Y-74561496D01*
X129737568Y-74550380D01*
X129793999Y-74544822D01*
X129794000Y-74544822D01*
X129963294Y-74561496D01*
X129963294Y-74561496D01*
G37*
G36*
X181202183Y-74691900D02*
X181329574Y-74744668D01*
X181444224Y-74821274D01*
X181541726Y-74918776D01*
X181549552Y-74930489D01*
X181618332Y-75033426D01*
X181671100Y-75160817D01*
X181698000Y-75296055D01*
X181698000Y-75433945D01*
X181671100Y-75569183D01*
X181638929Y-75646849D01*
X181618332Y-75696574D01*
X181541726Y-75811224D01*
X181444224Y-75908726D01*
X181329574Y-75985332D01*
X181202183Y-76038100D01*
X181066945Y-76065000D01*
X180929055Y-76065000D01*
X180793817Y-76038100D01*
X180666426Y-75985332D01*
X180551776Y-75908726D01*
X180454274Y-75811224D01*
X180377668Y-75696574D01*
X180357071Y-75646849D01*
X180324900Y-75569183D01*
X180298000Y-75433945D01*
X180298000Y-75296055D01*
X180324900Y-75160817D01*
X180377668Y-75033426D01*
X180446448Y-74930489D01*
X180454274Y-74918776D01*
X180551776Y-74821274D01*
X180666426Y-74744668D01*
X180793817Y-74691900D01*
X180929055Y-74665000D01*
X181066945Y-74665000D01*
X181202183Y-74691900D01*
X181202183Y-74691900D01*
G37*
G36*
X188755224Y-74675128D02*
X188887175Y-74715155D01*
X189008781Y-74780155D01*
X189115370Y-74867630D01*
X189202845Y-74974219D01*
X189267845Y-75095825D01*
X189307872Y-75227776D01*
X189321387Y-75365000D01*
X189307872Y-75502224D01*
X189267845Y-75634175D01*
X189202845Y-75755781D01*
X189115370Y-75862370D01*
X189008781Y-75949845D01*
X188887175Y-76014845D01*
X188755224Y-76054872D01*
X188652390Y-76065000D01*
X188583610Y-76065000D01*
X188480776Y-76054872D01*
X188348825Y-76014845D01*
X188227219Y-75949845D01*
X188120630Y-75862370D01*
X188033155Y-75755781D01*
X187968155Y-75634175D01*
X187928128Y-75502224D01*
X187914613Y-75365000D01*
X187928128Y-75227776D01*
X187968155Y-75095825D01*
X188033155Y-74974219D01*
X188120630Y-74867630D01*
X188227219Y-74780155D01*
X188348825Y-74715155D01*
X188480776Y-74675128D01*
X188583610Y-74665000D01*
X188652390Y-74665000D01*
X188755224Y-74675128D01*
X188755224Y-74675128D01*
G37*
G36*
X197556104Y-73982558D02*
X197623989Y-74003151D01*
X197686559Y-74036597D01*
X197741399Y-74081601D01*
X197786403Y-74136441D01*
X197819849Y-74199011D01*
X197840442Y-74266896D01*
X197848000Y-74343640D01*
X197848000Y-75306360D01*
X197840442Y-75383104D01*
X197819849Y-75450989D01*
X197786403Y-75513559D01*
X197741399Y-75568399D01*
X197686559Y-75613403D01*
X197623989Y-75646849D01*
X197556104Y-75667442D01*
X197479360Y-75675000D01*
X196516640Y-75675000D01*
X196439896Y-75667442D01*
X196372011Y-75646849D01*
X196309441Y-75613403D01*
X196254601Y-75568399D01*
X196209597Y-75513559D01*
X196176151Y-75450989D01*
X196155558Y-75383104D01*
X196148000Y-75306360D01*
X196148000Y-74343640D01*
X196155558Y-74266896D01*
X196176151Y-74199011D01*
X196209597Y-74136441D01*
X196254601Y-74081601D01*
X196309441Y-74036597D01*
X196372011Y-74003151D01*
X196439896Y-73982558D01*
X196516640Y-73975000D01*
X197479360Y-73975000D01*
X197556104Y-73982558D01*
X197556104Y-73982558D01*
G37*
G36*
X197164630Y-71447299D02*
X197324855Y-71495903D01*
X197472520Y-71574831D01*
X197601949Y-71681051D01*
X197708169Y-71810480D01*
X197787097Y-71958145D01*
X197835701Y-72118370D01*
X197852112Y-72285000D01*
X197835701Y-72451630D01*
X197787097Y-72611855D01*
X197708169Y-72759520D01*
X197601949Y-72888949D01*
X197472520Y-72995169D01*
X197324855Y-73074097D01*
X197164630Y-73122701D01*
X197039752Y-73135000D01*
X196956248Y-73135000D01*
X196831370Y-73122701D01*
X196671145Y-73074097D01*
X196523480Y-72995169D01*
X196394051Y-72888949D01*
X196287831Y-72759520D01*
X196208903Y-72611855D01*
X196160299Y-72451630D01*
X196143888Y-72285000D01*
X196160299Y-72118370D01*
X196208903Y-71958145D01*
X196287831Y-71810480D01*
X196394051Y-71681051D01*
X196523480Y-71574831D01*
X196671145Y-71495903D01*
X196831370Y-71447299D01*
X196956248Y-71435000D01*
X197039752Y-71435000D01*
X197164630Y-71447299D01*
X197164630Y-71447299D01*
G37*
M02*
