M48
;DRILL file {KiCad (5.0.1-3-g963ef8bb5)} date 2019 July 05, Friday 13:12:57
;FORMAT={-:-/ absolute / metric / decimal}
FMAT,2
METRIC,TZ
T1C0.700
T2C0.800
T3C1.000
T4C1.016
%
G90
G05
M71
T1
X181.298Y-80.065
X188.918Y-80.065
X180.998Y-75.365
X188.618Y-75.365
T2
X186.998Y-120.115
X186.998Y-122.615
T3
X117.498Y-103.115
X119.998Y-103.115
X122.498Y-103.115
X162.331Y-94.865
X164.831Y-94.865
X167.331Y-94.865
X196.998Y-72.285
X196.998Y-74.825
X196.998Y-77.365
X162.165Y-103.115
X164.665Y-103.115
X167.165Y-103.115
X139.831Y-103.115
X142.331Y-103.115
X144.831Y-103.115
X184.498Y-103.115
X186.998Y-103.115
X189.498Y-103.115
X196.998Y-81.825
X196.998Y-84.365
X117.498Y-94.865
X119.998Y-94.865
X122.498Y-94.865
X139.915Y-94.865
X142.415Y-94.865
X144.915Y-94.865
X184.748Y-94.865
X187.248Y-94.865
X189.748Y-94.865
T4
X156.718Y-75.565
X159.258Y-75.565
X161.798Y-75.565
X164.338Y-75.565
X166.878Y-75.565
X169.418Y-75.565
X171.958Y-75.565
X174.498Y-75.565
X138.938Y-123.825
X141.478Y-123.825
X144.018Y-123.825
X146.558Y-123.825
X149.098Y-123.825
X151.638Y-123.825
X154.178Y-123.825
X156.718Y-123.825
X129.794Y-75.565
X132.334Y-75.565
X134.874Y-75.565
X137.414Y-75.565
X139.954Y-75.565
X142.494Y-75.565
X145.034Y-75.565
X147.574Y-75.565
X150.114Y-75.565
X152.654Y-75.565
X161.798Y-123.825
X164.338Y-123.825
X166.878Y-123.825
X169.418Y-123.825
X171.958Y-123.825
X174.498Y-123.825
T0
M30
